{"glyphs":{"0":{"ha":768,"x_min":76,"x_max":732,"o":"m 310 -17 q 181 16 232 -17 q 104 115 129 49 q 78 286 79 182 q 108 544 76 426 q 196 750 139 663 q 330 885 253 838 q 499 933 407 933 q 628 901 578 933 q 705 801 679 868 q 731 631 731 735 q 701 374 732 492 q 613 168 669 256 q 478 32 556 81 q 310 -17 401 -17 m 338 68 q 419 97 381 68 q 490 178 458 125 q 546 302 522 231 q 582 460 569 374 q 594 642 594 546 q 565 798 594 749 q 467 847 535 847 q 386 819 424 847 q 317 738 349 790 q 262 613 285 685 q 226 456 239 542 q 214 274 214 369 q 244 117 214 167 q 338 68 274 68 z "},"1":{"ha":697,"x_min":-15,"x_max":596,"o":"m -7 -10 q -12 10 -10 -3 q -15 33 -15 24 q 8 89 -15 69 q 88 108 32 108 l 250 108 l 379 761 l 376 763 q 284 719 325 738 q 201 701 243 701 q 141 731 160 701 q 117 800 122 761 q 244 829 183 813 q 367 872 304 846 q 507 936 431 897 l 538 924 l 375 104 q 483 101 438 103 q 579 104 528 99 q 596 56 596 75 q 573 8 596 25 q 500 -8 550 -8 q 379 -7 429 -8 q 287 -4 329 -6 q 197 -1 244 -3 q 83 0 149 0 q 31 -3 56 0 q -7 -10 7 -7 z "},"2":{"ha":764,"x_min":21,"x_max":674,"o":"m 536 -31 q 408 -19 476 -31 q 273 3 340 -8 q 146 14 206 14 q 91 10 115 14 q 47 0 67 6 q 28 28 36 11 q 21 61 21 46 q 37 109 21 89 q 57 135 53 129 l 324 364 q 488 533 429 454 q 547 693 547 611 q 507 799 547 761 q 389 836 467 836 q 301 822 342 836 q 223 777 260 807 q 150 700 186 747 q 139 715 143 707 q 133 734 135 724 q 132 760 132 744 q 156 837 132 803 q 222 895 181 871 q 313 932 263 919 q 415 944 364 944 q 526 928 478 944 q 607 882 574 913 q 657 806 640 851 q 674 703 674 761 q 649 569 674 628 q 583 463 624 510 q 497 375 543 415 q 428 319 472 354 q 335 247 383 285 q 248 176 286 208 q 196 126 210 143 q 342 104 275 111 q 488 97 408 97 q 560 99 526 97 q 622 107 594 101 q 635 54 635 86 q 611 -6 635 19 q 536 -31 588 -31 z "},"3":{"ha":729,"x_min":26,"x_max":667,"o":"m 272 -26 q 152 -7 208 -26 q 61 53 96 13 q 26 154 26 93 q 33 192 26 178 q 54 217 40 207 q 147 122 96 156 q 283 88 199 88 q 398 109 344 88 q 485 171 451 131 q 518 269 518 211 q 476 366 518 333 q 367 410 433 399 q 225 422 300 422 l 238 503 q 334 520 283 507 q 430 559 385 533 q 504 623 475 585 q 535 714 533 661 q 497 803 536 774 q 382 835 457 833 q 260 805 317 836 q 167 722 203 774 q 146 749 153 733 q 140 782 139 764 q 167 853 143 822 q 230 904 190 883 q 317 935 269 925 q 415 943 365 944 q 554 918 499 942 q 638 851 610 894 q 665 742 667 807 q 634 617 665 669 q 552 531 603 564 q 444 485 501 499 q 597 415 550 463 q 644 283 644 368 q 593 119 644 189 q 458 12 542 50 q 272 -26 374 -26 z "},"4":{"ha":744,"x_min":-4,"x_max":696,"o":"m 483 232 q 360 237 429 233 q 222 244 292 240 q 96 249 153 249 q 48 247 69 249 q 14 240 26 244 q -4 290 -4 258 q 5 331 -4 310 q 25 367 14 353 q 143 515 83 438 q 255 669 203 592 q 342 815 307 746 q 386 940 378 885 q 406 944 401 944 q 448 914 428 944 q 465 846 468 883 q 427 722 463 788 q 340 591 392 657 q 232 465 288 525 q 132 360 176 406 q 273 356 208 353 q 397 360 338 360 q 488 361 444 360 q 570 366 532 363 q 637 373 608 369 q 679 381 665 376 q 691 356 686 371 q 696 326 696 340 q 668 262 696 282 q 593 237 640 242 q 483 232 546 232 m 428 -12 q 394 -4 408 -12 q 374 19 381 4 q 367 57 367 35 q 371 90 367 65 q 381 143 375 115 l 449 474 q 526 593 493 536 q 576 693 558 650 l 614 693 l 475 -3 q 453 -10 464 -8 q 428 -12 442 -12 z "},"5":{"ha":700,"x_min":-1,"x_max":679,"o":"m 249 -26 q 153 -15 199 -26 q 74 21 108 -3 q 19 78 39 44 q -1 154 -1 111 q 26 217 -1 199 q 126 122 65 156 q 265 89 186 89 q 428 144 365 89 q 492 293 492 200 q 464 382 492 346 q 383 436 436 418 q 254 454 331 454 q 163 450 214 454 q 81 442 111 446 l 189 917 l 601 917 q 633 919 618 917 q 661 933 649 922 q 674 908 669 922 q 679 876 679 893 q 668 835 679 853 q 635 809 657 818 q 581 800 613 800 l 256 800 l 206 554 q 246 555 224 554 q 296 556 268 556 q 479 529 407 556 q 588 449 551 503 q 624 314 624 396 q 574 140 624 217 q 440 18 525 63 q 249 -26 356 -26 z "},"6":{"ha":754,"x_min":60,"x_max":665,"o":"m 308 -28 q 169 7 225 -28 q 87 113 114 42 q 60 290 60 183 q 78 470 60 378 q 132 647 96 563 q 221 799 168 732 q 344 906 274 867 q 499 946 414 946 q 574 936 536 946 q 639 902 613 926 q 665 832 665 878 q 660 799 665 814 q 644 775 654 783 q 576 817 614 803 q 496 831 539 831 q 356 784 413 831 q 266 666 300 738 q 215 517 232 594 l 221 515 q 308 596 254 568 q 425 624 363 624 q 546 594 496 624 q 622 507 596 564 q 649 365 649 450 q 610 169 649 258 q 495 26 571 79 q 308 -28 419 -28 m 318 67 q 411 95 374 67 q 472 170 449 124 q 505 270 494 217 q 515 372 515 324 q 506 444 515 408 q 472 503 497 479 q 393 526 446 526 q 301 500 339 526 q 239 430 263 474 q 205 334 215 386 q 194 231 194 282 q 203 152 194 190 q 239 90 213 114 q 318 67 265 67 z "},"7":{"ha":694,"x_min":121,"x_max":724,"o":"m 247 -25 q 191 2 213 -25 q 169 72 169 29 q 181 136 169 99 q 217 225 192 174 q 282 346 242 276 l 542 794 l 221 794 q 166 805 189 794 q 132 835 143 815 q 121 883 121 856 q 125 911 121 899 q 136 933 129 924 q 166 918 150 919 q 194 917 182 917 l 724 917 l 719 851 q 638 736 676 796 q 547 597 600 676 q 431 408 475 488 q 365 265 388 328 q 335 147 343 203 q 328 29 328 92 q 328 13 328 22 q 331 -7 329 4 q 289 -20 311 -15 q 247 -25 267 -25 z "},"8":{"ha":747,"x_min":28,"x_max":686,"o":"m 301 -26 q 158 1 219 -26 q 64 79 97 28 q 29 200 31 131 q 92 374 28 294 q 265 501 156 454 q 183 594 210 547 q 156 697 157 640 q 182 806 156 760 q 252 883 208 851 q 350 929 296 914 q 458 944 404 944 q 580 921 529 944 q 658 856 631 897 q 686 758 686 814 q 658 641 686 690 q 585 555 629 592 q 492 488 540 518 q 553 433 522 463 q 607 363 585 404 q 629 261 629 322 q 605 148 629 200 q 536 57 581 96 q 432 -4 492 18 q 301 -26 372 -26 m 317 71 q 446 114 396 71 q 494 225 496 157 q 457 338 494 290 q 363 426 419 385 l 326 454 q 199 358 246 421 q 153 221 153 294 q 197 111 153 151 q 317 71 240 71 m 418 539 q 490 590 457 557 q 542 663 522 622 q 563 747 563 704 q 528 818 563 790 q 433 846 493 846 q 328 813 371 846 q 286 708 286 781 q 309 633 286 665 q 379 567 332 600 l 418 539 z "},"9":{"ha":753,"x_min":83,"x_max":694,"o":"m 249 -28 q 173 -18 211 -28 q 109 17 135 -8 q 83 86 83 42 q 89 120 83 106 q 104 143 94 135 q 172 102 135 117 q 253 88 210 88 q 392 133 336 88 q 483 251 449 179 q 533 400 517 324 l 529 401 q 430 320 493 346 q 311 294 367 294 q 158 363 213 294 q 104 553 103 431 q 144 749 106 660 q 260 892 183 839 q 447 946 336 946 q 586 911 532 946 q 667 806 640 876 q 693 628 694 736 q 673 448 692 540 q 617 271 654 356 q 527 119 581 186 q 404 12 474 51 q 249 -28 335 -28 m 358 388 q 452 416 414 388 q 514 490 490 444 q 548 590 538 536 q 558 696 558 644 q 549 772 558 736 q 513 829 539 807 q 436 851 488 851 q 342 822 381 851 q 281 744 304 792 q 248 642 258 697 q 238 538 238 588 q 247 467 238 501 q 282 410 256 432 q 358 388 308 388 z "},"A":{"ha":953,"x_min":50,"x_max":883,"o":"m 800 -222 q 737 -193 764 -222 q 691 -106 710 -164 q 663 38 672 -49 q 650 236 653 124 l 404 236 q 294 63 342 119 q 208 -12 246 6 q 136 -31 169 -31 q 69 -10 89 -31 q 50 38 50 10 q 52 56 50 49 q 56 71 54 64 q 123 81 92 71 q 185 120 154 92 q 253 202 217 149 q 337 342 290 256 q 444 555 383 429 q 586 853 506 681 l 579 867 q 520 883 558 874 q 442 892 482 892 q 297 834 344 892 q 249 686 249 776 q 258 613 249 649 q 290 547 268 578 q 263 538 278 542 q 231 533 247 533 q 169 553 194 533 q 130 608 143 574 q 117 688 117 643 q 152 816 117 754 q 257 918 188 878 q 426 958 326 958 q 499 952 453 958 q 600 938 546 946 q 703 923 654 929 q 786 917 753 917 q 781 808 785 878 q 773 649 776 738 q 769 463 769 560 q 774 273 769 368 q 792 92 779 178 q 826 -61 804 6 q 883 -167 849 -128 q 862 -196 875 -183 q 833 -215 849 -208 q 800 -222 818 -222 m 449 332 l 649 332 q 651 444 649 371 q 657 607 653 517 q 664 786 661 697 l 660 786 q 544 528 603 643 q 449 332 486 413 z "},"Á":{"ha":953,"x_min":50,"x_max":910,"o":"m 800 -222 q 737 -193 764 -222 q 691 -106 710 -164 q 663 38 672 -49 q 650 236 653 124 l 404 236 q 294 63 342 119 q 208 -12 246 6 q 136 -31 169 -31 q 69 -10 89 -31 q 50 38 50 10 q 52 56 50 49 q 56 71 54 64 q 123 81 92 71 q 185 120 154 92 q 253 202 217 149 q 337 342 290 256 q 444 555 383 429 q 586 853 506 681 l 579 867 q 520 883 558 874 q 442 892 482 892 q 297 834 344 892 q 249 686 249 776 q 258 613 249 649 q 290 547 268 578 q 263 538 278 542 q 231 533 247 533 q 169 553 194 533 q 130 608 143 574 q 117 688 117 643 q 152 816 117 754 q 257 918 188 878 q 426 958 326 958 q 499 952 453 958 q 600 938 546 946 q 703 923 654 929 q 786 917 753 917 q 781 808 785 878 q 773 649 776 738 q 769 463 769 560 q 774 273 769 368 q 792 92 779 178 q 826 -61 804 6 q 883 -167 849 -128 q 862 -196 875 -183 q 833 -215 849 -208 q 800 -222 818 -222 m 449 332 l 649 332 q 651 444 649 371 q 657 607 653 517 q 664 786 661 697 l 660 786 q 544 528 603 643 q 449 332 486 413 z "},"Ă":{"ha":953,"x_min":50,"x_max":932,"o":"m 800 -222 q 737 -193 764 -222 q 691 -106 710 -164 q 663 38 672 -49 q 650 236 653 124 l 404 236 q 294 63 342 119 q 208 -12 246 6 q 136 -31 169 -31 q 69 -10 89 -31 q 50 38 50 10 q 52 56 50 49 q 56 71 54 64 q 123 81 92 71 q 185 120 154 92 q 253 202 217 149 q 337 342 290 256 q 444 555 383 429 q 586 853 506 681 l 579 867 q 520 883 558 874 q 442 892 482 892 q 297 834 344 892 q 249 686 249 776 q 258 613 249 649 q 290 547 268 578 q 263 538 278 542 q 231 533 247 533 q 169 553 194 533 q 130 608 143 574 q 117 688 117 643 q 152 816 117 754 q 257 918 188 878 q 426 958 326 958 q 499 952 453 958 q 600 938 546 946 q 703 923 654 929 q 786 917 753 917 q 781 808 785 878 q 773 649 776 738 q 769 463 769 560 q 774 273 769 368 q 792 92 779 178 q 826 -61 804 6 q 883 -167 849 -128 q 862 -196 875 -183 q 833 -215 849 -208 q 800 -222 818 -222 m 449 332 l 649 332 q 651 444 649 371 q 657 607 653 517 q 664 786 661 697 l 660 786 q 544 528 603 643 q 449 332 486 413 z "},"Ắ":{"ha":953,"x_min":50,"x_max":971,"o":"m 800 -222 q 737 -193 764 -222 q 691 -106 710 -164 q 663 38 672 -49 q 650 236 653 124 l 404 236 q 294 63 342 119 q 208 -12 246 6 q 136 -31 169 -31 q 69 -10 89 -31 q 50 38 50 10 q 52 56 50 49 q 56 71 54 64 q 123 81 92 71 q 185 120 154 92 q 253 202 217 149 q 337 342 290 256 q 444 555 383 429 q 586 853 506 681 l 579 867 q 520 883 558 874 q 442 892 482 892 q 297 834 344 892 q 249 686 249 776 q 258 613 249 649 q 290 547 268 578 q 263 538 278 542 q 231 533 247 533 q 169 553 194 533 q 130 608 143 574 q 117 688 117 643 q 152 816 117 754 q 257 918 188 878 q 426 958 326 958 q 499 952 453 958 q 600 938 546 946 q 703 923 654 929 q 786 917 753 917 q 781 808 785 878 q 773 649 776 738 q 769 463 769 560 q 774 273 769 368 q 792 92 779 178 q 826 -61 804 6 q 883 -167 849 -128 q 862 -196 875 -183 q 833 -215 849 -208 q 800 -222 818 -222 m 449 332 l 649 332 q 651 444 649 371 q 657 607 653 517 q 664 786 661 697 l 660 786 q 544 528 603 643 q 449 332 486 413 z "},"Ặ":{"ha":953,"x_min":50,"x_max":939,"o":"m 800 -222 q 737 -193 764 -222 q 691 -106 710 -164 q 663 38 672 -49 q 650 236 653 124 l 404 236 q 294 63 342 119 q 208 -12 246 6 q 136 -31 169 -31 q 69 -10 89 -31 q 50 38 50 10 q 52 56 50 49 q 56 71 54 64 q 123 81 92 71 q 185 120 154 92 q 253 202 217 149 q 337 342 290 256 q 444 555 383 429 q 586 853 506 681 l 579 867 q 520 883 558 874 q 442 892 482 892 q 297 834 344 892 q 249 686 249 776 q 258 613 249 649 q 290 547 268 578 q 263 538 278 542 q 231 533 247 533 q 169 553 194 533 q 130 608 143 574 q 117 688 117 643 q 152 816 117 754 q 257 918 188 878 q 426 958 326 958 q 499 952 453 958 q 600 938 546 946 q 703 923 654 929 q 786 917 753 917 q 781 808 785 878 q 773 649 776 738 q 769 463 769 560 q 774 273 769 368 q 792 92 779 178 q 826 -61 804 6 q 883 -167 849 -128 q 862 -196 875 -183 q 833 -215 849 -208 q 800 -222 818 -222 m 449 332 l 649 332 q 651 444 649 371 q 657 607 653 517 q 664 786 661 697 l 660 786 q 544 528 603 643 q 449 332 486 413 z "},"Ằ":{"ha":953,"x_min":50,"x_max":942,"o":"m 800 -222 q 737 -193 764 -222 q 691 -106 710 -164 q 663 38 672 -49 q 650 236 653 124 l 404 236 q 294 63 342 119 q 208 -12 246 6 q 136 -31 169 -31 q 69 -10 89 -31 q 50 38 50 10 q 52 56 50 49 q 56 71 54 64 q 123 81 92 71 q 185 120 154 92 q 253 202 217 149 q 337 342 290 256 q 444 555 383 429 q 586 853 506 681 l 579 867 q 520 883 558 874 q 442 892 482 892 q 297 834 344 892 q 249 686 249 776 q 258 613 249 649 q 290 547 268 578 q 263 538 278 542 q 231 533 247 533 q 169 553 194 533 q 130 608 143 574 q 117 688 117 643 q 152 816 117 754 q 257 918 188 878 q 426 958 326 958 q 499 952 453 958 q 600 938 546 946 q 703 923 654 929 q 786 917 753 917 q 781 808 785 878 q 773 649 776 738 q 769 463 769 560 q 774 273 769 368 q 792 92 779 178 q 826 -61 804 6 q 883 -167 849 -128 q 862 -196 875 -183 q 833 -215 849 -208 q 800 -222 818 -222 m 449 332 l 649 332 q 651 444 649 371 q 657 607 653 517 q 664 786 661 697 l 660 786 q 544 528 603 643 q 449 332 486 413 z "},"Ẳ":{"ha":953,"x_min":50,"x_max":943,"o":"m 800 -222 q 737 -193 764 -222 q 691 -106 710 -164 q 663 38 672 -49 q 650 236 653 124 l 404 236 q 294 63 342 119 q 208 -12 246 6 q 136 -31 169 -31 q 69 -10 89 -31 q 50 38 50 10 q 52 56 50 49 q 56 71 54 64 q 123 81 92 71 q 185 120 154 92 q 253 202 217 149 q 337 342 290 256 q 444 555 383 429 q 586 853 506 681 l 579 867 q 520 883 558 874 q 442 892 482 892 q 297 834 344 892 q 249 686 249 776 q 258 613 249 649 q 290 547 268 578 q 263 538 278 542 q 231 533 247 533 q 169 553 194 533 q 130 608 143 574 q 117 688 117 643 q 152 816 117 754 q 257 918 188 878 q 426 958 326 958 q 499 952 453 958 q 600 938 546 946 q 703 923 654 929 q 786 917 753 917 q 781 808 785 878 q 773 649 776 738 q 769 463 769 560 q 774 273 769 368 q 792 92 779 178 q 826 -61 804 6 q 883 -167 849 -128 q 862 -196 875 -183 q 833 -215 849 -208 q 800 -222 818 -222 m 449 332 l 649 332 q 651 444 649 371 q 657 607 653 517 q 664 786 661 697 l 660 786 q 544 528 603 643 q 449 332 486 413 z "},"Ẵ":{"ha":953,"x_min":50,"x_max":971,"o":"m 800 -222 q 737 -193 764 -222 q 691 -106 710 -164 q 663 38 672 -49 q 650 236 653 124 l 404 236 q 294 63 342 119 q 208 -12 246 6 q 136 -31 169 -31 q 69 -10 89 -31 q 50 38 50 10 q 52 56 50 49 q 56 71 54 64 q 123 81 92 71 q 185 120 154 92 q 253 202 217 149 q 337 342 290 256 q 444 555 383 429 q 586 853 506 681 l 579 867 q 520 883 558 874 q 442 892 482 892 q 297 834 344 892 q 249 686 249 776 q 258 613 249 649 q 290 547 268 578 q 263 538 278 542 q 231 533 247 533 q 169 553 194 533 q 130 608 143 574 q 117 688 117 643 q 152 816 117 754 q 257 918 188 878 q 426 958 326 958 q 499 952 453 958 q 600 938 546 946 q 703 923 654 929 q 786 917 753 917 q 781 808 785 878 q 773 649 776 738 q 769 463 769 560 q 774 273 769 368 q 792 92 779 178 q 826 -61 804 6 q 883 -167 849 -128 q 862 -196 875 -183 q 833 -215 849 -208 q 800 -222 818 -222 m 449 332 l 649 332 q 651 444 649 371 q 657 607 653 517 q 664 786 661 697 l 660 786 q 544 528 603 643 q 449 332 486 413 z "},"Ǎ":{"ha":953,"x_min":50,"x_max":908,"o":"m 800 -222 q 737 -193 764 -222 q 691 -106 710 -164 q 663 38 672 -49 q 650 236 653 124 l 404 236 q 294 63 342 119 q 208 -12 246 6 q 136 -31 169 -31 q 69 -10 89 -31 q 50 38 50 10 q 52 56 50 49 q 56 71 54 64 q 123 81 92 71 q 185 120 154 92 q 253 202 217 149 q 337 342 290 256 q 444 555 383 429 q 586 853 506 681 l 579 867 q 520 883 558 874 q 442 892 482 892 q 297 834 344 892 q 249 686 249 776 q 258 613 249 649 q 290 547 268 578 q 263 538 278 542 q 231 533 247 533 q 169 553 194 533 q 130 608 143 574 q 117 688 117 643 q 152 816 117 754 q 257 918 188 878 q 426 958 326 958 q 499 952 453 958 q 600 938 546 946 q 703 923 654 929 q 786 917 753 917 q 781 808 785 878 q 773 649 776 738 q 769 463 769 560 q 774 273 769 368 q 792 92 779 178 q 826 -61 804 6 q 883 -167 849 -128 q 862 -196 875 -183 q 833 -215 849 -208 q 800 -222 818 -222 m 449 332 l 649 332 q 651 444 649 371 q 657 607 653 517 q 664 786 661 697 l 660 786 q 544 528 603 643 q 449 332 486 413 z "},"Â":{"ha":953,"x_min":50,"x_max":900,"o":"m 800 -222 q 737 -193 764 -222 q 691 -106 710 -164 q 663 38 672 -49 q 650 236 653 124 l 404 236 q 294 63 342 119 q 208 -12 246 6 q 136 -31 169 -31 q 69 -10 89 -31 q 50 38 50 10 q 52 56 50 49 q 56 71 54 64 q 123 81 92 71 q 185 120 154 92 q 253 202 217 149 q 337 342 290 256 q 444 555 383 429 q 586 853 506 681 l 579 867 q 520 883 558 874 q 442 892 482 892 q 297 834 344 892 q 249 686 249 776 q 258 613 249 649 q 290 547 268 578 q 263 538 278 542 q 231 533 247 533 q 169 553 194 533 q 130 608 143 574 q 117 688 117 643 q 152 816 117 754 q 257 918 188 878 q 426 958 326 958 q 499 952 453 958 q 600 938 546 946 q 703 923 654 929 q 786 917 753 917 q 781 808 785 878 q 773 649 776 738 q 769 463 769 560 q 774 273 769 368 q 792 92 779 178 q 826 -61 804 6 q 883 -167 849 -128 q 862 -196 875 -183 q 833 -215 849 -208 q 800 -222 818 -222 m 449 332 l 649 332 q 651 444 649 371 q 657 607 653 517 q 664 786 661 697 l 660 786 q 544 528 603 643 q 449 332 486 413 z "},"Ấ":{"ha":953,"x_min":50,"x_max":900,"o":"m 800 -222 q 737 -193 764 -222 q 691 -106 710 -164 q 663 38 672 -49 q 650 236 653 124 l 404 236 q 294 63 342 119 q 208 -12 246 6 q 136 -31 169 -31 q 69 -10 89 -31 q 50 38 50 10 q 52 56 50 49 q 56 71 54 64 q 123 81 92 71 q 185 120 154 92 q 253 202 217 149 q 337 342 290 256 q 444 555 383 429 q 586 853 506 681 l 579 867 q 520 883 558 874 q 442 892 482 892 q 297 834 344 892 q 249 686 249 776 q 258 613 249 649 q 290 547 268 578 q 263 538 278 542 q 231 533 247 533 q 169 553 194 533 q 130 608 143 574 q 117 688 117 643 q 152 816 117 754 q 257 918 188 878 q 426 958 326 958 q 499 952 453 958 q 600 938 546 946 q 703 923 654 929 q 786 917 753 917 q 781 808 785 878 q 773 649 776 738 q 769 463 769 560 q 774 273 769 368 q 792 92 779 178 q 826 -61 804 6 q 883 -167 849 -128 q 862 -196 875 -183 q 833 -215 849 -208 q 800 -222 818 -222 m 449 332 l 649 332 q 651 444 649 371 q 657 607 653 517 q 664 786 661 697 l 660 786 q 544 528 603 643 q 449 332 486 413 z "},"Ậ":{"ha":953,"x_min":50,"x_max":900,"o":"m 800 -222 q 737 -193 764 -222 q 691 -106 710 -164 q 663 38 672 -49 q 650 236 653 124 l 404 236 q 294 63 342 119 q 208 -12 246 6 q 136 -31 169 -31 q 69 -10 89 -31 q 50 38 50 10 q 52 56 50 49 q 56 71 54 64 q 123 81 92 71 q 185 120 154 92 q 253 202 217 149 q 337 342 290 256 q 444 555 383 429 q 586 853 506 681 l 579 867 q 520 883 558 874 q 442 892 482 892 q 297 834 344 892 q 249 686 249 776 q 258 613 249 649 q 290 547 268 578 q 263 538 278 542 q 231 533 247 533 q 169 553 194 533 q 130 608 143 574 q 117 688 117 643 q 152 816 117 754 q 257 918 188 878 q 426 958 326 958 q 499 952 453 958 q 600 938 546 946 q 703 923 654 929 q 786 917 753 917 q 781 808 785 878 q 773 649 776 738 q 769 463 769 560 q 774 273 769 368 q 792 92 779 178 q 826 -61 804 6 q 883 -167 849 -128 q 862 -196 875 -183 q 833 -215 849 -208 q 800 -222 818 -222 m 449 332 l 649 332 q 651 444 649 371 q 657 607 653 517 q 664 786 661 697 l 660 786 q 544 528 603 643 q 449 332 486 413 z "},"Ầ":{"ha":953,"x_min":50,"x_max":900,"o":"m 800 -222 q 737 -193 764 -222 q 691 -106 710 -164 q 663 38 672 -49 q 650 236 653 124 l 404 236 q 294 63 342 119 q 208 -12 246 6 q 136 -31 169 -31 q 69 -10 89 -31 q 50 38 50 10 q 52 56 50 49 q 56 71 54 64 q 123 81 92 71 q 185 120 154 92 q 253 202 217 149 q 337 342 290 256 q 444 555 383 429 q 586 853 506 681 l 579 867 q 520 883 558 874 q 442 892 482 892 q 297 834 344 892 q 249 686 249 776 q 258 613 249 649 q 290 547 268 578 q 263 538 278 542 q 231 533 247 533 q 169 553 194 533 q 130 608 143 574 q 117 688 117 643 q 152 816 117 754 q 257 918 188 878 q 426 958 326 958 q 499 952 453 958 q 600 938 546 946 q 703 923 654 929 q 786 917 753 917 q 781 808 785 878 q 773 649 776 738 q 769 463 769 560 q 774 273 769 368 q 792 92 779 178 q 826 -61 804 6 q 883 -167 849 -128 q 862 -196 875 -183 q 833 -215 849 -208 q 800 -222 818 -222 m 449 332 l 649 332 q 651 444 649 371 q 657 607 653 517 q 664 786 661 697 l 660 786 q 544 528 603 643 q 449 332 486 413 z "},"Ẩ":{"ha":953,"x_min":50,"x_max":908,"o":"m 800 -222 q 737 -193 764 -222 q 691 -106 710 -164 q 663 38 672 -49 q 650 236 653 124 l 404 236 q 294 63 342 119 q 208 -12 246 6 q 136 -31 169 -31 q 69 -10 89 -31 q 50 38 50 10 q 52 56 50 49 q 56 71 54 64 q 123 81 92 71 q 185 120 154 92 q 253 202 217 149 q 337 342 290 256 q 444 555 383 429 q 586 853 506 681 l 579 867 q 520 883 558 874 q 442 892 482 892 q 297 834 344 892 q 249 686 249 776 q 258 613 249 649 q 290 547 268 578 q 263 538 278 542 q 231 533 247 533 q 169 553 194 533 q 130 608 143 574 q 117 688 117 643 q 152 816 117 754 q 257 918 188 878 q 426 958 326 958 q 499 952 453 958 q 600 938 546 946 q 703 923 654 929 q 786 917 753 917 q 781 808 785 878 q 773 649 776 738 q 769 463 769 560 q 774 273 769 368 q 792 92 779 178 q 826 -61 804 6 q 883 -167 849 -128 q 862 -196 875 -183 q 833 -215 849 -208 q 800 -222 818 -222 m 449 332 l 649 332 q 651 444 649 371 q 657 607 653 517 q 664 786 661 697 l 660 786 q 544 528 603 643 q 449 332 486 413 z "},"Ẫ":{"ha":953,"x_min":50,"x_max":947,"o":"m 800 -222 q 737 -193 764 -222 q 691 -106 710 -164 q 663 38 672 -49 q 650 236 653 124 l 404 236 q 294 63 342 119 q 208 -12 246 6 q 136 -31 169 -31 q 69 -10 89 -31 q 50 38 50 10 q 52 56 50 49 q 56 71 54 64 q 123 81 92 71 q 185 120 154 92 q 253 202 217 149 q 337 342 290 256 q 444 555 383 429 q 586 853 506 681 l 579 867 q 520 883 558 874 q 442 892 482 892 q 297 834 344 892 q 249 686 249 776 q 258 613 249 649 q 290 547 268 578 q 263 538 278 542 q 231 533 247 533 q 169 553 194 533 q 130 608 143 574 q 117 688 117 643 q 152 816 117 754 q 257 918 188 878 q 426 958 326 958 q 499 952 453 958 q 600 938 546 946 q 703 923 654 929 q 786 917 753 917 q 781 808 785 878 q 773 649 776 738 q 769 463 769 560 q 774 273 769 368 q 792 92 779 178 q 826 -61 804 6 q 883 -167 849 -128 q 862 -196 875 -183 q 833 -215 849 -208 q 800 -222 818 -222 m 449 332 l 649 332 q 651 444 649 371 q 657 607 653 517 q 664 786 661 697 l 660 786 q 544 528 603 643 q 449 332 486 413 z "},"Ȁ":{"ha":953,"x_min":50,"x_max":897,"o":"m 800 -222 q 737 -193 764 -222 q 691 -106 710 -164 q 663 38 672 -49 q 650 236 653 124 l 404 236 q 294 63 342 119 q 208 -12 246 6 q 136 -31 169 -31 q 69 -10 89 -31 q 50 38 50 10 q 52 56 50 49 q 56 71 54 64 q 123 81 92 71 q 185 120 154 92 q 253 202 217 149 q 337 342 290 256 q 444 555 383 429 q 586 853 506 681 l 579 867 q 520 883 558 874 q 442 892 482 892 q 297 834 344 892 q 249 686 249 776 q 258 613 249 649 q 290 547 268 578 q 263 538 278 542 q 231 533 247 533 q 169 553 194 533 q 130 608 143 574 q 117 688 117 643 q 152 816 117 754 q 257 918 188 878 q 426 958 326 958 q 499 952 453 958 q 600 938 546 946 q 703 923 654 929 q 786 917 753 917 q 781 808 785 878 q 773 649 776 738 q 769 463 769 560 q 774 273 769 368 q 792 92 779 178 q 826 -61 804 6 q 883 -167 849 -128 q 862 -196 875 -183 q 833 -215 849 -208 q 800 -222 818 -222 m 449 332 l 649 332 q 651 444 649 371 q 657 607 653 517 q 664 786 661 697 l 660 786 q 544 528 603 643 q 449 332 486 413 z "},"Ä":{"ha":953,"x_min":50,"x_max":940,"o":"m 800 -222 q 737 -193 764 -222 q 691 -106 710 -164 q 663 38 672 -49 q 650 236 653 124 l 404 236 q 294 63 342 119 q 208 -12 246 6 q 136 -31 169 -31 q 69 -10 89 -31 q 50 38 50 10 q 52 56 50 49 q 56 71 54 64 q 123 81 92 71 q 185 120 154 92 q 253 202 217 149 q 337 342 290 256 q 444 555 383 429 q 586 853 506 681 l 579 867 q 520 883 558 874 q 442 892 482 892 q 297 834 344 892 q 249 686 249 776 q 258 613 249 649 q 290 547 268 578 q 263 538 278 542 q 231 533 247 533 q 169 553 194 533 q 130 608 143 574 q 117 688 117 643 q 152 816 117 754 q 257 918 188 878 q 426 958 326 958 q 499 952 453 958 q 600 938 546 946 q 703 923 654 929 q 786 917 753 917 q 781 808 785 878 q 773 649 776 738 q 769 463 769 560 q 774 273 769 368 q 792 92 779 178 q 826 -61 804 6 q 883 -167 849 -128 q 862 -196 875 -183 q 833 -215 849 -208 q 800 -222 818 -222 m 449 332 l 649 332 q 651 444 649 371 q 657 607 653 517 q 664 786 661 697 l 660 786 q 544 528 603 643 q 449 332 486 413 z "},"Ạ":{"ha":953,"x_min":50,"x_max":883,"o":"m 800 -222 q 737 -193 764 -222 q 691 -106 710 -164 q 663 38 672 -49 q 650 236 653 124 l 404 236 q 294 63 342 119 q 208 -12 246 6 q 136 -31 169 -31 q 69 -10 89 -31 q 50 38 50 10 q 52 56 50 49 q 56 71 54 64 q 123 81 92 71 q 185 120 154 92 q 253 202 217 149 q 337 342 290 256 q 444 555 383 429 q 586 853 506 681 l 579 867 q 520 883 558 874 q 442 892 482 892 q 297 834 344 892 q 249 686 249 776 q 258 613 249 649 q 290 547 268 578 q 263 538 278 542 q 231 533 247 533 q 169 553 194 533 q 130 608 143 574 q 117 688 117 643 q 152 816 117 754 q 257 918 188 878 q 426 958 326 958 q 499 952 453 958 q 600 938 546 946 q 703 923 654 929 q 786 917 753 917 q 781 808 785 878 q 773 649 776 738 q 769 463 769 560 q 774 273 769 368 q 792 92 779 178 q 826 -61 804 6 q 883 -167 849 -128 q 862 -196 875 -183 q 833 -215 849 -208 q 800 -222 818 -222 m 449 332 l 649 332 q 651 444 649 371 q 657 607 653 517 q 664 786 661 697 l 660 786 q 544 528 603 643 q 449 332 486 413 z "},"À":{"ha":953,"x_min":50,"x_max":883,"o":"m 800 -222 q 737 -193 764 -222 q 691 -106 710 -164 q 663 38 672 -49 q 650 236 653 124 l 404 236 q 294 63 342 119 q 208 -12 246 6 q 136 -31 169 -31 q 69 -10 89 -31 q 50 38 50 10 q 52 56 50 49 q 56 71 54 64 q 123 81 92 71 q 185 120 154 92 q 253 202 217 149 q 337 342 290 256 q 444 555 383 429 q 586 853 506 681 l 579 867 q 520 883 558 874 q 442 892 482 892 q 297 834 344 892 q 249 686 249 776 q 258 613 249 649 q 290 547 268 578 q 263 538 278 542 q 231 533 247 533 q 169 553 194 533 q 130 608 143 574 q 117 688 117 643 q 152 816 117 754 q 257 918 188 878 q 426 958 326 958 q 499 952 453 958 q 600 938 546 946 q 703 923 654 929 q 786 917 753 917 q 781 808 785 878 q 773 649 776 738 q 769 463 769 560 q 774 273 769 368 q 792 92 779 178 q 826 -61 804 6 q 883 -167 849 -128 q 862 -196 875 -183 q 833 -215 849 -208 q 800 -222 818 -222 m 449 332 l 649 332 q 651 444 649 371 q 657 607 653 517 q 664 786 661 697 l 660 786 q 544 528 603 643 q 449 332 486 413 z "},"Ả":{"ha":953,"x_min":50,"x_max":897,"o":"m 800 -222 q 737 -193 764 -222 q 691 -106 710 -164 q 663 38 672 -49 q 650 236 653 124 l 404 236 q 294 63 342 119 q 208 -12 246 6 q 136 -31 169 -31 q 69 -10 89 -31 q 50 38 50 10 q 52 56 50 49 q 56 71 54 64 q 123 81 92 71 q 185 120 154 92 q 253 202 217 149 q 337 342 290 256 q 444 555 383 429 q 586 853 506 681 l 579 867 q 520 883 558 874 q 442 892 482 892 q 297 834 344 892 q 249 686 249 776 q 258 613 249 649 q 290 547 268 578 q 263 538 278 542 q 231 533 247 533 q 169 553 194 533 q 130 608 143 574 q 117 688 117 643 q 152 816 117 754 q 257 918 188 878 q 426 958 326 958 q 499 952 453 958 q 600 938 546 946 q 703 923 654 929 q 786 917 753 917 q 781 808 785 878 q 773 649 776 738 q 769 463 769 560 q 774 273 769 368 q 792 92 779 178 q 826 -61 804 6 q 883 -167 849 -128 q 862 -196 875 -183 q 833 -215 849 -208 q 800 -222 818 -222 m 449 332 l 649 332 q 651 444 649 371 q 657 607 653 517 q 664 786 661 697 l 660 786 q 544 528 603 643 q 449 332 486 413 z "},"Ȃ":{"ha":953,"x_min":50,"x_max":915,"o":"m 800 -222 q 737 -193 764 -222 q 691 -106 710 -164 q 663 38 672 -49 q 650 236 653 124 l 404 236 q 294 63 342 119 q 208 -12 246 6 q 136 -31 169 -31 q 69 -10 89 -31 q 50 38 50 10 q 52 56 50 49 q 56 71 54 64 q 123 81 92 71 q 185 120 154 92 q 253 202 217 149 q 337 342 290 256 q 444 555 383 429 q 586 853 506 681 l 579 867 q 520 883 558 874 q 442 892 482 892 q 297 834 344 892 q 249 686 249 776 q 258 613 249 649 q 290 547 268 578 q 263 538 278 542 q 231 533 247 533 q 169 553 194 533 q 130 608 143 574 q 117 688 117 643 q 152 816 117 754 q 257 918 188 878 q 426 958 326 958 q 499 952 453 958 q 600 938 546 946 q 703 923 654 929 q 786 917 753 917 q 781 808 785 878 q 773 649 776 738 q 769 463 769 560 q 774 273 769 368 q 792 92 779 178 q 826 -61 804 6 q 883 -167 849 -128 q 862 -196 875 -183 q 833 -215 849 -208 q 800 -222 818 -222 m 449 332 l 649 332 q 651 444 649 371 q 657 607 653 517 q 664 786 661 697 l 660 786 q 544 528 603 643 q 449 332 486 413 z "},"Ā":{"ha":953,"x_min":50,"x_max":910,"o":"m 800 -222 q 737 -193 764 -222 q 691 -106 710 -164 q 663 38 672 -49 q 650 236 653 124 l 404 236 q 294 63 342 119 q 208 -12 246 6 q 136 -31 169 -31 q 69 -10 89 -31 q 50 38 50 10 q 52 56 50 49 q 56 71 54 64 q 123 81 92 71 q 185 120 154 92 q 253 202 217 149 q 337 342 290 256 q 444 555 383 429 q 586 853 506 681 l 579 867 q 520 883 558 874 q 442 892 482 892 q 297 834 344 892 q 249 686 249 776 q 258 613 249 649 q 290 547 268 578 q 263 538 278 542 q 231 533 247 533 q 169 553 194 533 q 130 608 143 574 q 117 688 117 643 q 152 816 117 754 q 257 918 188 878 q 426 958 326 958 q 499 952 453 958 q 600 938 546 946 q 703 923 654 929 q 786 917 753 917 q 781 808 785 878 q 773 649 776 738 q 769 463 769 560 q 774 273 769 368 q 792 92 779 178 q 826 -61 804 6 q 883 -167 849 -128 q 862 -196 875 -183 q 833 -215 849 -208 q 800 -222 818 -222 m 449 332 l 649 332 q 651 444 649 371 q 657 607 653 517 q 664 786 661 697 l 660 786 q 544 528 603 643 q 449 332 486 413 z "},"Ą":{"ha":924,"x_min":67,"x_max":904,"o":"m 160 -31 q 89 -8 111 -31 q 67 43 67 14 q 71 71 67 57 q 144 83 111 71 q 208 128 176 96 q 273 221 239 161 q 349 374 307 281 q 447 601 392 468 q 574 917 501 735 l 753 917 q 769 508 760 671 q 790 247 778 346 q 819 98 803 149 q 856 26 835 47 q 825 -12 846 4 q 772 -29 804 -29 q 719 -12 740 -29 q 683 50 697 4 q 660 183 669 96 q 643 411 650 271 q 628 757 636 551 l 625 757 q 489 401 549 543 q 383 172 429 258 q 299 42 336 86 q 228 -16 261 -1 q 160 -31 194 -31 m 793 -358 q 682 -319 725 -358 q 639 -210 639 -281 q 670 -105 639 -150 q 745 -26 701 -60 q 824 31 789 7 l 843 6 q 759 -101 790 -56 q 728 -194 728 -146 q 806 -279 728 -279 q 850 -271 829 -279 q 882 -244 871 -262 q 898 -259 892 -250 q 904 -279 904 -268 q 872 -335 904 -312 q 793 -358 840 -358 m 349 236 l 385 332 l 703 332 l 708 236 l 349 236 m 217 533 q 151 551 181 533 q 105 606 122 569 q 88 696 88 642 q 121 819 88 758 q 221 919 154 879 q 385 958 288 958 q 494 948 429 958 q 628 927 560 938 q 749 917 696 917 l 621 838 l 549 858 l 540 868 q 480 883 517 875 q 406 892 443 892 q 312 865 350 892 q 255 797 274 839 q 236 707 236 756 q 249 624 236 665 q 283 550 261 583 q 250 538 267 542 q 217 533 233 533 z "},"Å":{"ha":953,"x_min":50,"x_max":883,"o":"m 800 -222 q 737 -193 764 -222 q 691 -106 710 -164 q 663 38 672 -49 q 650 236 653 124 l 404 236 q 294 63 342 119 q 208 -12 246 6 q 136 -31 169 -31 q 69 -10 89 -31 q 50 38 50 10 q 52 56 50 49 q 56 71 54 64 q 123 81 92 71 q 185 120 154 92 q 253 202 217 149 q 337 342 290 256 q 444 555 383 429 q 586 853 506 681 l 579 867 q 520 883 558 874 q 442 892 482 892 q 297 834 344 892 q 249 686 249 776 q 258 613 249 649 q 290 547 268 578 q 263 538 278 542 q 231 533 247 533 q 169 553 194 533 q 130 608 143 574 q 117 688 117 643 q 152 816 117 754 q 257 918 188 878 q 426 958 326 958 q 499 952 453 958 q 600 938 546 946 q 703 923 654 929 q 786 917 753 917 q 781 808 785 878 q 773 649 776 738 q 769 463 769 560 q 774 273 769 368 q 792 92 779 178 q 826 -61 804 6 q 883 -167 849 -128 q 862 -196 875 -183 q 833 -215 849 -208 q 800 -222 818 -222 m 449 332 l 649 332 q 651 444 649 371 q 657 607 653 517 q 664 786 661 697 l 660 786 q 544 528 603 643 q 449 332 486 413 z "},"Ǻ":{"ha":953,"x_min":50,"x_max":951,"o":"m 800 -222 q 737 -193 764 -222 q 691 -106 710 -164 q 663 38 672 -49 q 650 236 653 124 l 404 236 q 294 63 342 119 q 208 -12 246 6 q 136 -31 169 -31 q 69 -10 89 -31 q 50 38 50 10 q 52 56 50 49 q 56 71 54 64 q 123 81 92 71 q 185 120 154 92 q 253 202 217 149 q 337 342 290 256 q 444 555 383 429 q 586 853 506 681 l 579 867 q 520 883 558 874 q 442 892 482 892 q 297 834 344 892 q 249 686 249 776 q 258 613 249 649 q 290 547 268 578 q 263 538 278 542 q 231 533 247 533 q 169 553 194 533 q 130 608 143 574 q 117 688 117 643 q 152 816 117 754 q 257 918 188 878 q 426 958 326 958 q 499 952 453 958 q 600 938 546 946 q 703 923 654 929 q 786 917 753 917 q 781 808 785 878 q 773 649 776 738 q 769 463 769 560 q 774 273 769 368 q 792 92 779 178 q 826 -61 804 6 q 883 -167 849 -128 q 862 -196 875 -183 q 833 -215 849 -208 q 800 -222 818 -222 m 449 332 l 649 332 q 651 444 649 371 q 657 607 653 517 q 664 786 661 697 l 660 786 q 544 528 603 643 q 449 332 486 413 z "},"Ã":{"ha":953,"x_min":50,"x_max":908,"o":"m 800 -222 q 737 -193 764 -222 q 691 -106 710 -164 q 663 38 672 -49 q 650 236 653 124 l 404 236 q 294 63 342 119 q 208 -12 246 6 q 136 -31 169 -31 q 69 -10 89 -31 q 50 38 50 10 q 52 56 50 49 q 56 71 54 64 q 123 81 92 71 q 185 120 154 92 q 253 202 217 149 q 337 342 290 256 q 444 555 383 429 q 586 853 506 681 l 579 867 q 520 883 558 874 q 442 892 482 892 q 297 834 344 892 q 249 686 249 776 q 258 613 249 649 q 290 547 268 578 q 263 538 278 542 q 231 533 247 533 q 169 553 194 533 q 130 608 143 574 q 117 688 117 643 q 152 816 117 754 q 257 918 188 878 q 426 958 326 958 q 499 952 453 958 q 600 938 546 946 q 703 923 654 929 q 786 917 753 917 q 781 808 785 878 q 773 649 776 738 q 769 463 769 560 q 774 273 769 368 q 792 92 779 178 q 826 -61 804 6 q 883 -167 849 -128 q 862 -196 875 -183 q 833 -215 849 -208 q 800 -222 818 -222 m 449 332 l 649 332 q 651 444 649 371 q 657 607 653 517 q 664 786 661 697 l 660 786 q 544 528 603 643 q 449 332 486 413 z "},"Æ":{"ha":1160,"x_min":-114,"x_max":1163,"o":"m -29 -31 q -92 -12 -71 -31 q -114 33 -114 7 q -111 53 -114 44 q -104 71 -108 63 q -20 90 -64 71 q 72 151 24 110 q 173 256 119 192 q 287 408 226 319 q 415 610 347 496 q 561 864 483 724 l 554 872 q 490 885 532 879 q 407 892 447 892 q 307 865 347 892 q 247 797 267 839 q 228 707 228 754 q 241 625 228 665 q 281 550 254 585 q 251 538 267 542 q 218 533 235 533 q 153 553 181 533 q 110 609 125 572 q 94 696 94 646 q 127 819 94 760 q 225 919 160 879 q 386 958 290 958 q 454 953 411 958 q 553 942 497 949 q 676 931 610 936 q 817 926 743 926 q 937 930 883 926 q 1031 940 990 933 q 1101 954 1072 946 q 1146 974 1129 963 q 1158 948 1153 964 q 1163 917 1163 932 q 1151 867 1163 892 q 1111 828 1139 843 q 1036 813 1083 813 q 931 822 990 813 q 774 849 872 831 q 717 771 735 810 q 700 675 700 732 q 714 594 700 632 q 756 522 728 556 l 872 521 q 906 521 885 521 q 953 522 928 521 q 1001 526 979 524 q 1006 513 1004 521 q 1007 496 1007 504 q 983 447 1007 468 q 914 426 960 426 q 833 433 868 426 q 769 449 799 440 q 664 358 700 406 q 628 243 628 310 q 681 120 628 167 q 822 74 735 74 q 945 98 888 74 q 1039 156 1003 122 q 1056 138 1051 149 q 1061 115 1061 128 q 1041 62 1061 88 q 985 15 1021 36 q 902 -18 949 -6 q 803 -31 856 -31 q 633 1 706 -31 q 524 93 561 33 q 492 236 486 153 l 299 236 q 187 94 236 147 q 99 14 138 40 q 29 -22 60 -12 q -29 -31 -1 -31 m 363 332 l 511 332 q 568 423 532 378 q 667 497 604 468 q 607 568 626 526 q 588 668 588 610 q 590 695 588 679 q 596 729 592 711 l 592 729 q 470 510 531 614 q 363 332 410 406 z "},"Ǽ":{"ha":1160,"x_min":-114,"x_max":1163,"o":"m -29 -31 q -92 -12 -71 -31 q -114 33 -114 7 q -111 53 -114 44 q -104 71 -108 63 q -20 90 -64 71 q 72 151 24 110 q 173 256 119 192 q 287 408 226 319 q 415 610 347 496 q 561 864 483 724 l 554 872 q 490 885 532 879 q 407 892 447 892 q 307 865 347 892 q 247 797 267 839 q 228 707 228 754 q 241 625 228 665 q 281 550 254 585 q 251 538 267 542 q 218 533 235 533 q 153 553 181 533 q 110 609 125 572 q 94 696 94 646 q 127 819 94 760 q 225 919 160 879 q 386 958 290 958 q 454 953 411 958 q 553 942 497 949 q 676 931 610 936 q 817 926 743 926 q 937 930 883 926 q 1031 940 990 933 q 1101 954 1072 946 q 1146 974 1129 963 q 1158 948 1153 964 q 1163 917 1163 932 q 1151 867 1163 892 q 1111 828 1139 843 q 1036 813 1083 813 q 931 822 990 813 q 774 849 872 831 q 717 771 735 810 q 700 675 700 732 q 714 594 700 632 q 756 522 728 556 l 872 521 q 906 521 885 521 q 953 522 928 521 q 1001 526 979 524 q 1006 513 1004 521 q 1007 496 1007 504 q 983 447 1007 468 q 914 426 960 426 q 833 433 868 426 q 769 449 799 440 q 664 358 700 406 q 628 243 628 310 q 681 120 628 167 q 822 74 735 74 q 945 98 888 74 q 1039 156 1003 122 q 1056 138 1051 149 q 1061 115 1061 128 q 1041 62 1061 88 q 985 15 1021 36 q 902 -18 949 -6 q 803 -31 856 -31 q 633 1 706 -31 q 524 93 561 33 q 492 236 486 153 l 299 236 q 187 94 236 147 q 99 14 138 40 q 29 -22 60 -12 q -29 -31 -1 -31 m 363 332 l 511 332 q 568 423 532 378 q 667 497 604 468 q 607 568 626 526 q 588 668 588 610 q 590 695 588 679 q 596 729 592 711 l 592 729 q 470 510 531 614 q 363 332 410 406 z "},"B":{"ha":994,"x_min":68,"x_max":968,"o":"m 494 -31 q 390 -24 435 -31 q 312 -5 344 -17 q 258 18 279 7 q 284 58 272 36 q 307 110 296 81 q 325 178 318 139 l 424 685 q 460 776 435 746 q 538 806 485 806 q 592 791 574 806 q 615 757 611 776 q 567 703 579 739 q 549 635 556 668 l 524 513 l 599 514 q 736 542 685 517 q 810 612 788 568 q 833 711 833 656 q 769 826 833 789 q 579 863 706 863 q 447 848 513 863 q 326 801 381 833 q 240 713 272 768 q 207 578 207 658 q 214 510 206 540 q 244 443 222 481 q 215 428 232 433 q 178 422 197 422 q 122 440 147 422 q 83 491 97 457 q 68 572 68 525 q 132 756 68 671 q 316 892 196 840 q 606 944 436 944 q 761 929 693 944 q 876 885 829 914 q 945 813 922 856 q 968 717 968 771 q 946 620 968 665 q 881 539 924 575 q 771 481 838 503 q 860 439 822 467 q 917 369 897 411 q 933 274 936 328 q 888 133 929 190 q 783 39 847 75 q 642 -14 718 3 q 494 -31 567 -31 m 519 61 q 663 90 603 61 q 757 169 724 118 q 790 288 790 221 q 723 399 790 369 q 506 429 656 428 l 442 110 q 433 85 439 96 q 419 64 428 74 q 466 62 442 63 q 519 61 490 61 z "},"C":{"ha":665,"x_min":40,"x_max":686,"o":"m 311 -29 q 110 54 179 -29 q 40 300 40 138 q 58 471 40 382 q 111 644 75 560 q 201 796 147 728 q 326 904 254 864 q 490 944 399 944 q 594 920 550 944 q 662 852 638 896 q 686 750 686 808 q 663 649 686 692 q 605 582 640 606 q 532 558 569 558 q 469 575 492 558 q 446 619 446 592 q 449 640 446 636 q 447 640 447 640 q 447 640 447 640 q 520 667 496 643 q 553 717 544 690 q 561 756 561 744 q 533 824 561 799 q 457 850 506 850 q 351 812 397 850 q 273 711 306 774 q 219 574 240 649 q 188 427 197 500 q 178 297 178 354 q 190 190 178 240 q 233 110 201 140 q 326 79 265 79 q 414 101 376 79 q 476 158 451 124 q 515 230 501 192 q 532 300 529 268 q 580 269 560 299 q 600 199 600 239 q 580 124 600 164 q 522 49 560 85 q 430 -8 483 14 q 311 -29 376 -29 z "},"Ć":{"ha":665,"x_min":40,"x_max":718,"o":"m 311 -29 q 110 54 179 -29 q 40 300 40 138 q 58 471 40 382 q 111 644 75 560 q 201 796 147 728 q 326 904 254 864 q 490 944 399 944 q 594 920 550 944 q 662 852 638 896 q 686 750 686 808 q 663 649 686 692 q 605 582 640 606 q 532 558 569 558 q 469 575 492 558 q 446 619 446 592 q 449 640 446 636 q 447 640 447 640 q 447 640 447 640 q 520 667 496 643 q 553 717 544 690 q 561 756 561 744 q 533 824 561 799 q 457 850 506 850 q 351 812 397 850 q 273 711 306 774 q 219 574 240 649 q 188 427 197 500 q 178 297 178 354 q 190 190 178 240 q 233 110 201 140 q 326 79 265 79 q 414 101 376 79 q 476 158 451 124 q 515 230 501 192 q 532 300 529 268 q 580 269 560 299 q 600 199 600 239 q 580 124 600 164 q 522 49 560 85 q 430 -8 483 14 q 311 -29 376 -29 z "},"Č":{"ha":682,"x_min":40,"x_max":701,"o":"m 311 -29 q 110 54 179 -29 q 40 300 40 138 q 58 471 40 382 q 111 644 75 560 q 201 796 147 728 q 326 904 254 864 q 490 944 399 944 q 594 920 550 944 q 662 852 638 896 q 686 750 686 808 q 663 649 686 692 q 605 582 640 606 q 532 558 569 558 q 469 575 492 558 q 446 619 446 592 q 449 640 446 636 q 447 640 447 640 q 447 640 447 640 q 520 667 496 643 q 553 717 544 690 q 561 756 561 744 q 533 824 561 799 q 457 850 506 850 q 351 812 397 850 q 273 711 306 774 q 219 574 240 649 q 188 427 197 500 q 178 297 178 354 q 190 190 178 240 q 233 110 201 140 q 326 79 265 79 q 414 101 376 79 q 476 158 451 124 q 515 230 501 192 q 532 300 529 268 q 580 269 560 299 q 600 199 600 239 q 580 124 600 164 q 522 49 560 85 q 430 -8 483 14 q 311 -29 376 -29 z "},"Ç":{"ha":665,"x_min":40,"x_max":686,"o":"m 311 -29 q 110 54 179 -29 q 40 300 40 138 q 58 471 40 382 q 111 644 75 560 q 201 796 147 728 q 326 904 254 864 q 490 944 399 944 q 594 920 550 944 q 662 852 638 896 q 686 750 686 808 q 663 649 686 692 q 605 582 640 606 q 532 558 569 558 q 469 575 492 558 q 446 619 446 592 q 449 640 446 636 q 447 640 447 640 q 447 640 447 640 q 520 667 496 643 q 553 717 544 690 q 561 756 561 744 q 533 824 561 799 q 457 850 506 850 q 351 812 397 850 q 273 711 306 774 q 219 574 240 649 q 188 427 197 500 q 178 297 178 354 q 190 190 178 240 q 233 110 201 140 q 326 79 265 79 q 414 101 376 79 q 476 158 451 124 q 515 230 501 192 q 532 300 529 268 q 580 269 560 299 q 600 199 600 239 q 580 124 600 164 q 522 49 560 85 q 430 -8 483 14 q 311 -29 376 -29 z "},"Ĉ":{"ha":665,"x_min":40,"x_max":686,"o":"m 311 -29 q 110 54 179 -29 q 40 300 40 138 q 58 471 40 382 q 111 644 75 560 q 201 796 147 728 q 326 904 254 864 q 490 944 399 944 q 594 920 550 944 q 662 852 638 896 q 686 750 686 808 q 663 649 686 692 q 605 582 640 606 q 532 558 569 558 q 469 575 492 558 q 446 619 446 592 q 449 640 446 636 q 447 640 447 640 q 447 640 447 640 q 520 667 496 643 q 553 717 544 690 q 561 756 561 744 q 533 824 561 799 q 457 850 506 850 q 351 812 397 850 q 273 711 306 774 q 219 574 240 649 q 188 427 197 500 q 178 297 178 354 q 190 190 178 240 q 233 110 201 140 q 326 79 265 79 q 414 101 376 79 q 476 158 451 124 q 515 230 501 192 q 532 300 529 268 q 580 269 560 299 q 600 199 600 239 q 580 124 600 164 q 522 49 560 85 q 430 -8 483 14 q 311 -29 376 -29 z "},"Ċ":{"ha":665,"x_min":40,"x_max":686,"o":"m 311 -29 q 110 54 179 -29 q 40 300 40 138 q 58 471 40 382 q 111 644 75 560 q 201 796 147 728 q 326 904 254 864 q 490 944 399 944 q 594 920 550 944 q 662 852 638 896 q 686 750 686 808 q 663 649 686 692 q 605 582 640 606 q 532 558 569 558 q 469 575 492 558 q 446 619 446 592 q 449 640 446 636 q 447 640 447 640 q 447 640 447 640 q 520 667 496 643 q 553 717 544 690 q 561 756 561 744 q 533 824 561 799 q 457 850 506 850 q 351 812 397 850 q 273 711 306 774 q 219 574 240 649 q 188 427 197 500 q 178 297 178 354 q 190 190 178 240 q 233 110 201 140 q 326 79 265 79 q 414 101 376 79 q 476 158 451 124 q 515 230 501 192 q 532 300 529 268 q 580 269 560 299 q 600 199 600 239 q 580 124 600 164 q 522 49 560 85 q 430 -8 483 14 q 311 -29 376 -29 z "},"D":{"ha":1043,"x_min":74,"x_max":1006,"o":"m 461 -31 q 369 -26 407 -31 q 303 -12 331 -21 q 253 11 275 -3 q 282 54 269 32 q 304 104 294 76 q 321 167 314 132 l 426 704 q 454 793 438 757 q 490 851 471 829 l 489 853 q 456 847 472 851 q 425 839 440 843 q 321 790 369 822 q 243 707 272 757 q 214 586 214 657 q 224 515 214 546 q 257 443 233 483 q 227 422 243 429 q 188 415 211 415 q 124 437 149 415 q 86 496 99 458 q 74 579 74 533 q 108 714 74 649 q 209 831 143 779 q 369 913 275 882 q 585 943 464 943 q 817 902 724 943 q 958 781 910 861 q 1006 582 1006 701 q 968 354 1006 464 q 860 158 931 244 q 688 20 789 71 q 461 -31 588 -31 m 450 64 q 633 106 554 64 q 767 220 713 147 q 848 388 821 293 q 875 589 875 483 q 844 728 875 671 q 754 819 814 786 q 607 857 694 851 q 585 833 593 847 q 572 797 576 819 l 432 103 q 424 80 429 89 q 413 65 419 71 q 431 64 421 64 q 450 64 440 64 z "},"Ǆ":{"ha":1651,"x_min":74,"x_max":1707,"o":"m 461 -31 q 369 -26 407 -31 q 303 -12 331 -21 q 253 11 275 -3 q 282 54 269 32 q 304 104 294 76 q 321 167 314 132 l 426 704 q 454 793 438 757 q 490 851 471 829 l 489 853 q 456 847 472 851 q 425 839 440 843 q 321 790 369 822 q 243 707 272 757 q 214 586 214 657 q 224 515 214 546 q 257 443 233 483 q 227 422 243 429 q 188 415 211 415 q 124 437 149 415 q 86 496 99 458 q 74 579 74 533 q 108 714 74 649 q 209 831 143 779 q 369 913 275 882 q 585 943 464 943 q 817 902 724 943 q 958 781 910 861 q 1006 582 1006 701 q 968 354 1006 464 q 860 158 931 244 q 688 20 789 71 q 461 -31 588 -31 m 450 64 q 633 106 554 64 q 767 220 713 147 q 848 388 821 293 q 875 589 875 483 q 844 728 875 671 q 754 819 814 786 q 607 857 694 851 q 585 833 593 847 q 572 797 576 819 l 432 103 q 424 80 429 89 q 413 65 419 71 q 431 64 421 64 q 450 64 440 64 m 1457 -31 q 1376 -24 1418 -31 q 1291 -8 1333 -17 q 1208 8 1249 1 q 1131 15 1168 15 q 1074 11 1100 15 q 1028 0 1047 7 q 1006 28 1015 11 q 997 64 997 46 q 1000 87 997 75 q 1006 103 1003 99 l 1524 794 q 1432 810 1493 801 q 1297 819 1371 819 q 1208 813 1243 819 q 1146 789 1174 807 q 1137 815 1140 800 q 1133 847 1133 831 q 1154 904 1133 885 q 1208 931 1175 924 q 1278 938 1240 938 q 1359 932 1319 938 q 1438 919 1399 926 q 1513 906 1476 911 q 1586 900 1550 900 q 1640 905 1618 900 q 1678 917 1663 910 q 1698 889 1689 907 q 1707 851 1707 871 q 1707 835 1707 844 q 1707 822 1707 826 l 1190 121 q 1278 107 1231 113 q 1376 98 1326 101 q 1468 94 1425 94 q 1528 97 1500 94 q 1575 104 1557 99 q 1585 53 1585 76 q 1556 -6 1585 18 q 1457 -31 1526 -31 m 1475 1032 l 1293 1183 l 1346 1251 l 1486 1168 l 1660 1251 l 1699 1182 l 1476 1032 l 1475 1032 z "},"Ð":{"ha":1063,"x_min":67,"x_max":1014,"o":"m 458 -31 q 378 -26 414 -31 q 314 -11 343 -22 q 261 19 285 0 q 289 61 276 40 q 310 107 301 82 q 326 167 319 132 l 432 704 q 460 792 443 756 q 497 851 476 828 l 496 853 q 476 850 490 853 q 331 798 392 839 q 237 699 269 757 q 204 578 204 642 q 235 461 204 517 q 211 441 225 449 q 178 433 197 433 q 116 455 140 433 q 79 511 92 476 q 67 585 67 546 q 130 759 67 678 q 313 892 193 840 q 601 943 432 943 q 835 902 744 943 q 970 783 926 861 q 1014 594 1014 706 q 975 350 1014 464 q 864 151 936 236 q 689 17 792 65 q 458 -31 586 -31 m 310 410 q 308 426 308 417 q 308 442 308 436 q 324 488 308 472 q 371 503 340 503 l 725 503 q 727 487 726 496 q 728 471 728 478 q 712 426 728 443 q 656 410 696 410 l 310 410 m 464 64 q 642 104 567 64 q 766 216 717 144 q 839 383 815 288 q 863 589 863 479 q 833 738 863 681 q 749 823 804 794 q 615 857 694 851 q 596 835 604 850 q 583 797 588 821 l 443 103 q 436 82 442 90 q 424 67 431 74 q 443 65 433 65 q 464 64 453 64 z "},"Ď":{"ha":1043,"x_min":74,"x_max":1006,"o":"m 461 -31 q 369 -26 407 -31 q 303 -12 331 -21 q 253 11 275 -3 q 282 54 269 32 q 304 104 294 76 q 321 167 314 132 l 426 704 q 454 793 438 757 q 490 851 471 829 l 489 853 q 456 847 472 851 q 425 839 440 843 q 321 790 369 822 q 243 707 272 757 q 214 586 214 657 q 224 515 214 546 q 257 443 233 483 q 227 422 243 429 q 188 415 211 415 q 124 437 149 415 q 86 496 99 458 q 74 579 74 533 q 108 714 74 649 q 209 831 143 779 q 369 913 275 882 q 585 943 464 943 q 817 902 724 943 q 958 781 910 861 q 1006 582 1006 701 q 968 354 1006 464 q 860 158 931 244 q 688 20 789 71 q 461 -31 588 -31 m 450 64 q 633 106 554 64 q 767 220 713 147 q 848 388 821 293 q 875 589 875 483 q 844 728 875 671 q 754 819 814 786 q 607 857 694 851 q 585 833 593 847 q 572 797 576 819 l 432 103 q 424 80 429 89 q 413 65 419 71 q 431 64 421 64 q 450 64 440 64 z "},"Đ":{"ha":1063,"x_min":67,"x_max":1014,"o":"m 458 -31 q 378 -26 414 -31 q 314 -11 343 -22 q 261 19 285 0 q 289 61 276 40 q 310 107 301 82 q 326 167 319 132 l 432 704 q 460 792 443 756 q 497 851 476 828 l 496 853 q 476 850 490 853 q 331 798 392 839 q 237 699 269 757 q 204 578 204 642 q 235 461 204 517 q 211 441 225 449 q 178 433 197 433 q 116 455 140 433 q 79 511 92 476 q 67 585 67 546 q 130 759 67 678 q 313 892 193 840 q 601 943 432 943 q 835 902 744 943 q 970 783 926 861 q 1014 594 1014 706 q 975 350 1014 464 q 864 151 936 236 q 689 17 792 65 q 458 -31 586 -31 m 310 410 q 308 426 308 417 q 308 442 308 436 q 324 488 308 472 q 371 503 340 503 l 725 503 q 727 487 726 496 q 728 471 728 478 q 712 426 728 443 q 656 410 696 410 l 310 410 m 464 64 q 642 104 567 64 q 766 216 717 144 q 839 383 815 288 q 863 589 863 479 q 833 738 863 681 q 749 823 804 794 q 615 857 694 851 q 596 835 604 850 q 583 797 588 821 l 443 103 q 436 82 442 90 q 424 67 431 74 q 443 65 433 65 q 464 64 453 64 z "},"ǅ":{"ha":1615,"x_min":74,"x_max":1661,"o":"m 461 -31 q 369 -26 407 -31 q 303 -12 331 -21 q 253 11 275 -3 q 282 54 269 32 q 304 104 294 76 q 321 167 314 132 l 426 704 q 454 793 438 757 q 490 851 471 829 l 489 853 q 456 847 472 851 q 425 839 440 843 q 321 790 369 822 q 243 707 272 757 q 214 586 214 657 q 224 515 214 546 q 257 443 233 483 q 227 422 243 429 q 188 415 211 415 q 124 437 149 415 q 86 496 99 458 q 74 579 74 533 q 108 714 74 649 q 209 831 143 779 q 369 913 275 882 q 585 943 464 943 q 817 902 724 943 q 958 781 910 861 q 1006 582 1006 701 q 968 354 1006 464 q 860 158 931 244 q 688 20 789 71 q 461 -31 588 -31 m 450 64 q 633 106 554 64 q 767 220 713 147 q 848 388 821 293 q 875 589 875 483 q 844 728 875 671 q 754 819 814 786 q 607 857 694 851 q 585 833 593 847 q 572 797 576 819 l 432 103 q 424 80 429 89 q 413 65 419 71 q 431 64 421 64 q 450 64 440 64 z "},"E":{"ha":996,"x_min":99,"x_max":1042,"o":"m 639 -31 q 516 -12 571 -31 q 424 38 461 6 q 366 116 386 71 q 346 215 346 161 q 369 323 346 274 q 438 415 392 372 q 551 490 483 457 q 486 560 508 515 q 465 665 464 604 q 492 756 467 711 q 559 835 518 800 q 644 882 600 869 l 724 871 q 620 763 647 819 q 592 660 593 707 q 601 585 590 619 q 633 522 611 551 q 663 522 642 522 q 708 522 683 522 q 749 521 732 521 q 806 522 767 521 q 878 526 844 522 q 882 515 881 521 q 883 500 883 508 q 858 448 883 469 q 783 426 832 426 q 717 431 749 426 q 638 449 685 436 q 526 351 563 404 q 489 236 489 299 q 544 113 489 151 q 672 74 599 74 q 792 99 733 74 q 893 161 851 124 q 907 143 903 154 q 911 119 911 132 q 890 64 911 90 q 831 16 868 38 q 744 -18 793 -6 q 639 -31 694 -31 m 222 551 q 157 570 185 551 q 114 624 129 589 q 99 706 99 658 q 117 804 99 756 q 173 892 135 853 q 270 953 211 931 q 410 976 329 976 q 558 965 485 976 q 703 942 632 954 q 843 931 775 931 q 940 938 897 931 q 1022 979 983 944 q 1036 953 1031 968 q 1040 922 1042 938 q 1026 871 1040 896 q 982 829 1013 846 q 901 813 951 813 q 828 819 869 813 q 737 840 788 826 q 624 875 686 854 l 622 879 q 535 906 579 894 q 447 917 490 917 q 291 863 346 917 q 236 710 236 808 q 247 633 236 671 q 278 564 258 596 q 254 555 267 558 q 222 551 242 551 z "},"É":{"ha":996,"x_min":99,"x_max":1042,"o":"m 639 -31 q 516 -12 571 -31 q 424 38 461 6 q 366 116 386 71 q 346 215 346 161 q 369 323 346 274 q 438 415 392 372 q 551 490 483 457 q 486 560 508 515 q 465 665 464 604 q 492 756 467 711 q 559 835 518 800 q 644 882 600 869 l 724 871 q 620 763 647 819 q 592 660 593 707 q 601 585 590 619 q 633 522 611 551 q 663 522 642 522 q 708 522 683 522 q 749 521 732 521 q 806 522 767 521 q 878 526 844 522 q 882 515 881 521 q 883 500 883 508 q 858 448 883 469 q 783 426 832 426 q 717 431 749 426 q 638 449 685 436 q 526 351 563 404 q 489 236 489 299 q 544 113 489 151 q 672 74 599 74 q 792 99 733 74 q 893 161 851 124 q 907 143 903 154 q 911 119 911 132 q 890 64 911 90 q 831 16 868 38 q 744 -18 793 -6 q 639 -31 694 -31 m 222 551 q 157 570 185 551 q 114 624 129 589 q 99 706 99 658 q 117 804 99 756 q 173 892 135 853 q 270 953 211 931 q 410 976 329 976 q 558 965 485 976 q 703 942 632 954 q 843 931 775 931 q 940 938 897 931 q 1022 979 983 944 q 1036 953 1031 968 q 1040 922 1042 938 q 1026 871 1040 896 q 982 829 1013 846 q 901 813 951 813 q 828 819 869 813 q 737 840 788 826 q 624 875 686 854 l 622 879 q 535 906 579 894 q 447 917 490 917 q 291 863 346 917 q 236 710 236 808 q 247 633 236 671 q 278 564 258 596 q 254 555 267 558 q 222 551 242 551 z "},"Ĕ":{"ha":996,"x_min":99,"x_max":1042,"o":"m 639 -31 q 516 -12 571 -31 q 424 38 461 6 q 366 116 386 71 q 346 215 346 161 q 369 323 346 274 q 438 415 392 372 q 551 490 483 457 q 486 560 508 515 q 465 665 464 604 q 492 756 467 711 q 559 835 518 800 q 644 882 600 869 l 724 871 q 620 763 647 819 q 592 660 593 707 q 601 585 590 619 q 633 522 611 551 q 663 522 642 522 q 708 522 683 522 q 749 521 732 521 q 806 522 767 521 q 878 526 844 522 q 882 515 881 521 q 883 500 883 508 q 858 448 883 469 q 783 426 832 426 q 717 431 749 426 q 638 449 685 436 q 526 351 563 404 q 489 236 489 299 q 544 113 489 151 q 672 74 599 74 q 792 99 733 74 q 893 161 851 124 q 907 143 903 154 q 911 119 911 132 q 890 64 911 90 q 831 16 868 38 q 744 -18 793 -6 q 639 -31 694 -31 m 222 551 q 157 570 185 551 q 114 624 129 589 q 99 706 99 658 q 117 804 99 756 q 173 892 135 853 q 270 953 211 931 q 410 976 329 976 q 558 965 485 976 q 703 942 632 954 q 843 931 775 931 q 940 938 897 931 q 1022 979 983 944 q 1036 953 1031 968 q 1040 922 1042 938 q 1026 871 1040 896 q 982 829 1013 846 q 901 813 951 813 q 828 819 869 813 q 737 840 788 826 q 624 875 686 854 l 622 879 q 535 906 579 894 q 447 917 490 917 q 291 863 346 917 q 236 710 236 808 q 247 633 236 671 q 278 564 258 596 q 254 555 267 558 q 222 551 242 551 z "},"Ě":{"ha":996,"x_min":99,"x_max":1042,"o":"m 639 -31 q 516 -12 571 -31 q 424 38 461 6 q 366 116 386 71 q 346 215 346 161 q 369 323 346 274 q 438 415 392 372 q 551 490 483 457 q 486 560 508 515 q 465 665 464 604 q 492 756 467 711 q 559 835 518 800 q 644 882 600 869 l 724 871 q 620 763 647 819 q 592 660 593 707 q 601 585 590 619 q 633 522 611 551 q 663 522 642 522 q 708 522 683 522 q 749 521 732 521 q 806 522 767 521 q 878 526 844 522 q 882 515 881 521 q 883 500 883 508 q 858 448 883 469 q 783 426 832 426 q 717 431 749 426 q 638 449 685 436 q 526 351 563 404 q 489 236 489 299 q 544 113 489 151 q 672 74 599 74 q 792 99 733 74 q 893 161 851 124 q 907 143 903 154 q 911 119 911 132 q 890 64 911 90 q 831 16 868 38 q 744 -18 793 -6 q 639 -31 694 -31 m 222 551 q 157 570 185 551 q 114 624 129 589 q 99 706 99 658 q 117 804 99 756 q 173 892 135 853 q 270 953 211 931 q 410 976 329 976 q 558 965 485 976 q 703 942 632 954 q 843 931 775 931 q 940 938 897 931 q 1022 979 983 944 q 1036 953 1031 968 q 1040 922 1042 938 q 1026 871 1040 896 q 982 829 1013 846 q 901 813 951 813 q 828 819 869 813 q 737 840 788 826 q 624 875 686 854 l 622 879 q 535 906 579 894 q 447 917 490 917 q 291 863 346 917 q 236 710 236 808 q 247 633 236 671 q 278 564 258 596 q 254 555 267 558 q 222 551 242 551 z "},"Ê":{"ha":996,"x_min":99,"x_max":1042,"o":"m 639 -31 q 516 -12 571 -31 q 424 38 461 6 q 366 116 386 71 q 346 215 346 161 q 369 323 346 274 q 438 415 392 372 q 551 490 483 457 q 486 560 508 515 q 465 665 464 604 q 492 756 467 711 q 559 835 518 800 q 644 882 600 869 l 724 871 q 620 763 647 819 q 592 660 593 707 q 601 585 590 619 q 633 522 611 551 q 663 522 642 522 q 708 522 683 522 q 749 521 732 521 q 806 522 767 521 q 878 526 844 522 q 882 515 881 521 q 883 500 883 508 q 858 448 883 469 q 783 426 832 426 q 717 431 749 426 q 638 449 685 436 q 526 351 563 404 q 489 236 489 299 q 544 113 489 151 q 672 74 599 74 q 792 99 733 74 q 893 161 851 124 q 907 143 903 154 q 911 119 911 132 q 890 64 911 90 q 831 16 868 38 q 744 -18 793 -6 q 639 -31 694 -31 m 222 551 q 157 570 185 551 q 114 624 129 589 q 99 706 99 658 q 117 804 99 756 q 173 892 135 853 q 270 953 211 931 q 410 976 329 976 q 558 965 485 976 q 703 942 632 954 q 843 931 775 931 q 940 938 897 931 q 1022 979 983 944 q 1036 953 1031 968 q 1040 922 1042 938 q 1026 871 1040 896 q 982 829 1013 846 q 901 813 951 813 q 828 819 869 813 q 737 840 788 826 q 624 875 686 854 l 622 879 q 535 906 579 894 q 447 917 490 917 q 291 863 346 917 q 236 710 236 808 q 247 633 236 671 q 278 564 258 596 q 254 555 267 558 q 222 551 242 551 z "},"Ế":{"ha":996,"x_min":99,"x_max":1042,"o":"m 639 -31 q 516 -12 571 -31 q 424 38 461 6 q 366 116 386 71 q 346 215 346 161 q 369 323 346 274 q 438 415 392 372 q 551 490 483 457 q 486 560 508 515 q 465 665 464 604 q 492 756 467 711 q 559 835 518 800 q 644 882 600 869 l 724 871 q 620 763 647 819 q 592 660 593 707 q 601 585 590 619 q 633 522 611 551 q 663 522 642 522 q 708 522 683 522 q 749 521 732 521 q 806 522 767 521 q 878 526 844 522 q 882 515 881 521 q 883 500 883 508 q 858 448 883 469 q 783 426 832 426 q 717 431 749 426 q 638 449 685 436 q 526 351 563 404 q 489 236 489 299 q 544 113 489 151 q 672 74 599 74 q 792 99 733 74 q 893 161 851 124 q 907 143 903 154 q 911 119 911 132 q 890 64 911 90 q 831 16 868 38 q 744 -18 793 -6 q 639 -31 694 -31 m 222 551 q 157 570 185 551 q 114 624 129 589 q 99 706 99 658 q 117 804 99 756 q 173 892 135 853 q 270 953 211 931 q 410 976 329 976 q 558 965 485 976 q 703 942 632 954 q 843 931 775 931 q 940 938 897 931 q 1022 979 983 944 q 1036 953 1031 968 q 1040 922 1042 938 q 1026 871 1040 896 q 982 829 1013 846 q 901 813 951 813 q 828 819 869 813 q 737 840 788 826 q 624 875 686 854 l 622 879 q 535 906 579 894 q 447 917 490 917 q 291 863 346 917 q 236 710 236 808 q 247 633 236 671 q 278 564 258 596 q 254 555 267 558 q 222 551 242 551 z "},"Ệ":{"ha":996,"x_min":99,"x_max":1042,"o":"m 639 -31 q 516 -12 571 -31 q 424 38 461 6 q 366 116 386 71 q 346 215 346 161 q 369 323 346 274 q 438 415 392 372 q 551 490 483 457 q 486 560 508 515 q 465 665 464 604 q 492 756 467 711 q 559 835 518 800 q 644 882 600 869 l 724 871 q 620 763 647 819 q 592 660 593 707 q 601 585 590 619 q 633 522 611 551 q 663 522 642 522 q 708 522 683 522 q 749 521 732 521 q 806 522 767 521 q 878 526 844 522 q 882 515 881 521 q 883 500 883 508 q 858 448 883 469 q 783 426 832 426 q 717 431 749 426 q 638 449 685 436 q 526 351 563 404 q 489 236 489 299 q 544 113 489 151 q 672 74 599 74 q 792 99 733 74 q 893 161 851 124 q 907 143 903 154 q 911 119 911 132 q 890 64 911 90 q 831 16 868 38 q 744 -18 793 -6 q 639 -31 694 -31 m 222 551 q 157 570 185 551 q 114 624 129 589 q 99 706 99 658 q 117 804 99 756 q 173 892 135 853 q 270 953 211 931 q 410 976 329 976 q 558 965 485 976 q 703 942 632 954 q 843 931 775 931 q 940 938 897 931 q 1022 979 983 944 q 1036 953 1031 968 q 1040 922 1042 938 q 1026 871 1040 896 q 982 829 1013 846 q 901 813 951 813 q 828 819 869 813 q 737 840 788 826 q 624 875 686 854 l 622 879 q 535 906 579 894 q 447 917 490 917 q 291 863 346 917 q 236 710 236 808 q 247 633 236 671 q 278 564 258 596 q 254 555 267 558 q 222 551 242 551 z "},"Ề":{"ha":996,"x_min":99,"x_max":1042,"o":"m 639 -31 q 516 -12 571 -31 q 424 38 461 6 q 366 116 386 71 q 346 215 346 161 q 369 323 346 274 q 438 415 392 372 q 551 490 483 457 q 486 560 508 515 q 465 665 464 604 q 492 756 467 711 q 559 835 518 800 q 644 882 600 869 l 724 871 q 620 763 647 819 q 592 660 593 707 q 601 585 590 619 q 633 522 611 551 q 663 522 642 522 q 708 522 683 522 q 749 521 732 521 q 806 522 767 521 q 878 526 844 522 q 882 515 881 521 q 883 500 883 508 q 858 448 883 469 q 783 426 832 426 q 717 431 749 426 q 638 449 685 436 q 526 351 563 404 q 489 236 489 299 q 544 113 489 151 q 672 74 599 74 q 792 99 733 74 q 893 161 851 124 q 907 143 903 154 q 911 119 911 132 q 890 64 911 90 q 831 16 868 38 q 744 -18 793 -6 q 639 -31 694 -31 m 222 551 q 157 570 185 551 q 114 624 129 589 q 99 706 99 658 q 117 804 99 756 q 173 892 135 853 q 270 953 211 931 q 410 976 329 976 q 558 965 485 976 q 703 942 632 954 q 843 931 775 931 q 940 938 897 931 q 1022 979 983 944 q 1036 953 1031 968 q 1040 922 1042 938 q 1026 871 1040 896 q 982 829 1013 846 q 901 813 951 813 q 828 819 869 813 q 737 840 788 826 q 624 875 686 854 l 622 879 q 535 906 579 894 q 447 917 490 917 q 291 863 346 917 q 236 710 236 808 q 247 633 236 671 q 278 564 258 596 q 254 555 267 558 q 222 551 242 551 z "},"Ể":{"ha":996,"x_min":99,"x_max":1042,"o":"m 639 -31 q 516 -12 571 -31 q 424 38 461 6 q 366 116 386 71 q 346 215 346 161 q 369 323 346 274 q 438 415 392 372 q 551 490 483 457 q 486 560 508 515 q 465 665 464 604 q 492 756 467 711 q 559 835 518 800 q 644 882 600 869 l 724 871 q 620 763 647 819 q 592 660 593 707 q 601 585 590 619 q 633 522 611 551 q 663 522 642 522 q 708 522 683 522 q 749 521 732 521 q 806 522 767 521 q 878 526 844 522 q 882 515 881 521 q 883 500 883 508 q 858 448 883 469 q 783 426 832 426 q 717 431 749 426 q 638 449 685 436 q 526 351 563 404 q 489 236 489 299 q 544 113 489 151 q 672 74 599 74 q 792 99 733 74 q 893 161 851 124 q 907 143 903 154 q 911 119 911 132 q 890 64 911 90 q 831 16 868 38 q 744 -18 793 -6 q 639 -31 694 -31 m 222 551 q 157 570 185 551 q 114 624 129 589 q 99 706 99 658 q 117 804 99 756 q 173 892 135 853 q 270 953 211 931 q 410 976 329 976 q 558 965 485 976 q 703 942 632 954 q 843 931 775 931 q 940 938 897 931 q 1022 979 983 944 q 1036 953 1031 968 q 1040 922 1042 938 q 1026 871 1040 896 q 982 829 1013 846 q 901 813 951 813 q 828 819 869 813 q 737 840 788 826 q 624 875 686 854 l 622 879 q 535 906 579 894 q 447 917 490 917 q 291 863 346 917 q 236 710 236 808 q 247 633 236 671 q 278 564 258 596 q 254 555 267 558 q 222 551 242 551 z "},"Ễ":{"ha":996,"x_min":99,"x_max":1042,"o":"m 639 -31 q 516 -12 571 -31 q 424 38 461 6 q 366 116 386 71 q 346 215 346 161 q 369 323 346 274 q 438 415 392 372 q 551 490 483 457 q 486 560 508 515 q 465 665 464 604 q 492 756 467 711 q 559 835 518 800 q 644 882 600 869 l 724 871 q 620 763 647 819 q 592 660 593 707 q 601 585 590 619 q 633 522 611 551 q 663 522 642 522 q 708 522 683 522 q 749 521 732 521 q 806 522 767 521 q 878 526 844 522 q 882 515 881 521 q 883 500 883 508 q 858 448 883 469 q 783 426 832 426 q 717 431 749 426 q 638 449 685 436 q 526 351 563 404 q 489 236 489 299 q 544 113 489 151 q 672 74 599 74 q 792 99 733 74 q 893 161 851 124 q 907 143 903 154 q 911 119 911 132 q 890 64 911 90 q 831 16 868 38 q 744 -18 793 -6 q 639 -31 694 -31 m 222 551 q 157 570 185 551 q 114 624 129 589 q 99 706 99 658 q 117 804 99 756 q 173 892 135 853 q 270 953 211 931 q 410 976 329 976 q 558 965 485 976 q 703 942 632 954 q 843 931 775 931 q 940 938 897 931 q 1022 979 983 944 q 1036 953 1031 968 q 1040 922 1042 938 q 1026 871 1040 896 q 982 829 1013 846 q 901 813 951 813 q 828 819 869 813 q 737 840 788 826 q 624 875 686 854 l 622 879 q 535 906 579 894 q 447 917 490 917 q 291 863 346 917 q 236 710 236 808 q 247 633 236 671 q 278 564 258 596 q 254 555 267 558 q 222 551 242 551 z "},"Ȅ":{"ha":996,"x_min":99,"x_max":1042,"o":"m 639 -31 q 516 -12 571 -31 q 424 38 461 6 q 366 116 386 71 q 346 215 346 161 q 369 323 346 274 q 438 415 392 372 q 551 490 483 457 q 486 560 508 515 q 465 665 464 604 q 492 756 467 711 q 559 835 518 800 q 644 882 600 869 l 724 871 q 620 763 647 819 q 592 660 593 707 q 601 585 590 619 q 633 522 611 551 q 663 522 642 522 q 708 522 683 522 q 749 521 732 521 q 806 522 767 521 q 878 526 844 522 q 882 515 881 521 q 883 500 883 508 q 858 448 883 469 q 783 426 832 426 q 717 431 749 426 q 638 449 685 436 q 526 351 563 404 q 489 236 489 299 q 544 113 489 151 q 672 74 599 74 q 792 99 733 74 q 893 161 851 124 q 907 143 903 154 q 911 119 911 132 q 890 64 911 90 q 831 16 868 38 q 744 -18 793 -6 q 639 -31 694 -31 m 222 551 q 157 570 185 551 q 114 624 129 589 q 99 706 99 658 q 117 804 99 756 q 173 892 135 853 q 270 953 211 931 q 410 976 329 976 q 558 965 485 976 q 703 942 632 954 q 843 931 775 931 q 940 938 897 931 q 1022 979 983 944 q 1036 953 1031 968 q 1040 922 1042 938 q 1026 871 1040 896 q 982 829 1013 846 q 901 813 951 813 q 828 819 869 813 q 737 840 788 826 q 624 875 686 854 l 622 879 q 535 906 579 894 q 447 917 490 917 q 291 863 346 917 q 236 710 236 808 q 247 633 236 671 q 278 564 258 596 q 254 555 267 558 q 222 551 242 551 z "},"Ë":{"ha":996,"x_min":99,"x_max":1042,"o":"m 639 -31 q 516 -12 571 -31 q 424 38 461 6 q 366 116 386 71 q 346 215 346 161 q 369 323 346 274 q 438 415 392 372 q 551 490 483 457 q 486 560 508 515 q 465 665 464 604 q 492 756 467 711 q 559 835 518 800 q 644 882 600 869 l 724 871 q 620 763 647 819 q 592 660 593 707 q 601 585 590 619 q 633 522 611 551 q 663 522 642 522 q 708 522 683 522 q 749 521 732 521 q 806 522 767 521 q 878 526 844 522 q 882 515 881 521 q 883 500 883 508 q 858 448 883 469 q 783 426 832 426 q 717 431 749 426 q 638 449 685 436 q 526 351 563 404 q 489 236 489 299 q 544 113 489 151 q 672 74 599 74 q 792 99 733 74 q 893 161 851 124 q 907 143 903 154 q 911 119 911 132 q 890 64 911 90 q 831 16 868 38 q 744 -18 793 -6 q 639 -31 694 -31 m 222 551 q 157 570 185 551 q 114 624 129 589 q 99 706 99 658 q 117 804 99 756 q 173 892 135 853 q 270 953 211 931 q 410 976 329 976 q 558 965 485 976 q 703 942 632 954 q 843 931 775 931 q 940 938 897 931 q 1022 979 983 944 q 1036 953 1031 968 q 1040 922 1042 938 q 1026 871 1040 896 q 982 829 1013 846 q 901 813 951 813 q 828 819 869 813 q 737 840 788 826 q 624 875 686 854 l 622 879 q 535 906 579 894 q 447 917 490 917 q 291 863 346 917 q 236 710 236 808 q 247 633 236 671 q 278 564 258 596 q 254 555 267 558 q 222 551 242 551 z "},"Ė":{"ha":996,"x_min":99,"x_max":1042,"o":"m 639 -31 q 516 -12 571 -31 q 424 38 461 6 q 366 116 386 71 q 346 215 346 161 q 369 323 346 274 q 438 415 392 372 q 551 490 483 457 q 486 560 508 515 q 465 665 464 604 q 492 756 467 711 q 559 835 518 800 q 644 882 600 869 l 724 871 q 620 763 647 819 q 592 660 593 707 q 601 585 590 619 q 633 522 611 551 q 663 522 642 522 q 708 522 683 522 q 749 521 732 521 q 806 522 767 521 q 878 526 844 522 q 882 515 881 521 q 883 500 883 508 q 858 448 883 469 q 783 426 832 426 q 717 431 749 426 q 638 449 685 436 q 526 351 563 404 q 489 236 489 299 q 544 113 489 151 q 672 74 599 74 q 792 99 733 74 q 893 161 851 124 q 907 143 903 154 q 911 119 911 132 q 890 64 911 90 q 831 16 868 38 q 744 -18 793 -6 q 639 -31 694 -31 m 222 551 q 157 570 185 551 q 114 624 129 589 q 99 706 99 658 q 117 804 99 756 q 173 892 135 853 q 270 953 211 931 q 410 976 329 976 q 558 965 485 976 q 703 942 632 954 q 843 931 775 931 q 940 938 897 931 q 1022 979 983 944 q 1036 953 1031 968 q 1040 922 1042 938 q 1026 871 1040 896 q 982 829 1013 846 q 901 813 951 813 q 828 819 869 813 q 737 840 788 826 q 624 875 686 854 l 622 879 q 535 906 579 894 q 447 917 490 917 q 291 863 346 917 q 236 710 236 808 q 247 633 236 671 q 278 564 258 596 q 254 555 267 558 q 222 551 242 551 z "},"Ẹ":{"ha":996,"x_min":99,"x_max":1042,"o":"m 639 -31 q 516 -12 571 -31 q 424 38 461 6 q 366 116 386 71 q 346 215 346 161 q 369 323 346 274 q 438 415 392 372 q 551 490 483 457 q 486 560 508 515 q 465 665 464 604 q 492 756 467 711 q 559 835 518 800 q 644 882 600 869 l 724 871 q 620 763 647 819 q 592 660 593 707 q 601 585 590 619 q 633 522 611 551 q 663 522 642 522 q 708 522 683 522 q 749 521 732 521 q 806 522 767 521 q 878 526 844 522 q 882 515 881 521 q 883 500 883 508 q 858 448 883 469 q 783 426 832 426 q 717 431 749 426 q 638 449 685 436 q 526 351 563 404 q 489 236 489 299 q 544 113 489 151 q 672 74 599 74 q 792 99 733 74 q 893 161 851 124 q 907 143 903 154 q 911 119 911 132 q 890 64 911 90 q 831 16 868 38 q 744 -18 793 -6 q 639 -31 694 -31 m 222 551 q 157 570 185 551 q 114 624 129 589 q 99 706 99 658 q 117 804 99 756 q 173 892 135 853 q 270 953 211 931 q 410 976 329 976 q 558 965 485 976 q 703 942 632 954 q 843 931 775 931 q 940 938 897 931 q 1022 979 983 944 q 1036 953 1031 968 q 1040 922 1042 938 q 1026 871 1040 896 q 982 829 1013 846 q 901 813 951 813 q 828 819 869 813 q 737 840 788 826 q 624 875 686 854 l 622 879 q 535 906 579 894 q 447 917 490 917 q 291 863 346 917 q 236 710 236 808 q 247 633 236 671 q 278 564 258 596 q 254 555 267 558 q 222 551 242 551 z "},"È":{"ha":996,"x_min":99,"x_max":1042,"o":"m 639 -31 q 516 -12 571 -31 q 424 38 461 6 q 366 116 386 71 q 346 215 346 161 q 369 323 346 274 q 438 415 392 372 q 551 490 483 457 q 486 560 508 515 q 465 665 464 604 q 492 756 467 711 q 559 835 518 800 q 644 882 600 869 l 724 871 q 620 763 647 819 q 592 660 593 707 q 601 585 590 619 q 633 522 611 551 q 663 522 642 522 q 708 522 683 522 q 749 521 732 521 q 806 522 767 521 q 878 526 844 522 q 882 515 881 521 q 883 500 883 508 q 858 448 883 469 q 783 426 832 426 q 717 431 749 426 q 638 449 685 436 q 526 351 563 404 q 489 236 489 299 q 544 113 489 151 q 672 74 599 74 q 792 99 733 74 q 893 161 851 124 q 907 143 903 154 q 911 119 911 132 q 890 64 911 90 q 831 16 868 38 q 744 -18 793 -6 q 639 -31 694 -31 m 222 551 q 157 570 185 551 q 114 624 129 589 q 99 706 99 658 q 117 804 99 756 q 173 892 135 853 q 270 953 211 931 q 410 976 329 976 q 558 965 485 976 q 703 942 632 954 q 843 931 775 931 q 940 938 897 931 q 1022 979 983 944 q 1036 953 1031 968 q 1040 922 1042 938 q 1026 871 1040 896 q 982 829 1013 846 q 901 813 951 813 q 828 819 869 813 q 737 840 788 826 q 624 875 686 854 l 622 879 q 535 906 579 894 q 447 917 490 917 q 291 863 346 917 q 236 710 236 808 q 247 633 236 671 q 278 564 258 596 q 254 555 267 558 q 222 551 242 551 z "},"Ẻ":{"ha":996,"x_min":99,"x_max":1042,"o":"m 639 -31 q 516 -12 571 -31 q 424 38 461 6 q 366 116 386 71 q 346 215 346 161 q 369 323 346 274 q 438 415 392 372 q 551 490 483 457 q 486 560 508 515 q 465 665 464 604 q 492 756 467 711 q 559 835 518 800 q 644 882 600 869 l 724 871 q 620 763 647 819 q 592 660 593 707 q 601 585 590 619 q 633 522 611 551 q 663 522 642 522 q 708 522 683 522 q 749 521 732 521 q 806 522 767 521 q 878 526 844 522 q 882 515 881 521 q 883 500 883 508 q 858 448 883 469 q 783 426 832 426 q 717 431 749 426 q 638 449 685 436 q 526 351 563 404 q 489 236 489 299 q 544 113 489 151 q 672 74 599 74 q 792 99 733 74 q 893 161 851 124 q 907 143 903 154 q 911 119 911 132 q 890 64 911 90 q 831 16 868 38 q 744 -18 793 -6 q 639 -31 694 -31 m 222 551 q 157 570 185 551 q 114 624 129 589 q 99 706 99 658 q 117 804 99 756 q 173 892 135 853 q 270 953 211 931 q 410 976 329 976 q 558 965 485 976 q 703 942 632 954 q 843 931 775 931 q 940 938 897 931 q 1022 979 983 944 q 1036 953 1031 968 q 1040 922 1042 938 q 1026 871 1040 896 q 982 829 1013 846 q 901 813 951 813 q 828 819 869 813 q 737 840 788 826 q 624 875 686 854 l 622 879 q 535 906 579 894 q 447 917 490 917 q 291 863 346 917 q 236 710 236 808 q 247 633 236 671 q 278 564 258 596 q 254 555 267 558 q 222 551 242 551 z "},"Ȇ":{"ha":996,"x_min":99,"x_max":1042,"o":"m 639 -31 q 516 -12 571 -31 q 424 38 461 6 q 366 116 386 71 q 346 215 346 161 q 369 323 346 274 q 438 415 392 372 q 551 490 483 457 q 486 560 508 515 q 465 665 464 604 q 492 756 467 711 q 559 835 518 800 q 644 882 600 869 l 724 871 q 620 763 647 819 q 592 660 593 707 q 601 585 590 619 q 633 522 611 551 q 663 522 642 522 q 708 522 683 522 q 749 521 732 521 q 806 522 767 521 q 878 526 844 522 q 882 515 881 521 q 883 500 883 508 q 858 448 883 469 q 783 426 832 426 q 717 431 749 426 q 638 449 685 436 q 526 351 563 404 q 489 236 489 299 q 544 113 489 151 q 672 74 599 74 q 792 99 733 74 q 893 161 851 124 q 907 143 903 154 q 911 119 911 132 q 890 64 911 90 q 831 16 868 38 q 744 -18 793 -6 q 639 -31 694 -31 m 222 551 q 157 570 185 551 q 114 624 129 589 q 99 706 99 658 q 117 804 99 756 q 173 892 135 853 q 270 953 211 931 q 410 976 329 976 q 558 965 485 976 q 703 942 632 954 q 843 931 775 931 q 940 938 897 931 q 1022 979 983 944 q 1036 953 1031 968 q 1040 922 1042 938 q 1026 871 1040 896 q 982 829 1013 846 q 901 813 951 813 q 828 819 869 813 q 737 840 788 826 q 624 875 686 854 l 622 879 q 535 906 579 894 q 447 917 490 917 q 291 863 346 917 q 236 710 236 808 q 247 633 236 671 q 278 564 258 596 q 254 555 267 558 q 222 551 242 551 z "},"Ē":{"ha":996,"x_min":99,"x_max":1042,"o":"m 639 -31 q 516 -12 571 -31 q 424 38 461 6 q 366 116 386 71 q 346 215 346 161 q 369 323 346 274 q 438 415 392 372 q 551 490 483 457 q 486 560 508 515 q 465 665 464 604 q 492 756 467 711 q 559 835 518 800 q 644 882 600 869 l 724 871 q 620 763 647 819 q 592 660 593 707 q 601 585 590 619 q 633 522 611 551 q 663 522 642 522 q 708 522 683 522 q 749 521 732 521 q 806 522 767 521 q 878 526 844 522 q 882 515 881 521 q 883 500 883 508 q 858 448 883 469 q 783 426 832 426 q 717 431 749 426 q 638 449 685 436 q 526 351 563 404 q 489 236 489 299 q 544 113 489 151 q 672 74 599 74 q 792 99 733 74 q 893 161 851 124 q 907 143 903 154 q 911 119 911 132 q 890 64 911 90 q 831 16 868 38 q 744 -18 793 -6 q 639 -31 694 -31 m 222 551 q 157 570 185 551 q 114 624 129 589 q 99 706 99 658 q 117 804 99 756 q 173 892 135 853 q 270 953 211 931 q 410 976 329 976 q 558 965 485 976 q 703 942 632 954 q 843 931 775 931 q 940 938 897 931 q 1022 979 983 944 q 1036 953 1031 968 q 1040 922 1042 938 q 1026 871 1040 896 q 982 829 1013 846 q 901 813 951 813 q 828 819 869 813 q 737 840 788 826 q 624 875 686 854 l 622 879 q 535 906 579 894 q 447 917 490 917 q 291 863 346 917 q 236 710 236 808 q 247 633 236 671 q 278 564 258 596 q 254 555 267 558 q 222 551 242 551 z "},"Ę":{"ha":996,"x_min":99,"x_max":1042,"o":"m 639 -31 q 516 -12 571 -31 q 424 38 461 6 q 366 116 386 71 q 346 215 346 161 q 369 323 346 274 q 438 415 392 372 q 551 490 483 457 q 486 560 508 515 q 465 665 464 604 q 492 756 467 711 q 559 835 518 800 q 644 882 600 869 l 724 871 q 620 763 647 819 q 592 660 593 707 q 601 585 590 619 q 633 522 611 551 q 663 522 642 522 q 708 522 683 522 q 749 521 732 521 q 806 522 767 521 q 878 526 844 522 q 882 515 881 521 q 883 500 883 508 q 858 448 883 469 q 783 426 832 426 q 717 431 749 426 q 638 449 685 436 q 526 351 563 404 q 489 236 489 299 q 544 113 489 151 q 672 74 599 74 q 792 99 733 74 q 893 161 851 124 q 907 143 903 154 q 911 119 911 132 q 890 64 911 90 q 831 16 868 38 q 744 -18 793 -6 q 639 -31 694 -31 m 222 551 q 157 570 185 551 q 114 624 129 589 q 99 706 99 658 q 117 804 99 756 q 173 892 135 853 q 270 953 211 931 q 410 976 329 976 q 558 965 485 976 q 703 942 632 954 q 843 931 775 931 q 940 938 897 931 q 1022 979 983 944 q 1036 953 1031 968 q 1040 922 1042 938 q 1026 871 1040 896 q 982 829 1013 846 q 901 813 951 813 q 828 819 869 813 q 737 840 788 826 q 624 875 686 854 l 622 879 q 535 906 579 894 q 447 917 490 917 q 291 863 346 917 q 236 710 236 808 q 247 633 236 671 q 278 564 258 596 q 254 555 267 558 q 222 551 242 551 z "},"Ẽ":{"ha":996,"x_min":99,"x_max":1042,"o":"m 639 -31 q 516 -12 571 -31 q 424 38 461 6 q 366 116 386 71 q 346 215 346 161 q 369 323 346 274 q 438 415 392 372 q 551 490 483 457 q 486 560 508 515 q 465 665 464 604 q 492 756 467 711 q 559 835 518 800 q 644 882 600 869 l 724 871 q 620 763 647 819 q 592 660 593 707 q 601 585 590 619 q 633 522 611 551 q 663 522 642 522 q 708 522 683 522 q 749 521 732 521 q 806 522 767 521 q 878 526 844 522 q 882 515 881 521 q 883 500 883 508 q 858 448 883 469 q 783 426 832 426 q 717 431 749 426 q 638 449 685 436 q 526 351 563 404 q 489 236 489 299 q 544 113 489 151 q 672 74 599 74 q 792 99 733 74 q 893 161 851 124 q 907 143 903 154 q 911 119 911 132 q 890 64 911 90 q 831 16 868 38 q 744 -18 793 -6 q 639 -31 694 -31 m 222 551 q 157 570 185 551 q 114 624 129 589 q 99 706 99 658 q 117 804 99 756 q 173 892 135 853 q 270 953 211 931 q 410 976 329 976 q 558 965 485 976 q 703 942 632 954 q 843 931 775 931 q 940 938 897 931 q 1022 979 983 944 q 1036 953 1031 968 q 1040 922 1042 938 q 1026 871 1040 896 q 982 829 1013 846 q 901 813 951 813 q 828 819 869 813 q 737 840 788 826 q 624 875 686 854 l 622 879 q 535 906 579 894 q 447 917 490 917 q 291 863 346 917 q 236 710 236 808 q 247 633 236 671 q 278 564 258 596 q 254 555 267 558 q 222 551 242 551 z "},"F":{"ha":897,"x_min":88,"x_max":958,"o":"m 201 551 q 140 571 165 551 q 101 628 114 590 q 89 717 88 665 q 122 839 90 779 q 220 938 154 899 q 386 976 286 976 q 521 965 456 976 q 650 942 586 954 q 776 931 714 931 q 867 938 828 931 q 942 978 907 944 q 953 953 949 968 q 958 922 958 938 q 945 871 958 896 q 904 829 932 846 q 831 813 876 813 q 756 824 797 813 q 665 853 714 835 q 558 892 615 871 l 557 896 q 488 914 517 911 q 419 917 460 917 q 280 863 331 917 q 226 710 229 808 q 234 632 225 669 q 261 563 243 594 q 231 554 247 557 q 201 551 214 551 m 307 -68 q 267 -61 286 -68 q 242 -40 249 -54 q 273 -12 260 -29 q 297 28 286 4 q 314 88 307 53 l 449 717 q 479 807 460 764 q 533 877 499 850 q 619 903 567 904 l 431 49 q 404 -20 421 6 q 363 -57 388 -46 q 307 -68 339 -68 m 674 417 q 615 420 644 417 q 553 430 585 424 q 488 446 522 436 l 508 522 q 558 519 535 521 q 603 517 581 518 q 647 517 625 517 q 715 518 681 517 q 785 522 749 519 q 789 507 788 514 q 790 493 790 500 q 756 435 789 454 q 674 417 722 417 z "},"G":{"ha":704,"x_min":40,"x_max":717,"o":"m 283 -28 q 150 11 204 -28 q 68 123 96 50 q 40 297 40 196 q 58 472 40 382 q 113 647 76 563 q 203 798 149 731 q 329 905 257 865 q 493 944 401 944 q 584 931 543 944 q 655 891 625 917 q 701 831 685 865 q 717 757 717 797 q 703 688 717 717 q 668 643 690 658 q 618 628 646 628 q 585 634 604 628 q 556 654 565 640 q 578 693 569 669 q 586 743 586 717 q 569 804 586 781 q 524 840 553 828 q 460 851 496 851 q 353 813 400 851 q 274 713 307 775 q 219 578 240 651 q 188 434 199 506 q 178 307 178 363 q 185 208 178 251 q 209 137 192 165 q 256 94 226 108 q 331 79 285 79 q 391 87 361 79 q 447 108 421 94 q 488 138 472 122 l 489 60 q 442 26 472 47 q 372 -11 411 6 q 283 -28 332 -28 m 382 -278 q 310 -254 343 -278 q 276 -186 276 -231 q 282 -186 279 -186 q 286 -186 285 -186 q 383 -153 347 -186 q 436 -72 418 -121 q 462 32 454 -22 q 476 132 469 86 l 518 424 l 672 449 q 636 344 651 401 q 606 204 621 286 q 568 0 590 122 q 537 -135 554 -81 q 498 -220 519 -189 q 448 -265 476 -251 q 382 -278 419 -278 z "},"Ğ":{"ha":704,"x_min":40,"x_max":718,"o":"m 283 -28 q 150 11 204 -28 q 68 123 96 50 q 40 297 40 196 q 58 472 40 382 q 113 647 76 563 q 203 798 149 731 q 329 905 257 865 q 493 944 401 944 q 584 931 543 944 q 655 891 625 917 q 701 831 685 865 q 717 757 717 797 q 703 688 717 717 q 668 643 690 658 q 618 628 646 628 q 585 634 604 628 q 556 654 565 640 q 578 693 569 669 q 586 743 586 717 q 569 804 586 781 q 524 840 553 828 q 460 851 496 851 q 353 813 400 851 q 274 713 307 775 q 219 578 240 651 q 188 434 199 506 q 178 307 178 363 q 185 208 178 251 q 209 137 192 165 q 256 94 226 108 q 331 79 285 79 q 391 87 361 79 q 447 108 421 94 q 488 138 472 122 l 489 60 q 442 26 472 47 q 372 -11 411 6 q 283 -28 332 -28 m 382 -278 q 310 -254 343 -278 q 276 -186 276 -231 q 282 -186 279 -186 q 286 -186 285 -186 q 383 -153 347 -186 q 436 -72 418 -121 q 462 32 454 -22 q 476 132 469 86 l 518 424 l 672 449 q 636 344 651 401 q 606 204 621 286 q 568 0 590 122 q 537 -135 554 -81 q 498 -220 519 -189 q 448 -265 476 -251 q 382 -278 419 -278 z "},"Ǧ":{"ha":704,"x_min":40,"x_max":717,"o":"m 283 -28 q 150 11 204 -28 q 68 123 96 50 q 40 297 40 196 q 58 472 40 382 q 113 647 76 563 q 203 798 149 731 q 329 905 257 865 q 493 944 401 944 q 584 931 543 944 q 655 891 625 917 q 701 831 685 865 q 717 757 717 797 q 703 688 717 717 q 668 643 690 658 q 618 628 646 628 q 585 634 604 628 q 556 654 565 640 q 578 693 569 669 q 586 743 586 717 q 569 804 586 781 q 524 840 553 828 q 460 851 496 851 q 353 813 400 851 q 274 713 307 775 q 219 578 240 651 q 188 434 199 506 q 178 307 178 363 q 185 208 178 251 q 209 137 192 165 q 256 94 226 108 q 331 79 285 79 q 391 87 361 79 q 447 108 421 94 q 488 138 472 122 l 489 60 q 442 26 472 47 q 372 -11 411 6 q 283 -28 332 -28 m 382 -278 q 310 -254 343 -278 q 276 -186 276 -231 q 282 -186 279 -186 q 286 -186 285 -186 q 383 -153 347 -186 q 436 -72 418 -121 q 462 32 454 -22 q 476 132 469 86 l 518 424 l 672 449 q 636 344 651 401 q 606 204 621 286 q 568 0 590 122 q 537 -135 554 -81 q 498 -220 519 -189 q 448 -265 476 -251 q 382 -278 419 -278 z "},"Ĝ":{"ha":704,"x_min":40,"x_max":717,"o":"m 283 -28 q 150 11 204 -28 q 68 123 96 50 q 40 297 40 196 q 58 472 40 382 q 113 647 76 563 q 203 798 149 731 q 329 905 257 865 q 493 944 401 944 q 584 931 543 944 q 655 891 625 917 q 701 831 685 865 q 717 757 717 797 q 703 688 717 717 q 668 643 690 658 q 618 628 646 628 q 585 634 604 628 q 556 654 565 640 q 578 693 569 669 q 586 743 586 717 q 569 804 586 781 q 524 840 553 828 q 460 851 496 851 q 353 813 400 851 q 274 713 307 775 q 219 578 240 651 q 188 434 199 506 q 178 307 178 363 q 185 208 178 251 q 209 137 192 165 q 256 94 226 108 q 331 79 285 79 q 391 87 361 79 q 447 108 421 94 q 488 138 472 122 l 489 60 q 442 26 472 47 q 372 -11 411 6 q 283 -28 332 -28 m 382 -278 q 310 -254 343 -278 q 276 -186 276 -231 q 282 -186 279 -186 q 286 -186 285 -186 q 383 -153 347 -186 q 436 -72 418 -121 q 462 32 454 -22 q 476 132 469 86 l 518 424 l 672 449 q 636 344 651 401 q 606 204 621 286 q 568 0 590 122 q 537 -135 554 -81 q 498 -220 519 -189 q 448 -265 476 -251 q 382 -278 419 -278 z "},"Ģ":{"ha":711,"x_min":44,"x_max":717,"o":"m 274 -28 q 147 11 199 -28 q 70 123 96 50 q 44 297 44 196 q 62 470 44 381 q 115 644 79 560 q 206 797 151 729 q 333 904 260 864 q 499 944 406 944 q 590 931 550 944 q 659 894 631 918 q 702 835 688 869 q 717 757 717 800 q 702 685 717 714 q 663 642 688 656 q 610 628 639 628 q 570 634 590 628 q 540 654 550 640 q 558 708 551 678 q 564 756 564 738 q 551 806 564 786 q 517 836 539 826 q 465 846 494 846 q 360 808 406 846 q 283 710 315 771 q 230 576 250 649 q 201 433 210 504 q 192 307 192 363 q 199 222 192 260 q 224 156 207 183 q 273 113 242 128 q 351 99 304 99 q 398 101 372 99 q 448 113 424 104 q 488 138 472 122 l 489 60 q 442 26 472 47 q 369 -11 411 6 q 274 -28 326 -28 m 390 -317 q 359 -311 376 -317 q 335 -296 342 -306 q 367 -247 349 -281 q 406 -159 386 -212 q 444 -33 426 -106 q 476 132 463 40 l 518 421 l 672 439 q 636 327 651 392 q 606 173 621 263 q 568 -39 590 83 q 544 -151 557 -104 q 515 -231 531 -199 q 481 -281 500 -262 q 440 -308 463 -300 q 390 -317 418 -317 m 125 -344 q 104 -340 113 -344 q 89 -326 96 -336 q 138 -244 115 -287 q 161 -150 161 -201 q 160 -127 161 -136 q 154 -104 160 -118 q 184 -94 168 -97 q 215 -90 200 -90 q 267 -107 244 -90 q 289 -164 289 -124 q 275 -224 289 -193 q 238 -283 261 -256 q 186 -328 215 -311 q 125 -344 157 -344 z "},"Ġ":{"ha":704,"x_min":40,"x_max":717,"o":"m 283 -28 q 150 11 204 -28 q 68 123 96 50 q 40 297 40 196 q 58 472 40 382 q 113 647 76 563 q 203 798 149 731 q 329 905 257 865 q 493 944 401 944 q 584 931 543 944 q 655 891 625 917 q 701 831 685 865 q 717 757 717 797 q 703 688 717 717 q 668 643 690 658 q 618 628 646 628 q 585 634 604 628 q 556 654 565 640 q 578 693 569 669 q 586 743 586 717 q 569 804 586 781 q 524 840 553 828 q 460 851 496 851 q 353 813 400 851 q 274 713 307 775 q 219 578 240 651 q 188 434 199 506 q 178 307 178 363 q 185 208 178 251 q 209 137 192 165 q 256 94 226 108 q 331 79 285 79 q 391 87 361 79 q 447 108 421 94 q 488 138 472 122 l 489 60 q 442 26 472 47 q 372 -11 411 6 q 283 -28 332 -28 m 382 -278 q 310 -254 343 -278 q 276 -186 276 -231 q 282 -186 279 -186 q 286 -186 285 -186 q 383 -153 347 -186 q 436 -72 418 -121 q 462 32 454 -22 q 476 132 469 86 l 518 424 l 672 449 q 636 344 651 401 q 606 204 621 286 q 568 0 590 122 q 537 -135 554 -81 q 498 -220 519 -189 q 448 -265 476 -251 q 382 -278 419 -278 z "},"H":{"ha":1083,"x_min":100,"x_max":1131,"o":"m 778 -10 l 943 883 q 967 951 951 926 q 1008 988 983 976 q 1064 1000 1032 1000 q 1103 994 1085 1000 q 1131 972 1122 988 q 1103 944 1115 961 q 1081 903 1090 928 q 1065 844 1072 879 l 910 8 l 778 -10 m 336 -68 q 297 -61 315 -68 q 269 -40 278 -54 q 297 -12 285 -29 q 319 28 310 4 q 335 88 329 53 l 457 739 q 488 838 468 799 q 540 897 507 878 q 626 917 574 917 l 457 49 q 433 -20 449 6 q 392 -57 417 -46 q 336 -68 368 -68 m 219 551 q 158 570 185 551 q 115 623 131 589 q 100 704 100 657 q 132 835 100 772 q 231 937 164 897 q 403 976 299 976 q 475 969 442 976 q 536 950 508 961 q 586 930 564 939 q 625 917 608 921 l 522 882 l 521 885 q 496 899 517 888 q 419 910 475 910 q 282 857 331 910 q 233 710 233 804 q 244 633 233 671 q 274 563 254 596 q 248 554 261 557 q 219 551 235 551 m 482 404 l 496 499 l 926 499 l 910 404 l 482 404 z "},"Ħ":{"ha":1114,"x_min":90,"x_max":1154,"o":"m 778 -10 l 943 883 q 967 951 951 926 q 1008 988 983 976 q 1064 1000 1032 1000 q 1103 994 1085 1000 q 1131 972 1122 988 q 1103 944 1115 961 q 1081 903 1090 928 q 1065 844 1072 879 l 910 8 l 778 -10 m 336 -68 q 297 -61 315 -68 q 269 -40 278 -54 q 297 -12 285 -29 q 319 28 310 4 q 335 88 329 53 l 457 739 q 488 838 468 799 q 540 897 507 878 q 626 917 574 917 l 457 49 q 433 -20 449 6 q 392 -57 417 -46 q 336 -68 368 -68 m 219 551 q 153 569 183 551 q 107 620 124 586 q 90 704 90 654 q 124 834 90 772 q 226 936 157 896 q 403 976 294 976 q 477 969 443 976 q 540 950 511 961 q 590 929 568 939 q 626 917 611 919 l 518 881 l 515 886 q 487 901 507 893 q 419 910 467 910 q 283 853 326 910 q 239 710 239 797 q 249 633 239 671 q 278 564 260 596 q 249 555 264 558 q 219 551 235 551 m 482 404 l 496 499 l 926 499 l 910 404 l 482 404 m 354 681 q 352 694 353 688 q 351 706 351 701 q 374 756 351 739 q 433 774 397 774 l 1151 774 q 1154 760 1154 767 q 1154 747 1154 754 q 1132 699 1154 717 q 1063 681 1110 681 l 354 681 z "},"Ĥ":{"ha":1083,"x_min":100,"x_max":1131,"o":"m 778 -10 l 943 883 q 967 951 951 926 q 1008 988 983 976 q 1064 1000 1032 1000 q 1103 994 1085 1000 q 1131 972 1122 988 q 1103 944 1115 961 q 1081 903 1090 928 q 1065 844 1072 879 l 910 8 l 778 -10 m 336 -68 q 297 -61 315 -68 q 269 -40 278 -54 q 297 -12 285 -29 q 319 28 310 4 q 335 88 329 53 l 457 739 q 488 838 468 799 q 540 897 507 878 q 626 917 574 917 l 457 49 q 433 -20 449 6 q 392 -57 417 -46 q 336 -68 368 -68 m 219 551 q 158 570 185 551 q 115 623 131 589 q 100 704 100 657 q 132 835 100 772 q 231 937 164 897 q 403 976 299 976 q 475 969 442 976 q 536 950 508 961 q 586 930 564 939 q 625 917 608 921 l 522 882 l 521 885 q 496 899 517 888 q 419 910 475 910 q 282 857 331 910 q 233 710 233 804 q 244 633 233 671 q 274 563 254 596 q 248 554 261 557 q 219 551 235 551 m 482 404 l 496 499 l 926 499 l 910 404 l 482 404 z "},"Ḥ":{"ha":1083,"x_min":100,"x_max":1131,"o":"m 778 -10 l 943 883 q 967 951 951 926 q 1008 988 983 976 q 1064 1000 1032 1000 q 1103 994 1085 1000 q 1131 972 1122 988 q 1103 944 1115 961 q 1081 903 1090 928 q 1065 844 1072 879 l 910 8 l 778 -10 m 336 -68 q 297 -61 315 -68 q 269 -40 278 -54 q 297 -12 285 -29 q 319 28 310 4 q 335 88 329 53 l 457 739 q 488 838 468 799 q 540 897 507 878 q 626 917 574 917 l 457 49 q 433 -20 449 6 q 392 -57 417 -46 q 336 -68 368 -68 m 219 551 q 158 570 185 551 q 115 623 131 589 q 100 704 100 657 q 132 835 100 772 q 231 937 164 897 q 403 976 299 976 q 475 969 442 976 q 536 950 508 961 q 586 930 564 939 q 625 917 608 921 l 522 882 l 521 885 q 496 899 517 888 q 419 910 475 910 q 282 857 331 910 q 233 710 233 804 q 244 633 233 671 q 274 563 254 596 q 248 554 261 557 q 219 551 235 551 m 482 404 l 496 499 l 926 499 l 910 404 l 482 404 z "},"I":{"ha":606,"x_min":100,"x_max":626,"o":"m 343 -31 q 304 -24 322 -31 q 278 -3 286 -17 q 306 25 293 8 q 328 66 318 42 q 343 125 338 90 l 458 739 q 489 838 469 799 q 541 897 508 878 q 626 917 574 917 l 464 86 q 440 17 456 43 q 399 -19 424 -8 q 343 -31 375 -31 m 219 551 q 158 570 185 551 q 115 623 131 589 q 100 704 100 657 q 132 835 100 772 q 231 937 164 897 q 403 976 299 976 q 475 969 442 976 q 536 950 508 961 q 586 930 564 939 q 625 917 608 921 l 522 882 l 521 885 q 496 899 517 888 q 419 910 475 910 q 282 857 331 910 q 233 710 233 804 q 244 633 233 671 q 274 563 254 596 q 248 554 261 557 q 219 551 235 551 z "},"Ĳ":{"ha":944,"x_min":100,"x_max":951,"o":"m 343 -31 q 304 -24 322 -31 q 278 -3 286 -17 q 306 25 293 8 q 328 66 318 42 q 343 125 338 90 l 458 739 q 489 838 469 799 q 541 897 508 878 q 626 917 574 917 l 464 86 q 440 17 456 43 q 399 -19 424 -8 q 343 -31 375 -31 m 219 551 q 158 570 185 551 q 115 623 131 589 q 100 704 100 657 q 132 835 100 772 q 231 937 164 897 q 403 976 299 976 q 475 969 442 976 q 536 950 508 961 q 586 930 564 939 q 625 917 608 921 l 522 882 l 521 885 q 496 899 517 888 q 419 910 475 910 q 282 857 331 910 q 233 710 233 804 q 244 633 233 671 q 274 563 254 596 q 248 554 261 557 q 219 551 235 551 m 618 -212 q 574 -200 594 -212 q 542 -162 553 -187 q 589 -124 569 -151 q 621 -65 608 -97 q 640 -3 633 -32 q 649 38 646 25 l 817 917 l 951 917 l 786 72 q 751 -74 771 -10 q 699 -176 731 -139 q 618 -212 668 -212 z "},"Í":{"ha":619,"x_min":100,"x_max":757,"o":"m 343 -31 q 304 -24 322 -31 q 278 -3 286 -17 q 306 25 293 8 q 328 66 318 42 q 343 125 338 90 l 458 739 q 489 838 469 799 q 541 897 508 878 q 626 917 574 917 l 464 86 q 440 17 456 43 q 399 -19 424 -8 q 343 -31 375 -31 m 219 551 q 158 570 185 551 q 115 623 131 589 q 100 704 100 657 q 132 835 100 772 q 231 937 164 897 q 403 976 299 976 q 475 969 442 976 q 536 950 508 961 q 586 930 564 939 q 625 917 608 921 l 522 882 l 521 885 q 496 899 517 888 q 419 910 475 910 q 282 857 331 910 q 233 710 233 804 q 244 633 233 671 q 274 563 254 596 q 248 554 261 557 q 219 551 235 551 m 417 1028 l 407 1085 l 729 1204 q 751 1180 744 1194 q 757 1144 757 1165 q 728 1076 757 1099 q 657 1046 699 1053 q 575 1036 615 1039 l 417 1028 z "},"Ĭ":{"ha":606,"x_min":100,"x_max":708,"o":"m 343 -31 q 304 -24 322 -31 q 278 -3 286 -17 q 306 25 293 8 q 328 66 318 42 q 343 125 338 90 l 458 739 q 489 838 469 799 q 541 897 508 878 q 626 917 574 917 l 464 86 q 440 17 456 43 q 399 -19 424 -8 q 343 -31 375 -31 m 219 551 q 158 570 185 551 q 115 623 131 589 q 100 704 100 657 q 132 835 100 772 q 231 937 164 897 q 403 976 299 976 q 475 969 442 976 q 536 950 508 961 q 586 930 564 939 q 625 917 608 921 l 522 882 l 521 885 q 496 899 517 888 q 419 910 475 910 q 282 857 331 910 q 233 710 233 804 q 244 633 233 671 q 274 563 254 596 q 248 554 261 557 q 219 551 235 551 z "},"Ǐ":{"ha":606,"x_min":100,"x_max":674,"o":"m 343 -31 q 304 -24 322 -31 q 278 -3 286 -17 q 306 25 293 8 q 328 66 318 42 q 343 125 338 90 l 458 739 q 489 838 469 799 q 541 897 508 878 q 626 917 574 917 l 464 86 q 440 17 456 43 q 399 -19 424 -8 q 343 -31 375 -31 m 219 551 q 158 570 185 551 q 115 623 131 589 q 100 704 100 657 q 132 835 100 772 q 231 937 164 897 q 403 976 299 976 q 475 969 442 976 q 536 950 508 961 q 586 930 564 939 q 625 917 608 921 l 522 882 l 521 885 q 496 899 517 888 q 419 910 475 910 q 282 857 331 910 q 233 710 233 804 q 244 633 233 671 q 274 563 254 596 q 248 554 261 557 q 219 551 235 551 z "},"Î":{"ha":606,"x_min":100,"x_max":689,"o":"m 343 -31 q 304 -24 322 -31 q 278 -3 286 -17 q 306 25 293 8 q 328 66 318 42 q 343 125 338 90 l 458 739 q 489 838 469 799 q 541 897 508 878 q 626 917 574 917 l 464 86 q 440 17 456 43 q 399 -19 424 -8 q 343 -31 375 -31 m 219 551 q 158 570 185 551 q 115 623 131 589 q 100 704 100 657 q 132 835 100 772 q 231 937 164 897 q 403 976 299 976 q 475 969 442 976 q 536 950 508 961 q 586 930 564 939 q 625 917 608 921 l 522 882 l 521 885 q 496 899 517 888 q 419 910 475 910 q 282 857 331 910 q 233 710 233 804 q 244 633 233 671 q 274 563 254 596 q 248 554 261 557 q 219 551 235 551 z "},"Ȉ":{"ha":606,"x_min":100,"x_max":667,"o":"m 343 -31 q 304 -24 322 -31 q 278 -3 286 -17 q 306 25 293 8 q 328 66 318 42 q 343 125 338 90 l 458 739 q 489 838 469 799 q 541 897 508 878 q 626 917 574 917 l 464 86 q 440 17 456 43 q 399 -19 424 -8 q 343 -31 375 -31 m 219 551 q 158 570 185 551 q 115 623 131 589 q 100 704 100 657 q 132 835 100 772 q 231 937 164 897 q 403 976 299 976 q 475 969 442 976 q 536 950 508 961 q 586 930 564 939 q 625 917 608 921 l 522 882 l 521 885 q 496 899 517 888 q 419 910 475 910 q 282 857 331 910 q 233 710 233 804 q 244 633 233 671 q 274 563 254 596 q 248 554 261 557 q 219 551 235 551 z "},"Ï":{"ha":606,"x_min":100,"x_max":692,"o":"m 343 -31 q 304 -24 322 -31 q 278 -3 286 -17 q 306 25 293 8 q 328 66 318 42 q 343 125 338 90 l 458 739 q 489 838 469 799 q 541 897 508 878 q 626 917 574 917 l 464 86 q 440 17 456 43 q 399 -19 424 -8 q 343 -31 375 -31 m 219 551 q 158 570 185 551 q 115 623 131 589 q 100 704 100 657 q 132 835 100 772 q 231 937 164 897 q 403 976 299 976 q 475 969 442 976 q 536 950 508 961 q 586 930 564 939 q 625 917 608 921 l 522 882 l 521 885 q 496 899 517 888 q 419 910 475 910 q 282 857 331 910 q 233 710 233 804 q 244 633 233 671 q 274 563 254 596 q 248 554 261 557 q 219 551 235 551 z "},"İ":{"ha":606,"x_min":100,"x_max":626,"o":"m 343 -31 q 304 -24 322 -31 q 278 -3 286 -17 q 306 25 293 8 q 328 66 318 42 q 343 125 338 90 l 458 739 q 489 838 469 799 q 541 897 508 878 q 626 917 574 917 l 464 86 q 440 17 456 43 q 399 -19 424 -8 q 343 -31 375 -31 m 219 551 q 158 570 185 551 q 115 623 131 589 q 100 704 100 657 q 132 835 100 772 q 231 937 164 897 q 403 976 299 976 q 475 969 442 976 q 536 950 508 961 q 586 930 564 939 q 625 917 608 921 l 522 882 l 521 885 q 496 899 517 888 q 419 910 475 910 q 282 857 331 910 q 233 710 233 804 q 244 633 233 671 q 274 563 254 596 q 248 554 261 557 q 219 551 235 551 z "},"Ị":{"ha":606,"x_min":100,"x_max":626,"o":"m 343 -31 q 304 -24 322 -31 q 278 -3 286 -17 q 306 25 293 8 q 328 66 318 42 q 343 125 338 90 l 458 739 q 489 838 469 799 q 541 897 508 878 q 626 917 574 917 l 464 86 q 440 17 456 43 q 399 -19 424 -8 q 343 -31 375 -31 m 219 551 q 158 570 185 551 q 115 623 131 589 q 100 704 100 657 q 132 835 100 772 q 231 937 164 897 q 403 976 299 976 q 475 969 442 976 q 536 950 508 961 q 586 930 564 939 q 625 917 608 921 l 522 882 l 521 885 q 496 899 517 888 q 419 910 475 910 q 282 857 331 910 q 233 710 233 804 q 244 633 233 671 q 274 563 254 596 q 248 554 261 557 q 219 551 235 551 z "},"Ì":{"ha":606,"x_min":100,"x_max":626,"o":"m 343 -31 q 304 -24 322 -31 q 278 -3 286 -17 q 306 25 293 8 q 328 66 318 42 q 343 125 338 90 l 458 739 q 489 838 469 799 q 541 897 508 878 q 626 917 574 917 l 464 86 q 440 17 456 43 q 399 -19 424 -8 q 343 -31 375 -31 m 219 551 q 158 570 185 551 q 115 623 131 589 q 100 704 100 657 q 132 835 100 772 q 231 937 164 897 q 403 976 299 976 q 475 969 442 976 q 536 950 508 961 q 586 930 564 939 q 625 917 608 921 l 522 882 l 521 885 q 496 899 517 888 q 419 910 475 910 q 282 857 331 910 q 233 710 233 804 q 244 633 233 671 q 274 563 254 596 q 248 554 261 557 q 219 551 235 551 z "},"Ỉ":{"ha":606,"x_min":100,"x_max":672,"o":"m 343 -31 q 304 -24 322 -31 q 278 -3 286 -17 q 306 25 293 8 q 328 66 318 42 q 343 125 338 90 l 458 739 q 489 838 469 799 q 541 897 508 878 q 626 917 574 917 l 464 86 q 440 17 456 43 q 399 -19 424 -8 q 343 -31 375 -31 m 219 551 q 158 570 185 551 q 115 623 131 589 q 100 704 100 657 q 132 835 100 772 q 231 937 164 897 q 403 976 299 976 q 475 969 442 976 q 536 950 508 961 q 586 930 564 939 q 625 917 608 921 l 522 882 l 521 885 q 496 899 517 888 q 419 910 475 910 q 282 857 331 910 q 233 710 233 804 q 244 633 233 671 q 274 563 254 596 q 248 554 261 557 q 219 551 235 551 z "},"Ȋ":{"ha":606,"x_min":100,"x_max":658,"o":"m 343 -31 q 304 -24 322 -31 q 278 -3 286 -17 q 306 25 293 8 q 328 66 318 42 q 343 125 338 90 l 458 739 q 489 838 469 799 q 541 897 508 878 q 626 917 574 917 l 464 86 q 440 17 456 43 q 399 -19 424 -8 q 343 -31 375 -31 m 219 551 q 158 570 185 551 q 115 623 131 589 q 100 704 100 657 q 132 835 100 772 q 231 937 164 897 q 403 976 299 976 q 475 969 442 976 q 536 950 508 961 q 586 930 564 939 q 625 917 608 921 l 522 882 l 521 885 q 496 899 517 888 q 419 910 475 910 q 282 857 331 910 q 233 710 233 804 q 244 633 233 671 q 274 563 254 596 q 248 554 261 557 q 219 551 235 551 z "},"Ī":{"ha":606,"x_min":100,"x_max":682,"o":"m 343 -31 q 304 -24 322 -31 q 278 -3 286 -17 q 306 25 293 8 q 328 66 318 42 q 343 125 338 90 l 458 739 q 489 838 469 799 q 541 897 508 878 q 626 917 574 917 l 464 86 q 440 17 456 43 q 399 -19 424 -8 q 343 -31 375 -31 m 219 551 q 158 570 185 551 q 115 623 131 589 q 100 704 100 657 q 132 835 100 772 q 231 937 164 897 q 403 976 299 976 q 475 969 442 976 q 536 950 508 961 q 586 930 564 939 q 625 917 608 921 l 522 882 l 521 885 q 496 899 517 888 q 419 910 475 910 q 282 857 331 910 q 233 710 233 804 q 244 633 233 671 q 274 563 254 596 q 248 554 261 557 q 219 551 235 551 z "},"Į":{"ha":619,"x_min":100,"x_max":626,"o":"m 357 -372 q 246 -333 289 -372 q 203 -224 203 -294 q 232 -115 203 -164 q 303 -33 261 -67 q 388 17 346 1 l 431 22 l 415 -10 q 324 -99 356 -49 q 292 -208 292 -149 q 369 -293 292 -293 q 414 -285 393 -293 q 446 -258 435 -276 q 462 -273 456 -264 q 468 -293 468 -282 q 436 -349 468 -326 q 357 -372 404 -372 m 343 -31 q 304 -24 322 -31 q 278 -3 286 -17 q 306 25 293 8 q 328 66 318 42 q 343 125 338 90 l 458 739 q 489 838 469 799 q 541 897 508 878 q 626 917 574 917 l 464 86 q 440 17 456 43 q 399 -19 424 -8 q 343 -31 375 -31 m 219 551 q 158 570 185 551 q 115 623 131 589 q 100 704 100 657 q 132 835 100 772 q 231 937 164 897 q 403 976 299 976 q 475 969 442 976 q 536 950 508 961 q 586 930 564 939 q 625 917 608 921 l 522 882 l 521 885 q 496 899 517 888 q 419 910 475 910 q 282 857 331 910 q 233 710 233 804 q 244 633 233 671 q 274 563 254 596 q 248 554 261 557 q 219 551 235 551 z "},"Ĩ":{"ha":606,"x_min":100,"x_max":694,"o":"m 343 -31 q 304 -24 322 -31 q 278 -3 286 -17 q 306 25 293 8 q 328 66 318 42 q 343 125 338 90 l 458 739 q 489 838 469 799 q 541 897 508 878 q 626 917 574 917 l 464 86 q 440 17 456 43 q 399 -19 424 -8 q 343 -31 375 -31 m 219 551 q 158 570 185 551 q 115 623 131 589 q 100 704 100 657 q 132 835 100 772 q 231 937 164 897 q 403 976 299 976 q 475 969 442 976 q 536 950 508 961 q 586 930 564 939 q 625 917 608 921 l 522 882 l 521 885 q 496 899 517 888 q 419 910 475 910 q 282 857 331 910 q 233 710 233 804 q 244 633 233 671 q 274 563 254 596 q 248 554 261 557 q 219 551 235 551 z "},"J":{"ha":606,"x_min":96,"x_max":626,"o":"m 293 -212 q 250 -200 269 -212 q 219 -162 231 -187 q 267 -124 247 -151 q 299 -65 286 -97 q 317 -3 311 -32 q 326 38 324 25 l 456 717 q 485 812 467 768 q 538 883 504 856 q 626 917 572 911 l 461 72 q 428 -60 449 6 q 376 -169 408 -126 q 293 -212 343 -212 m 219 551 q 154 570 182 551 q 111 623 126 589 q 96 704 96 657 q 128 835 96 772 q 229 937 161 897 q 403 976 297 976 q 475 969 442 976 q 536 950 508 961 q 586 930 564 939 q 625 917 608 921 l 528 875 l 526 878 q 497 898 518 886 q 419 910 475 910 q 282 857 331 910 q 233 710 233 804 q 244 633 233 671 q 274 563 254 596 q 248 554 261 557 q 219 551 235 551 z "},"Ĵ":{"ha":606,"x_min":96,"x_max":628,"o":"m 293 -212 q 250 -200 269 -212 q 219 -162 231 -187 q 267 -124 247 -151 q 299 -65 286 -97 q 317 -3 311 -32 q 326 38 324 25 l 456 717 q 485 812 467 768 q 538 883 504 856 q 626 917 572 911 l 461 72 q 428 -60 449 6 q 376 -169 408 -126 q 293 -212 343 -212 m 219 551 q 154 570 182 551 q 111 623 126 589 q 96 704 96 657 q 128 835 96 772 q 229 937 161 897 q 403 976 297 976 q 475 969 442 976 q 536 950 508 961 q 586 930 564 939 q 625 917 608 921 l 528 875 l 526 878 q 497 898 518 886 q 419 910 475 910 q 282 857 331 910 q 233 710 233 804 q 244 633 233 671 q 274 563 254 596 q 248 554 261 557 q 219 551 235 551 z "},"K":{"ha":1004,"x_min":100,"x_max":1088,"o":"m 643 449 l 567 456 q 652 542 611 493 q 730 645 693 592 q 799 751 767 699 q 858 847 832 803 q 906 917 885 890 q 953 967 932 950 q 1010 985 974 985 q 1067 965 1047 985 q 1088 918 1088 944 q 1084 893 1088 907 q 1074 871 1081 879 q 1068 874 1071 874 q 1063 875 1065 875 q 998 847 1033 878 q 925 767 963 817 q 849 661 888 717 q 773 556 810 606 q 703 476 736 507 q 643 449 669 446 m 925 -156 q 858 -134 886 -156 q 806 -74 831 -112 q 763 10 786 -43 q 715 127 740 64 q 665 253 690 190 q 615 370 639 317 q 567 456 590 424 l 669 476 q 713 419 690 463 q 760 314 736 375 q 813 188 785 253 q 872 63 840 122 q 939 -38 903 3 q 1017 -89 975 -79 q 984 -136 1007 -117 q 925 -156 961 -156 m 343 -31 q 304 -24 322 -31 q 278 -3 286 -17 q 306 25 293 8 q 328 66 318 42 q 343 125 338 90 l 458 739 q 489 838 469 799 q 541 897 508 878 q 626 917 574 917 l 464 86 q 440 17 456 43 q 399 -19 424 -8 q 343 -31 375 -31 m 219 551 q 158 570 185 551 q 115 623 131 589 q 100 704 100 657 q 132 835 100 772 q 231 937 164 897 q 403 976 299 976 q 475 969 442 976 q 536 950 508 961 q 586 930 564 939 q 625 917 608 921 l 522 882 l 521 885 q 496 899 517 888 q 419 910 475 910 q 282 857 331 910 q 233 710 233 804 q 244 633 233 671 q 274 563 254 596 q 248 554 261 557 q 219 551 235 551 z "},"Ķ":{"ha":1004,"x_min":100,"x_max":1088,"o":"m 643 449 l 567 456 q 652 542 611 493 q 730 645 693 592 q 799 751 767 699 q 858 847 832 803 q 906 917 885 890 q 953 967 932 950 q 1010 985 974 985 q 1067 965 1047 985 q 1088 918 1088 944 q 1084 893 1088 907 q 1074 871 1081 879 q 1068 874 1071 874 q 1063 875 1065 875 q 998 847 1033 878 q 925 767 963 817 q 849 661 888 717 q 773 556 810 606 q 703 476 736 507 q 643 449 669 446 m 925 -156 q 858 -134 886 -156 q 806 -74 831 -112 q 763 10 786 -43 q 715 127 740 64 q 665 253 690 190 q 615 370 639 317 q 567 456 590 424 l 669 476 q 713 419 690 463 q 760 314 736 375 q 813 188 785 253 q 872 63 840 122 q 939 -38 903 3 q 1017 -89 975 -79 q 984 -136 1007 -117 q 925 -156 961 -156 m 343 -31 q 304 -24 322 -31 q 278 -3 286 -17 q 306 25 293 8 q 328 66 318 42 q 343 125 338 90 l 458 739 q 489 838 469 799 q 541 897 508 878 q 626 917 574 917 l 464 86 q 440 17 456 43 q 399 -19 424 -8 q 343 -31 375 -31 m 219 551 q 158 570 185 551 q 115 623 131 589 q 100 704 100 657 q 132 835 100 772 q 231 937 164 897 q 403 976 299 976 q 475 969 442 976 q 536 950 508 961 q 586 930 564 939 q 625 917 608 921 l 522 882 l 521 885 q 496 899 517 888 q 419 910 475 910 q 282 857 331 910 q 233 710 233 804 q 244 633 233 671 q 274 563 254 596 q 248 554 261 557 q 219 551 235 551 z "},"L":{"ha":700,"x_min":-76,"x_max":743,"o":"m 90 65 l -1 90 q 78 185 53 133 q 116 310 104 238 q 138 482 128 382 q 206 730 153 625 q 344 892 260 835 q 535 949 429 949 q 644 924 597 949 q 717 858 690 900 q 742 758 743 815 q 724 676 742 713 q 679 617 707 639 q 617 596 651 596 q 587 601 600 596 q 560 615 574 606 q 590 665 579 632 q 603 735 601 697 q 574 831 604 796 q 492 867 544 867 q 405 844 442 867 q 342 776 368 822 q 298 658 315 729 q 271 492 281 588 q 233 303 261 386 q 167 161 204 221 q 90 65 129 101 m 511 -222 q 393 -197 449 -222 q 285 -135 338 -172 q 183 -62 233 -99 q 83 0 133 -25 q -21 25 32 25 q -52 24 -40 25 q -74 19 -64 22 q -76 32 -75 26 q -76 43 -76 38 q -67 76 -76 63 q -39 96 -57 89 q 6 103 -21 103 q 110 83 58 103 q 212 35 161 64 q 314 -24 263 6 q 417 -74 365 -54 q 521 -93 468 -93 q 581 -85 556 -93 q 624 -69 606 -78 q 641 -94 635 -78 q 647 -126 647 -110 q 631 -169 647 -147 q 585 -207 615 -192 q 511 -222 556 -222 z "},"Ǉ":{"ha":1008,"x_min":-79,"x_max":1015,"o":"m 31 69 l -40 78 q 20 161 0 110 q 51 291 40 213 q 72 481 63 369 q 117 675 83 589 q 203 822 150 761 q 323 916 256 883 q 469 949 390 949 q 577 925 531 949 q 650 860 624 901 q 676 764 676 819 q 660 678 676 717 q 615 618 643 640 q 551 596 588 596 q 522 601 535 596 q 494 615 508 606 q 526 666 514 632 q 538 739 538 700 q 508 833 538 799 q 426 867 479 867 q 340 844 376 867 q 276 776 303 822 q 233 658 250 729 q 206 492 215 588 q 179 331 197 404 q 137 203 161 258 q 85 115 113 149 q 31 69 57 81 m 465 -112 q 347 -88 408 -112 q 222 -31 285 -64 q 99 26 160 1 q -17 50 39 50 q -45 47 -32 50 q -69 42 -58 44 q -76 54 -72 46 q -79 72 -79 63 q -69 103 -79 92 q -42 121 -58 115 q -7 126 -25 126 q 106 110 47 126 q 225 70 165 93 q 344 31 285 47 q 457 14 403 14 q 523 21 490 14 q 586 42 556 28 q 604 22 597 36 q 611 -10 611 7 q 594 -62 611 -39 q 544 -99 576 -85 q 465 -112 511 -112 m 682 -212 q 638 -200 658 -212 q 606 -162 617 -187 q 653 -124 633 -151 q 685 -65 672 -97 q 703 -3 697 -32 q 713 38 710 25 l 881 917 l 1015 917 l 850 72 q 815 -74 835 -10 q 763 -176 794 -139 q 682 -212 732 -212 z "},"Ĺ":{"ha":700,"x_min":-76,"x_max":768,"o":"m 90 65 l -1 90 q 78 185 53 133 q 116 310 104 238 q 138 482 128 382 q 206 730 153 625 q 344 892 260 835 q 535 949 429 949 q 644 924 597 949 q 717 858 690 900 q 742 758 743 815 q 724 676 742 713 q 679 617 707 639 q 617 596 651 596 q 587 601 600 596 q 560 615 574 606 q 590 665 579 632 q 603 735 601 697 q 574 831 604 796 q 492 867 544 867 q 405 844 442 867 q 342 776 368 822 q 298 658 315 729 q 271 492 281 588 q 233 303 261 386 q 167 161 204 221 q 90 65 129 101 m 511 -222 q 393 -197 449 -222 q 285 -135 338 -172 q 183 -62 233 -99 q 83 0 133 -25 q -21 25 32 25 q -52 24 -40 25 q -74 19 -64 22 q -76 32 -75 26 q -76 43 -76 38 q -67 76 -76 63 q -39 96 -57 89 q 6 103 -21 103 q 110 83 58 103 q 212 35 161 64 q 314 -24 263 6 q 417 -74 365 -54 q 521 -93 468 -93 q 581 -85 556 -93 q 624 -69 606 -78 q 641 -94 635 -78 q 647 -126 647 -110 q 631 -169 647 -147 q 585 -207 615 -192 q 511 -222 556 -222 z "},"Ľ":{"ha":728,"x_min":-83,"x_max":797,"o":"m 83 65 l -8 90 q 72 185 46 133 q 109 310 97 238 q 131 482 121 382 q 175 675 142 589 q 261 822 208 761 q 381 916 314 883 q 528 949 449 949 l 518 893 q 412 856 456 883 q 338 779 368 828 q 291 659 308 731 q 264 492 274 588 q 238 346 256 413 q 194 226 219 279 q 141 133 169 174 q 83 65 113 93 m 504 -222 q 386 -197 442 -222 q 278 -135 331 -172 q 176 -62 226 -99 q 76 0 126 -25 q -28 25 25 25 q -59 24 -47 25 q -81 19 -71 22 q -83 32 -82 26 q -83 43 -83 38 q -74 76 -83 63 q -46 96 -64 89 q -1 103 -28 103 q 103 83 51 103 q 205 35 154 64 q 307 -24 256 6 q 410 -74 358 -54 q 514 -93 461 -93 q 574 -85 549 -93 q 617 -69 599 -78 q 634 -94 628 -78 q 640 -126 640 -110 q 624 -169 640 -147 q 578 -207 608 -192 q 504 -222 549 -222 m 638 733 q 620 735 631 733 q 597 740 610 736 q 646 817 625 779 q 667 906 667 854 q 651 971 667 949 q 679 981 665 978 q 713 985 693 985 q 771 963 744 985 q 797 899 797 940 q 772 813 797 850 q 709 754 746 775 q 638 733 672 733 z "},"Ļ":{"ha":714,"x_min":-67,"x_max":783,"o":"m 100 -6 l 15 19 q 84 130 61 60 q 118 294 107 200 q 138 496 129 388 q 178 681 146 597 q 264 824 211 764 q 388 918 317 885 q 543 951 458 951 q 655 931 600 951 q 747 865 710 910 q 783 749 783 821 q 768 661 783 696 q 727 610 753 626 q 667 594 701 594 q 596 624 614 594 q 618 674 610 643 q 626 739 626 704 q 592 836 626 808 q 511 864 557 864 q 413 835 453 864 q 349 761 374 807 q 310 663 324 715 q 289 558 296 610 q 279 469 282 507 q 257 311 272 385 q 219 176 242 238 q 166 69 196 115 q 100 -6 136 24 m 33 -407 q 13 -403 21 -407 q -3 -389 4 -399 q 47 -307 24 -350 q 69 -212 69 -264 q 69 -190 69 -199 q 63 -167 68 -181 q 92 -156 76 -160 q 124 -153 108 -153 q 175 -169 153 -153 q 197 -226 197 -186 q 183 -287 197 -256 q 147 -346 169 -318 q 94 -390 124 -374 q 33 -407 65 -407 m 529 -218 q 394 -191 461 -218 q 263 -128 328 -164 q 132 -65 197 -92 q 0 -37 67 -37 q -35 -40 -24 -37 q -62 -44 -47 -42 q -67 -17 -67 -29 q -54 22 -67 6 q -18 46 -42 38 q 39 54 6 54 q 157 34 93 54 q 287 -12 221 14 q 417 -58 353 -37 q 538 -78 482 -78 q 598 -69 571 -78 q 643 -51 625 -61 q 663 -76 654 -61 q 671 -114 671 -92 q 655 -164 671 -140 q 608 -203 639 -187 q 529 -218 576 -218 z "},"Ŀ":{"ha":700,"x_min":-76,"x_max":743,"o":"m 90 65 l -1 90 q 78 185 53 133 q 116 310 104 238 q 138 482 128 382 q 206 730 153 625 q 344 892 260 835 q 535 949 429 949 q 644 924 597 949 q 717 858 690 900 q 742 758 743 815 q 724 676 742 713 q 679 617 707 639 q 617 596 651 596 q 587 601 600 596 q 560 615 574 606 q 590 665 579 632 q 603 735 601 697 q 574 831 604 796 q 492 867 544 867 q 405 844 442 867 q 342 776 368 822 q 298 658 315 729 q 271 492 281 588 q 233 303 261 386 q 167 161 204 221 q 90 65 129 101 m 511 -222 q 393 -197 449 -222 q 285 -135 338 -172 q 183 -62 233 -99 q 83 0 133 -25 q -21 25 32 25 q -52 24 -40 25 q -74 19 -64 22 q -76 32 -75 26 q -76 43 -76 38 q -67 76 -76 63 q -39 96 -57 89 q 6 103 -21 103 q 110 83 58 103 q 212 35 161 64 q 314 -24 263 6 q 417 -74 365 -54 q 521 -93 468 -93 q 581 -85 556 -93 q 624 -69 606 -78 q 641 -94 635 -78 q 647 -126 647 -110 q 631 -169 647 -147 q 585 -207 615 -192 q 511 -222 556 -222 m 419 342 q 374 357 393 342 q 356 401 356 372 q 389 472 356 450 q 453 494 422 494 q 499 479 479 494 q 518 436 518 464 q 485 365 518 389 q 419 342 451 342 z "},"ǈ":{"ha":975,"x_min":-79,"x_max":1019,"o":"m 31 69 l -40 78 q 20 161 0 110 q 51 291 40 213 q 72 481 63 369 q 117 675 83 589 q 203 822 150 761 q 323 916 256 883 q 469 949 390 949 q 577 925 531 949 q 650 860 624 901 q 676 764 676 819 q 660 678 676 717 q 615 618 643 640 q 551 596 588 596 q 522 601 535 596 q 494 615 508 606 q 526 666 514 632 q 538 739 538 700 q 508 833 538 799 q 426 867 479 867 q 340 844 376 867 q 276 776 303 822 q 233 658 250 729 q 206 492 215 588 q 179 331 197 404 q 137 203 161 258 q 85 115 113 149 q 31 69 57 81 m 465 -112 q 347 -88 408 -112 q 222 -31 285 -64 q 99 26 160 1 q -17 50 39 50 q -45 47 -32 50 q -69 42 -58 44 q -76 54 -72 46 q -79 72 -79 63 q -69 103 -79 92 q -42 121 -58 115 q -7 126 -25 126 q 106 110 47 126 q 225 70 165 93 q 344 31 285 47 q 457 14 403 14 q 523 21 490 14 q 586 42 556 28 q 604 22 597 36 q 611 -10 611 7 q 594 -62 611 -39 q 544 -99 576 -85 q 465 -112 511 -112 m 589 -278 q 531 -258 553 -278 q 506 -203 510 -239 q 594 -166 558 -200 q 655 -58 629 -132 q 704 133 681 15 l 821 708 l 950 722 l 808 24 q 750 -156 786 -90 q 672 -250 714 -222 q 589 -278 631 -278 m 922 833 q 858 853 883 833 q 832 914 832 874 q 860 977 832 957 q 926 997 888 997 q 993 977 967 997 q 1019 917 1019 957 q 991 853 1019 874 q 922 833 963 833 z "},"Ł":{"ha":700,"x_min":-76,"x_max":743,"o":"m 90 65 l -1 90 q 78 185 53 133 q 116 310 104 238 q 138 482 128 382 q 206 730 153 625 q 344 892 260 835 q 535 949 429 949 q 644 924 597 949 q 717 858 690 900 q 742 758 743 815 q 724 676 742 713 q 679 617 707 639 q 617 596 651 596 q 587 601 600 596 q 560 615 574 606 q 590 665 579 632 q 603 735 601 697 q 574 831 604 796 q 492 867 544 867 q 405 844 442 867 q 342 776 368 822 q 298 658 315 729 q 271 492 281 588 q 233 303 261 386 q 167 161 204 221 q 90 65 129 101 m 511 -222 q 393 -197 449 -222 q 285 -135 338 -172 q 183 -62 233 -99 q 83 0 133 -25 q -21 25 32 25 q -52 24 -40 25 q -74 19 -64 22 q -76 32 -75 26 q -76 43 -76 38 q -67 76 -76 63 q -39 96 -57 89 q 6 103 -21 103 q 110 83 58 103 q 212 35 161 64 q 314 -24 263 6 q 417 -74 365 -54 q 521 -93 468 -93 q 581 -85 556 -93 q 624 -69 606 -78 q 641 -94 635 -78 q 647 -126 647 -110 q 631 -169 647 -147 q 585 -207 615 -192 q 511 -222 556 -222 m -51 300 q -70 320 -62 310 q -80 349 -78 331 q -74 390 -83 371 q -39 422 -65 409 l 357 628 q 378 603 371 618 q 386 574 384 588 q 371 524 390 543 q 316 487 352 505 l -51 300 z "},"M":{"ha":1310,"x_min":115,"x_max":1307,"o":"m 696 0 l 611 757 l 596 758 l 533 917 l 707 917 l 782 222 l 786 222 l 1131 914 l 1294 914 l 1158 746 l 771 0 l 696 0 m 229 -31 q 160 -9 186 -31 q 133 43 133 13 q 136 63 133 57 q 216 78 181 64 q 281 126 251 92 q 339 221 311 160 q 397 376 367 282 q 461 603 426 469 q 540 917 496 738 l 625 840 q 524 437 571 597 q 435 182 476 276 q 359 42 394 88 q 292 -17 324 -3 q 229 -31 260 -31 m 229 554 q 169 571 194 554 q 129 620 143 588 q 115 700 115 653 q 134 795 115 749 q 190 878 153 842 q 284 938 228 915 q 417 960 340 960 q 518 951 471 960 q 610 931 565 942 q 703 917 656 921 l 635 856 l 531 869 l 524 882 q 429 893 483 893 q 297 842 344 893 q 250 694 250 792 q 258 627 250 660 q 281 564 267 594 q 255 556 268 558 q 229 554 242 554 m 1179 -219 q 1139 -207 1157 -219 q 1109 -168 1121 -194 q 1091 -100 1097 -142 q 1085 0 1085 -58 q 1091 178 1085 68 q 1114 433 1097 289 q 1163 746 1131 578 l 1154 746 l 1132 914 l 1307 914 q 1274 738 1292 838 q 1240 528 1256 638 q 1213 313 1224 419 q 1203 117 1203 207 q 1217 -62 1203 11 q 1261 -175 1232 -136 q 1239 -199 1251 -189 q 1211 -215 1226 -210 q 1179 -219 1196 -219 z "},"N":{"ha":1139,"x_min":93,"x_max":1367,"o":"m 925 -1 l 853 108 q 935 512 897 342 q 1006 799 972 682 q 1071 991 1039 917 q 1134 1105 1103 1065 q 1197 1159 1165 1144 q 1265 1174 1229 1174 q 1340 1144 1313 1174 q 1367 1076 1367 1115 q 1360 1046 1367 1060 q 1335 1049 1346 1049 q 1267 1034 1297 1049 q 1208 981 1236 1019 q 1153 869 1181 942 q 1092 680 1125 796 q 1018 397 1058 564 q 925 -1 978 229 m 246 -31 q 170 -5 199 -31 q 142 57 142 21 q 143 71 142 65 q 220 82 186 71 q 282 123 254 93 q 335 210 310 153 q 387 362 360 268 q 445 592 414 456 q 515 917 476 728 l 586 810 q 522 467 553 608 q 461 234 490 326 q 404 88 432 142 q 349 8 376 33 q 297 -24 322 -17 q 246 -31 271 -31 m 207 554 q 147 571 172 554 q 107 620 121 588 q 93 700 93 653 q 112 795 93 749 q 168 878 131 842 q 262 938 206 915 q 394 960 318 960 q 496 951 449 960 q 588 931 543 942 q 681 917 633 921 l 613 856 l 508 869 l 501 882 q 407 893 461 893 q 275 842 322 893 q 228 694 228 792 q 236 627 228 660 q 258 564 244 594 q 233 556 246 558 q 207 554 219 554 m 872 -12 q 838 -3 853 -12 q 811 24 822 6 q 792 74 800 43 l 593 771 l 515 917 l 681 917 l 879 183 l 925 -1 q 898 -10 913 -7 q 872 -12 883 -12 z "},"Ǌ":{"ha":1478,"x_min":93,"x_max":1485,"o":"m 925 -1 l 853 108 q 935 512 897 342 q 1006 799 972 682 q 1071 991 1039 917 q 1134 1105 1103 1065 q 1197 1159 1165 1144 q 1265 1174 1229 1174 q 1340 1144 1313 1174 q 1367 1076 1367 1115 q 1360 1046 1367 1060 q 1335 1049 1346 1049 q 1267 1034 1297 1049 q 1208 981 1236 1019 q 1153 869 1181 942 q 1092 680 1125 796 q 1018 397 1058 564 q 925 -1 978 229 m 246 -31 q 170 -5 199 -31 q 142 57 142 21 q 143 71 142 65 q 220 82 186 71 q 282 123 254 93 q 335 210 310 153 q 387 362 360 268 q 445 592 414 456 q 515 917 476 728 l 586 810 q 522 467 553 608 q 461 234 490 326 q 404 88 432 142 q 349 8 376 33 q 297 -24 322 -17 q 246 -31 271 -31 m 207 554 q 147 571 172 554 q 107 620 121 588 q 93 700 93 653 q 112 795 93 749 q 168 878 131 842 q 262 938 206 915 q 394 960 318 960 q 496 951 449 960 q 588 931 543 942 q 681 917 633 921 l 613 856 l 508 869 l 501 882 q 407 893 461 893 q 275 842 322 893 q 228 694 228 792 q 236 627 228 660 q 258 564 244 594 q 233 556 246 558 q 207 554 219 554 m 872 -12 q 838 -3 853 -12 q 811 24 822 6 q 792 74 800 43 l 593 771 l 515 917 l 681 917 l 879 183 l 925 -1 q 898 -10 913 -7 q 872 -12 883 -12 m 1151 -212 q 1107 -200 1128 -212 q 1075 -162 1086 -187 q 1122 -124 1103 -151 q 1154 -65 1142 -97 q 1173 -3 1167 -32 q 1182 38 1179 25 l 1350 917 l 1485 917 l 1319 72 q 1284 -74 1304 -10 q 1233 -176 1264 -139 q 1151 -212 1201 -212 z "},"Ń":{"ha":1139,"x_min":93,"x_max":1367,"o":"m 925 -1 l 853 108 q 935 512 897 342 q 1006 799 972 682 q 1071 991 1039 917 q 1134 1105 1103 1065 q 1197 1159 1165 1144 q 1265 1174 1229 1174 q 1340 1144 1313 1174 q 1367 1076 1367 1115 q 1360 1046 1367 1060 q 1335 1049 1346 1049 q 1267 1034 1297 1049 q 1208 981 1236 1019 q 1153 869 1181 942 q 1092 680 1125 796 q 1018 397 1058 564 q 925 -1 978 229 m 246 -31 q 170 -5 199 -31 q 142 57 142 21 q 143 71 142 65 q 220 82 186 71 q 282 123 254 93 q 335 210 310 153 q 387 362 360 268 q 445 592 414 456 q 515 917 476 728 l 586 810 q 522 467 553 608 q 461 234 490 326 q 404 88 432 142 q 349 8 376 33 q 297 -24 322 -17 q 246 -31 271 -31 m 207 554 q 147 571 172 554 q 107 620 121 588 q 93 700 93 653 q 112 795 93 749 q 168 878 131 842 q 262 938 206 915 q 394 960 318 960 q 496 951 449 960 q 588 931 543 942 q 681 917 633 921 l 613 856 l 508 869 l 501 882 q 407 893 461 893 q 275 842 322 893 q 228 694 228 792 q 236 627 228 660 q 258 564 244 594 q 233 556 246 558 q 207 554 219 554 m 872 -12 q 838 -3 853 -12 q 811 24 822 6 q 792 74 800 43 l 593 771 l 515 917 l 681 917 l 879 183 l 925 -1 q 898 -10 913 -7 q 872 -12 883 -12 z "},"Ň":{"ha":1139,"x_min":93,"x_max":1367,"o":"m 925 -1 l 853 108 q 935 512 897 342 q 1006 799 972 682 q 1071 991 1039 917 q 1134 1105 1103 1065 q 1197 1159 1165 1144 q 1265 1174 1229 1174 q 1340 1144 1313 1174 q 1367 1076 1367 1115 q 1360 1046 1367 1060 q 1335 1049 1346 1049 q 1267 1034 1297 1049 q 1208 981 1236 1019 q 1153 869 1181 942 q 1092 680 1125 796 q 1018 397 1058 564 q 925 -1 978 229 m 246 -31 q 170 -5 199 -31 q 142 57 142 21 q 143 71 142 65 q 220 82 186 71 q 282 123 254 93 q 335 210 310 153 q 387 362 360 268 q 445 592 414 456 q 515 917 476 728 l 586 810 q 522 467 553 608 q 461 234 490 326 q 404 88 432 142 q 349 8 376 33 q 297 -24 322 -17 q 246 -31 271 -31 m 207 554 q 147 571 172 554 q 107 620 121 588 q 93 700 93 653 q 112 795 93 749 q 168 878 131 842 q 262 938 206 915 q 394 960 318 960 q 496 951 449 960 q 588 931 543 942 q 681 917 633 921 l 613 856 l 508 869 l 501 882 q 407 893 461 893 q 275 842 322 893 q 228 694 228 792 q 236 627 228 660 q 258 564 244 594 q 233 556 246 558 q 207 554 219 554 m 872 -12 q 838 -3 853 -12 q 811 24 822 6 q 792 74 800 43 l 593 771 l 515 917 l 681 917 l 879 183 l 925 -1 q 898 -10 913 -7 q 872 -12 883 -12 z "},"Ņ":{"ha":1139,"x_min":93,"x_max":1367,"o":"m 925 -1 l 853 108 q 935 512 897 342 q 1006 799 972 682 q 1071 991 1039 917 q 1134 1105 1103 1065 q 1197 1159 1165 1144 q 1265 1174 1229 1174 q 1340 1144 1313 1174 q 1367 1076 1367 1115 q 1360 1046 1367 1060 q 1335 1049 1346 1049 q 1267 1034 1297 1049 q 1208 981 1236 1019 q 1153 869 1181 942 q 1092 680 1125 796 q 1018 397 1058 564 q 925 -1 978 229 m 246 -31 q 170 -5 199 -31 q 142 57 142 21 q 143 71 142 65 q 220 82 186 71 q 282 123 254 93 q 335 210 310 153 q 387 362 360 268 q 445 592 414 456 q 515 917 476 728 l 586 810 q 522 467 553 608 q 461 234 490 326 q 404 88 432 142 q 349 8 376 33 q 297 -24 322 -17 q 246 -31 271 -31 m 207 554 q 147 571 172 554 q 107 620 121 588 q 93 700 93 653 q 112 795 93 749 q 168 878 131 842 q 262 938 206 915 q 394 960 318 960 q 496 951 449 960 q 588 931 543 942 q 681 917 633 921 l 613 856 l 508 869 l 501 882 q 407 893 461 893 q 275 842 322 893 q 228 694 228 792 q 236 627 228 660 q 258 564 244 594 q 233 556 246 558 q 207 554 219 554 m 872 -12 q 838 -3 853 -12 q 811 24 822 6 q 792 74 800 43 l 593 771 l 515 917 l 681 917 l 879 183 l 925 -1 q 898 -10 913 -7 q 872 -12 883 -12 z "},"Ŋ":{"ha":1167,"x_min":90,"x_max":1374,"o":"m 932 0 l 847 108 q 928 511 890 342 q 999 798 965 681 q 1065 990 1033 915 q 1129 1104 1097 1064 q 1194 1159 1161 1144 q 1265 1174 1228 1174 q 1345 1144 1317 1174 q 1374 1076 1374 1114 q 1365 1043 1374 1060 q 1351 1047 1360 1046 q 1335 1049 1343 1049 q 1254 1022 1290 1049 q 1185 930 1218 996 q 1117 746 1153 864 q 1036 444 1081 628 q 932 0 992 261 m 779 -212 q 731 -200 756 -212 q 692 -162 706 -187 q 748 -124 725 -151 q 785 -60 771 -96 q 808 10 799 -25 q 824 72 818 46 l 947 71 q 910 -76 931 -12 q 860 -176 890 -140 q 779 -212 829 -212 m 246 -31 q 165 -4 194 -31 q 135 58 135 22 q 135 65 135 61 q 136 71 136 68 q 219 83 183 71 q 282 128 254 96 q 335 221 310 161 q 385 374 360 281 q 440 601 410 468 q 507 917 469 735 l 593 808 q 528 467 560 608 q 467 234 497 326 q 409 88 438 142 q 353 9 381 35 q 299 -24 325 -17 q 246 -31 272 -31 m 219 551 q 153 569 183 551 q 107 620 124 586 q 90 704 90 654 q 108 801 90 754 q 163 884 126 847 q 256 942 200 921 q 386 963 311 963 q 488 953 443 963 q 577 933 532 944 q 681 917 622 922 l 613 851 l 499 876 l 492 886 q 449 893 472 890 q 403 896 426 896 q 281 847 322 896 q 239 710 239 797 q 249 633 239 671 q 278 564 260 596 q 249 555 264 558 q 219 551 235 551 m 811 -35 l 586 771 l 510 917 l 681 917 l 886 183 l 932 0 l 811 -35 z "},"Ɲ":{"ha":1163,"x_min":90,"x_max":1374,"o":"m 932 0 l 847 108 q 928 511 890 342 q 999 798 965 681 q 1065 990 1033 915 q 1129 1104 1097 1064 q 1194 1159 1161 1144 q 1265 1174 1228 1174 q 1345 1144 1317 1174 q 1374 1076 1374 1114 q 1365 1043 1374 1060 q 1351 1047 1360 1046 q 1335 1049 1343 1049 q 1254 1022 1290 1049 q 1185 930 1218 996 q 1117 746 1153 864 q 1036 444 1081 628 q 932 0 992 261 m 275 -212 q 240 -206 260 -212 q 204 -181 219 -199 q 186 -133 189 -164 q 256 -88 226 -126 q 306 38 286 -50 l 501 917 l 596 814 l 415 -35 q 395 -109 407 -76 q 367 -165 383 -142 q 329 -201 351 -189 q 275 -212 307 -212 m 219 551 q 153 569 183 551 q 107 620 124 586 q 90 704 90 654 q 108 801 90 754 q 163 884 126 847 q 256 942 200 921 q 386 963 311 963 q 488 953 443 963 q 577 933 532 944 q 681 917 622 922 l 613 851 l 493 876 l 486 886 q 447 894 467 892 q 403 896 426 896 q 281 847 322 896 q 239 710 239 797 q 249 633 239 671 q 278 564 260 596 q 249 555 264 558 q 219 551 235 551 m 872 -12 q 836 -5 853 -12 q 807 22 819 3 q 785 74 794 40 l 586 771 l 510 917 l 681 917 l 886 183 l 932 0 q 904 -9 921 -6 q 872 -12 888 -12 z "},"ǋ":{"ha":1503,"x_min":93,"x_max":1517,"o":"m 925 -1 l 851 86 q 949 495 897 328 q 1058 769 1001 663 q 1170 934 1114 875 q 1280 1015 1226 993 q 1379 1038 1333 1038 q 1485 1002 1453 1038 q 1517 929 1517 967 q 1506 881 1517 903 q 1476 847 1496 858 q 1434 881 1460 868 q 1367 894 1408 894 q 1294 877 1332 894 q 1215 809 1256 860 q 1128 660 1174 758 q 1032 400 1082 561 q 925 -1 982 239 m 246 -31 q 170 -5 199 -31 q 142 57 142 21 q 143 71 142 65 q 220 82 186 71 q 282 123 254 93 q 335 210 310 153 q 387 362 360 268 q 445 592 414 456 q 515 917 476 728 l 586 810 q 522 467 553 608 q 461 234 490 326 q 404 88 432 142 q 349 8 376 33 q 297 -24 322 -17 q 246 -31 271 -31 m 207 554 q 147 571 172 554 q 107 620 121 588 q 93 700 93 653 q 112 795 93 749 q 168 878 131 842 q 262 938 206 915 q 394 960 318 960 q 496 951 449 960 q 588 931 543 942 q 681 917 633 921 l 613 856 l 508 869 l 501 882 q 407 893 461 893 q 275 842 322 893 q 228 694 228 792 q 236 627 228 660 q 258 564 244 594 q 233 556 246 558 q 207 554 219 554 m 872 -12 q 838 -3 853 -12 q 811 24 822 6 q 792 74 800 43 l 593 771 l 515 917 l 681 917 l 879 183 l 925 -1 q 898 -10 913 -7 q 872 -12 883 -12 m 1086 -278 q 1028 -258 1050 -278 q 1003 -203 1007 -239 q 1091 -166 1056 -200 q 1152 -58 1126 -132 q 1201 133 1178 15 l 1318 708 l 1447 722 l 1306 24 q 1247 -156 1283 -90 q 1169 -250 1211 -222 q 1086 -278 1128 -278 z "},"Ñ":{"ha":1139,"x_min":93,"x_max":1367,"o":"m 925 -1 l 853 108 q 935 512 897 342 q 1006 799 972 682 q 1071 991 1039 917 q 1134 1105 1103 1065 q 1197 1159 1165 1144 q 1265 1174 1229 1174 q 1340 1144 1313 1174 q 1367 1076 1367 1115 q 1360 1046 1367 1060 q 1335 1049 1346 1049 q 1267 1034 1297 1049 q 1208 981 1236 1019 q 1153 869 1181 942 q 1092 680 1125 796 q 1018 397 1058 564 q 925 -1 978 229 m 246 -31 q 170 -5 199 -31 q 142 57 142 21 q 143 71 142 65 q 220 82 186 71 q 282 123 254 93 q 335 210 310 153 q 387 362 360 268 q 445 592 414 456 q 515 917 476 728 l 586 810 q 522 467 553 608 q 461 234 490 326 q 404 88 432 142 q 349 8 376 33 q 297 -24 322 -17 q 246 -31 271 -31 m 207 554 q 147 571 172 554 q 107 620 121 588 q 93 700 93 653 q 112 795 93 749 q 168 878 131 842 q 262 938 206 915 q 394 960 318 960 q 496 951 449 960 q 588 931 543 942 q 681 917 633 921 l 613 856 l 508 869 l 501 882 q 407 893 461 893 q 275 842 322 893 q 228 694 228 792 q 236 627 228 660 q 258 564 244 594 q 233 556 246 558 q 207 554 219 554 m 872 -12 q 838 -3 853 -12 q 811 24 822 6 q 792 74 800 43 l 593 771 l 515 917 l 681 917 l 879 183 l 925 -1 q 898 -10 913 -7 q 872 -12 883 -12 z "},"O":{"ha":810,"x_min":61,"x_max":792,"o":"m 319 -31 q 124 49 188 -31 q 61 292 61 128 q 79 483 61 386 q 133 667 97 579 q 221 824 169 756 q 339 933 272 893 q 486 972 406 972 q 513 971 501 972 q 533 967 524 969 l 533 958 q 385 897 446 946 q 287 776 325 849 q 228 621 249 704 q 199 455 207 538 q 192 303 192 372 q 233 128 192 186 q 354 69 274 69 q 464 106 415 69 q 549 206 513 143 q 609 344 585 268 q 646 501 633 421 q 658 653 658 581 q 639 781 658 739 q 575 822 619 822 q 519 803 542 822 q 483 749 496 785 q 471 663 471 714 q 485 577 471 606 q 519 525 499 549 q 490 506 504 511 q 456 500 475 500 q 383 538 411 500 q 354 636 354 575 q 375 741 354 690 q 431 831 396 792 q 512 894 467 871 q 606 917 557 917 q 708 884 667 917 q 770 789 749 851 q 792 633 792 726 q 772 449 792 543 q 713 269 751 356 q 617 116 674 183 q 485 9 560 49 q 319 -31 410 -31 z "},"Ó":{"ha":810,"x_min":61,"x_max":792,"o":"m 319 -31 q 124 49 188 -31 q 61 292 61 128 q 79 483 61 386 q 133 667 97 579 q 221 824 169 756 q 339 933 272 893 q 486 972 406 972 q 513 971 501 972 q 533 967 524 969 l 533 958 q 385 897 446 946 q 287 776 325 849 q 228 621 249 704 q 199 455 207 538 q 192 303 192 372 q 233 128 192 186 q 354 69 274 69 q 464 106 415 69 q 549 206 513 143 q 609 344 585 268 q 646 501 633 421 q 658 653 658 581 q 639 781 658 739 q 575 822 619 822 q 519 803 542 822 q 483 749 496 785 q 471 663 471 714 q 485 577 471 606 q 519 525 499 549 q 490 506 504 511 q 456 500 475 500 q 383 538 411 500 q 354 636 354 575 q 375 741 354 690 q 431 831 396 792 q 512 894 467 871 q 606 917 557 917 q 708 884 667 917 q 770 789 749 851 q 792 633 792 726 q 772 449 792 543 q 713 269 751 356 q 617 116 674 183 q 485 9 560 49 q 319 -31 410 -31 z "},"Ŏ":{"ha":810,"x_min":61,"x_max":792,"o":"m 319 -31 q 124 49 188 -31 q 61 292 61 128 q 79 483 61 386 q 133 667 97 579 q 221 824 169 756 q 339 933 272 893 q 486 972 406 972 q 513 971 501 972 q 533 967 524 969 l 533 958 q 385 897 446 946 q 287 776 325 849 q 228 621 249 704 q 199 455 207 538 q 192 303 192 372 q 233 128 192 186 q 354 69 274 69 q 464 106 415 69 q 549 206 513 143 q 609 344 585 268 q 646 501 633 421 q 658 653 658 581 q 639 781 658 739 q 575 822 619 822 q 519 803 542 822 q 483 749 496 785 q 471 663 471 714 q 485 577 471 606 q 519 525 499 549 q 490 506 504 511 q 456 500 475 500 q 383 538 411 500 q 354 636 354 575 q 375 741 354 690 q 431 831 396 792 q 512 894 467 871 q 606 917 557 917 q 708 884 667 917 q 770 789 749 851 q 792 633 792 726 q 772 449 792 543 q 713 269 751 356 q 617 116 674 183 q 485 9 560 49 q 319 -31 410 -31 z "},"Ǒ":{"ha":810,"x_min":61,"x_max":792,"o":"m 319 -31 q 124 49 188 -31 q 61 292 61 128 q 79 483 61 386 q 133 667 97 579 q 221 824 169 756 q 339 933 272 893 q 486 972 406 972 q 513 971 501 972 q 533 967 524 969 l 533 958 q 385 897 446 946 q 287 776 325 849 q 228 621 249 704 q 199 455 207 538 q 192 303 192 372 q 233 128 192 186 q 354 69 274 69 q 464 106 415 69 q 549 206 513 143 q 609 344 585 268 q 646 501 633 421 q 658 653 658 581 q 639 781 658 739 q 575 822 619 822 q 519 803 542 822 q 483 749 496 785 q 471 663 471 714 q 485 577 471 606 q 519 525 499 549 q 490 506 504 511 q 456 500 475 500 q 383 538 411 500 q 354 636 354 575 q 375 741 354 690 q 431 831 396 792 q 512 894 467 871 q 606 917 557 917 q 708 884 667 917 q 770 789 749 851 q 792 633 792 726 q 772 449 792 543 q 713 269 751 356 q 617 116 674 183 q 485 9 560 49 q 319 -31 410 -31 z "},"Ô":{"ha":810,"x_min":61,"x_max":792,"o":"m 319 -31 q 124 49 188 -31 q 61 292 61 128 q 79 483 61 386 q 133 667 97 579 q 221 824 169 756 q 339 933 272 893 q 486 972 406 972 q 513 971 501 972 q 533 967 524 969 l 533 958 q 385 897 446 946 q 287 776 325 849 q 228 621 249 704 q 199 455 207 538 q 192 303 192 372 q 233 128 192 186 q 354 69 274 69 q 464 106 415 69 q 549 206 513 143 q 609 344 585 268 q 646 501 633 421 q 658 653 658 581 q 639 781 658 739 q 575 822 619 822 q 519 803 542 822 q 483 749 496 785 q 471 663 471 714 q 485 577 471 606 q 519 525 499 549 q 490 506 504 511 q 456 500 475 500 q 383 538 411 500 q 354 636 354 575 q 375 741 354 690 q 431 831 396 792 q 512 894 467 871 q 606 917 557 917 q 708 884 667 917 q 770 789 749 851 q 792 633 792 726 q 772 449 792 543 q 713 269 751 356 q 617 116 674 183 q 485 9 560 49 q 319 -31 410 -31 z "},"Ố":{"ha":810,"x_min":61,"x_max":792,"o":"m 319 -31 q 124 49 188 -31 q 61 292 61 128 q 79 483 61 386 q 133 667 97 579 q 221 824 169 756 q 339 933 272 893 q 486 972 406 972 q 513 971 501 972 q 533 967 524 969 l 533 958 q 385 897 446 946 q 287 776 325 849 q 228 621 249 704 q 199 455 207 538 q 192 303 192 372 q 233 128 192 186 q 354 69 274 69 q 464 106 415 69 q 549 206 513 143 q 609 344 585 268 q 646 501 633 421 q 658 653 658 581 q 639 781 658 739 q 575 822 619 822 q 519 803 542 822 q 483 749 496 785 q 471 663 471 714 q 485 577 471 606 q 519 525 499 549 q 490 506 504 511 q 456 500 475 500 q 383 538 411 500 q 354 636 354 575 q 375 741 354 690 q 431 831 396 792 q 512 894 467 871 q 606 917 557 917 q 708 884 667 917 q 770 789 749 851 q 792 633 792 726 q 772 449 792 543 q 713 269 751 356 q 617 116 674 183 q 485 9 560 49 q 319 -31 410 -31 z "},"Ộ":{"ha":810,"x_min":61,"x_max":792,"o":"m 319 -31 q 124 49 188 -31 q 61 292 61 128 q 79 483 61 386 q 133 667 97 579 q 221 824 169 756 q 339 933 272 893 q 486 972 406 972 q 513 971 501 972 q 533 967 524 969 l 533 958 q 385 897 446 946 q 287 776 325 849 q 228 621 249 704 q 199 455 207 538 q 192 303 192 372 q 233 128 192 186 q 354 69 274 69 q 464 106 415 69 q 549 206 513 143 q 609 344 585 268 q 646 501 633 421 q 658 653 658 581 q 639 781 658 739 q 575 822 619 822 q 519 803 542 822 q 483 749 496 785 q 471 663 471 714 q 485 577 471 606 q 519 525 499 549 q 490 506 504 511 q 456 500 475 500 q 383 538 411 500 q 354 636 354 575 q 375 741 354 690 q 431 831 396 792 q 512 894 467 871 q 606 917 557 917 q 708 884 667 917 q 770 789 749 851 q 792 633 792 726 q 772 449 792 543 q 713 269 751 356 q 617 116 674 183 q 485 9 560 49 q 319 -31 410 -31 z "},"Ồ":{"ha":810,"x_min":61,"x_max":792,"o":"m 319 -31 q 124 49 188 -31 q 61 292 61 128 q 79 483 61 386 q 133 667 97 579 q 221 824 169 756 q 339 933 272 893 q 486 972 406 972 q 513 971 501 972 q 533 967 524 969 l 533 958 q 385 897 446 946 q 287 776 325 849 q 228 621 249 704 q 199 455 207 538 q 192 303 192 372 q 233 128 192 186 q 354 69 274 69 q 464 106 415 69 q 549 206 513 143 q 609 344 585 268 q 646 501 633 421 q 658 653 658 581 q 639 781 658 739 q 575 822 619 822 q 519 803 542 822 q 483 749 496 785 q 471 663 471 714 q 485 577 471 606 q 519 525 499 549 q 490 506 504 511 q 456 500 475 500 q 383 538 411 500 q 354 636 354 575 q 375 741 354 690 q 431 831 396 792 q 512 894 467 871 q 606 917 557 917 q 708 884 667 917 q 770 789 749 851 q 792 633 792 726 q 772 449 792 543 q 713 269 751 356 q 617 116 674 183 q 485 9 560 49 q 319 -31 410 -31 z "},"Ổ":{"ha":810,"x_min":61,"x_max":792,"o":"m 319 -31 q 124 49 188 -31 q 61 292 61 128 q 79 483 61 386 q 133 667 97 579 q 221 824 169 756 q 339 933 272 893 q 486 972 406 972 q 513 971 501 972 q 533 967 524 969 l 533 958 q 385 897 446 946 q 287 776 325 849 q 228 621 249 704 q 199 455 207 538 q 192 303 192 372 q 233 128 192 186 q 354 69 274 69 q 464 106 415 69 q 549 206 513 143 q 609 344 585 268 q 646 501 633 421 q 658 653 658 581 q 639 781 658 739 q 575 822 619 822 q 519 803 542 822 q 483 749 496 785 q 471 663 471 714 q 485 577 471 606 q 519 525 499 549 q 490 506 504 511 q 456 500 475 500 q 383 538 411 500 q 354 636 354 575 q 375 741 354 690 q 431 831 396 792 q 512 894 467 871 q 606 917 557 917 q 708 884 667 917 q 770 789 749 851 q 792 633 792 726 q 772 449 792 543 q 713 269 751 356 q 617 116 674 183 q 485 9 560 49 q 319 -31 410 -31 z "},"Ỗ":{"ha":810,"x_min":61,"x_max":792,"o":"m 319 -31 q 124 49 188 -31 q 61 292 61 128 q 79 483 61 386 q 133 667 97 579 q 221 824 169 756 q 339 933 272 893 q 486 972 406 972 q 513 971 501 972 q 533 967 524 969 l 533 958 q 385 897 446 946 q 287 776 325 849 q 228 621 249 704 q 199 455 207 538 q 192 303 192 372 q 233 128 192 186 q 354 69 274 69 q 464 106 415 69 q 549 206 513 143 q 609 344 585 268 q 646 501 633 421 q 658 653 658 581 q 639 781 658 739 q 575 822 619 822 q 519 803 542 822 q 483 749 496 785 q 471 663 471 714 q 485 577 471 606 q 519 525 499 549 q 490 506 504 511 q 456 500 475 500 q 383 538 411 500 q 354 636 354 575 q 375 741 354 690 q 431 831 396 792 q 512 894 467 871 q 606 917 557 917 q 708 884 667 917 q 770 789 749 851 q 792 633 792 726 q 772 449 792 543 q 713 269 751 356 q 617 116 674 183 q 485 9 560 49 q 319 -31 410 -31 z "},"Ȍ":{"ha":810,"x_min":61,"x_max":792,"o":"m 319 -31 q 124 49 188 -31 q 61 292 61 128 q 79 483 61 386 q 133 667 97 579 q 221 824 169 756 q 339 933 272 893 q 486 972 406 972 q 513 971 501 972 q 533 967 524 969 l 533 958 q 385 897 446 946 q 287 776 325 849 q 228 621 249 704 q 199 455 207 538 q 192 303 192 372 q 233 128 192 186 q 354 69 274 69 q 464 106 415 69 q 549 206 513 143 q 609 344 585 268 q 646 501 633 421 q 658 653 658 581 q 639 781 658 739 q 575 822 619 822 q 519 803 542 822 q 483 749 496 785 q 471 663 471 714 q 485 577 471 606 q 519 525 499 549 q 490 506 504 511 q 456 500 475 500 q 383 538 411 500 q 354 636 354 575 q 375 741 354 690 q 431 831 396 792 q 512 894 467 871 q 606 917 557 917 q 708 884 667 917 q 770 789 749 851 q 792 633 792 726 q 772 449 792 543 q 713 269 751 356 q 617 116 674 183 q 485 9 560 49 q 319 -31 410 -31 z "},"Ö":{"ha":810,"x_min":61,"x_max":792,"o":"m 319 -31 q 124 49 188 -31 q 61 292 61 128 q 79 483 61 386 q 133 667 97 579 q 221 824 169 756 q 339 933 272 893 q 486 972 406 972 q 513 971 501 972 q 533 967 524 969 l 533 958 q 385 897 446 946 q 287 776 325 849 q 228 621 249 704 q 199 455 207 538 q 192 303 192 372 q 233 128 192 186 q 354 69 274 69 q 464 106 415 69 q 549 206 513 143 q 609 344 585 268 q 646 501 633 421 q 658 653 658 581 q 639 781 658 739 q 575 822 619 822 q 519 803 542 822 q 483 749 496 785 q 471 663 471 714 q 485 577 471 606 q 519 525 499 549 q 490 506 504 511 q 456 500 475 500 q 383 538 411 500 q 354 636 354 575 q 375 741 354 690 q 431 831 396 792 q 512 894 467 871 q 606 917 557 917 q 708 884 667 917 q 770 789 749 851 q 792 633 792 726 q 772 449 792 543 q 713 269 751 356 q 617 116 674 183 q 485 9 560 49 q 319 -31 410 -31 z "},"Ȫ":{"ha":810,"x_min":61,"x_max":792,"o":"m 319 -31 q 124 49 188 -31 q 61 292 61 128 q 79 483 61 386 q 133 667 97 579 q 221 824 169 756 q 339 933 272 893 q 486 972 406 972 q 513 971 501 972 q 533 967 524 969 l 533 958 q 385 897 446 946 q 287 776 325 849 q 228 621 249 704 q 199 455 207 538 q 192 303 192 372 q 233 128 192 186 q 354 69 274 69 q 464 106 415 69 q 549 206 513 143 q 609 344 585 268 q 646 501 633 421 q 658 653 658 581 q 639 781 658 739 q 575 822 619 822 q 519 803 542 822 q 483 749 496 785 q 471 663 471 714 q 485 577 471 606 q 519 525 499 549 q 490 506 504 511 q 456 500 475 500 q 383 538 411 500 q 354 636 354 575 q 375 741 354 690 q 431 831 396 792 q 512 894 467 871 q 606 917 557 917 q 708 884 667 917 q 770 789 749 851 q 792 633 792 726 q 772 449 792 543 q 713 269 751 356 q 617 116 674 183 q 485 9 560 49 q 319 -31 410 -31 z "},"Ȱ":{"ha":810,"x_min":61,"x_max":792,"o":"m 319 -31 q 124 49 188 -31 q 61 292 61 128 q 79 483 61 386 q 133 667 97 579 q 221 824 169 756 q 339 933 272 893 q 486 972 406 972 q 513 971 501 972 q 533 967 524 969 l 533 958 q 385 897 446 946 q 287 776 325 849 q 228 621 249 704 q 199 455 207 538 q 192 303 192 372 q 233 128 192 186 q 354 69 274 69 q 464 106 415 69 q 549 206 513 143 q 609 344 585 268 q 646 501 633 421 q 658 653 658 581 q 639 781 658 739 q 575 822 619 822 q 519 803 542 822 q 483 749 496 785 q 471 663 471 714 q 485 577 471 606 q 519 525 499 549 q 490 506 504 511 q 456 500 475 500 q 383 538 411 500 q 354 636 354 575 q 375 741 354 690 q 431 831 396 792 q 512 894 467 871 q 606 917 557 917 q 708 884 667 917 q 770 789 749 851 q 792 633 792 726 q 772 449 792 543 q 713 269 751 356 q 617 116 674 183 q 485 9 560 49 q 319 -31 410 -31 z "},"Ọ":{"ha":810,"x_min":61,"x_max":792,"o":"m 319 -31 q 124 49 188 -31 q 61 292 61 128 q 79 483 61 386 q 133 667 97 579 q 221 824 169 756 q 339 933 272 893 q 486 972 406 972 q 513 971 501 972 q 533 967 524 969 l 533 958 q 385 897 446 946 q 287 776 325 849 q 228 621 249 704 q 199 455 207 538 q 192 303 192 372 q 233 128 192 186 q 354 69 274 69 q 464 106 415 69 q 549 206 513 143 q 609 344 585 268 q 646 501 633 421 q 658 653 658 581 q 639 781 658 739 q 575 822 619 822 q 519 803 542 822 q 483 749 496 785 q 471 663 471 714 q 485 577 471 606 q 519 525 499 549 q 490 506 504 511 q 456 500 475 500 q 383 538 411 500 q 354 636 354 575 q 375 741 354 690 q 431 831 396 792 q 512 894 467 871 q 606 917 557 917 q 708 884 667 917 q 770 789 749 851 q 792 633 792 726 q 772 449 792 543 q 713 269 751 356 q 617 116 674 183 q 485 9 560 49 q 319 -31 410 -31 z "},"Ò":{"ha":810,"x_min":61,"x_max":792,"o":"m 319 -31 q 124 49 188 -31 q 61 292 61 128 q 79 483 61 386 q 133 667 97 579 q 221 824 169 756 q 339 933 272 893 q 486 972 406 972 q 513 971 501 972 q 533 967 524 969 l 533 958 q 385 897 446 946 q 287 776 325 849 q 228 621 249 704 q 199 455 207 538 q 192 303 192 372 q 233 128 192 186 q 354 69 274 69 q 464 106 415 69 q 549 206 513 143 q 609 344 585 268 q 646 501 633 421 q 658 653 658 581 q 639 781 658 739 q 575 822 619 822 q 519 803 542 822 q 483 749 496 785 q 471 663 471 714 q 485 577 471 606 q 519 525 499 549 q 490 506 504 511 q 456 500 475 500 q 383 538 411 500 q 354 636 354 575 q 375 741 354 690 q 431 831 396 792 q 512 894 467 871 q 606 917 557 917 q 708 884 667 917 q 770 789 749 851 q 792 633 792 726 q 772 449 792 543 q 713 269 751 356 q 617 116 674 183 q 485 9 560 49 q 319 -31 410 -31 z "},"Ỏ":{"ha":810,"x_min":61,"x_max":792,"o":"m 319 -31 q 124 49 188 -31 q 61 292 61 128 q 79 483 61 386 q 133 667 97 579 q 221 824 169 756 q 339 933 272 893 q 486 972 406 972 q 513 971 501 972 q 533 967 524 969 l 533 958 q 385 897 446 946 q 287 776 325 849 q 228 621 249 704 q 199 455 207 538 q 192 303 192 372 q 233 128 192 186 q 354 69 274 69 q 464 106 415 69 q 549 206 513 143 q 609 344 585 268 q 646 501 633 421 q 658 653 658 581 q 639 781 658 739 q 575 822 619 822 q 519 803 542 822 q 483 749 496 785 q 471 663 471 714 q 485 577 471 606 q 519 525 499 549 q 490 506 504 511 q 456 500 475 500 q 383 538 411 500 q 354 636 354 575 q 375 741 354 690 q 431 831 396 792 q 512 894 467 871 q 606 917 557 917 q 708 884 667 917 q 770 789 749 851 q 792 633 792 726 q 772 449 792 543 q 713 269 751 356 q 617 116 674 183 q 485 9 560 49 q 319 -31 410 -31 z "},"Ơ":{"ha":810,"x_min":61,"x_max":925,"o":"m 319 -31 q 124 49 188 -31 q 61 292 61 128 q 79 483 61 386 q 133 667 97 579 q 221 824 169 756 q 339 933 272 893 q 486 972 406 972 q 513 971 501 972 q 533 967 524 969 l 533 958 q 385 897 446 946 q 287 776 325 849 q 228 621 249 704 q 199 455 207 538 q 192 303 192 372 q 233 128 192 186 q 354 69 274 69 q 464 106 415 69 q 549 206 513 143 q 609 344 585 268 q 646 501 633 421 q 658 653 658 581 q 639 781 658 739 q 575 822 619 822 q 519 803 542 822 q 483 749 496 785 q 471 663 471 714 q 485 577 471 606 q 519 525 499 549 q 490 506 504 511 q 456 500 475 500 q 383 538 411 500 q 354 636 354 575 q 375 741 354 690 q 431 831 396 792 q 512 894 467 871 q 606 917 557 917 q 708 884 667 917 q 770 789 749 851 q 792 633 792 726 q 772 449 792 543 q 713 269 751 356 q 617 116 674 183 q 485 9 560 49 q 319 -31 410 -31 z "},"Ớ":{"ha":810,"x_min":61,"x_max":925,"o":"m 319 -31 q 124 49 188 -31 q 61 292 61 128 q 79 483 61 386 q 133 667 97 579 q 221 824 169 756 q 339 933 272 893 q 486 972 406 972 q 513 971 501 972 q 533 967 524 969 l 533 958 q 385 897 446 946 q 287 776 325 849 q 228 621 249 704 q 199 455 207 538 q 192 303 192 372 q 233 128 192 186 q 354 69 274 69 q 464 106 415 69 q 549 206 513 143 q 609 344 585 268 q 646 501 633 421 q 658 653 658 581 q 639 781 658 739 q 575 822 619 822 q 519 803 542 822 q 483 749 496 785 q 471 663 471 714 q 485 577 471 606 q 519 525 499 549 q 490 506 504 511 q 456 500 475 500 q 383 538 411 500 q 354 636 354 575 q 375 741 354 690 q 431 831 396 792 q 512 894 467 871 q 606 917 557 917 q 708 884 667 917 q 770 789 749 851 q 792 633 792 726 q 772 449 792 543 q 713 269 751 356 q 617 116 674 183 q 485 9 560 49 q 319 -31 410 -31 z "},"Ợ":{"ha":810,"x_min":61,"x_max":925,"o":"m 319 -31 q 124 49 188 -31 q 61 292 61 128 q 79 483 61 386 q 133 667 97 579 q 221 824 169 756 q 339 933 272 893 q 486 972 406 972 q 513 971 501 972 q 533 967 524 969 l 533 958 q 385 897 446 946 q 287 776 325 849 q 228 621 249 704 q 199 455 207 538 q 192 303 192 372 q 233 128 192 186 q 354 69 274 69 q 464 106 415 69 q 549 206 513 143 q 609 344 585 268 q 646 501 633 421 q 658 653 658 581 q 639 781 658 739 q 575 822 619 822 q 519 803 542 822 q 483 749 496 785 q 471 663 471 714 q 485 577 471 606 q 519 525 499 549 q 490 506 504 511 q 456 500 475 500 q 383 538 411 500 q 354 636 354 575 q 375 741 354 690 q 431 831 396 792 q 512 894 467 871 q 606 917 557 917 q 708 884 667 917 q 770 789 749 851 q 792 633 792 726 q 772 449 792 543 q 713 269 751 356 q 617 116 674 183 q 485 9 560 49 q 319 -31 410 -31 z "},"Ờ":{"ha":810,"x_min":61,"x_max":925,"o":"m 319 -31 q 124 49 188 -31 q 61 292 61 128 q 79 483 61 386 q 133 667 97 579 q 221 824 169 756 q 339 933 272 893 q 486 972 406 972 q 513 971 501 972 q 533 967 524 969 l 533 958 q 385 897 446 946 q 287 776 325 849 q 228 621 249 704 q 199 455 207 538 q 192 303 192 372 q 233 128 192 186 q 354 69 274 69 q 464 106 415 69 q 549 206 513 143 q 609 344 585 268 q 646 501 633 421 q 658 653 658 581 q 639 781 658 739 q 575 822 619 822 q 519 803 542 822 q 483 749 496 785 q 471 663 471 714 q 485 577 471 606 q 519 525 499 549 q 490 506 504 511 q 456 500 475 500 q 383 538 411 500 q 354 636 354 575 q 375 741 354 690 q 431 831 396 792 q 512 894 467 871 q 606 917 557 917 q 708 884 667 917 q 770 789 749 851 q 792 633 792 726 q 772 449 792 543 q 713 269 751 356 q 617 116 674 183 q 485 9 560 49 q 319 -31 410 -31 z "},"Ở":{"ha":810,"x_min":61,"x_max":925,"o":"m 319 -31 q 124 49 188 -31 q 61 292 61 128 q 79 483 61 386 q 133 667 97 579 q 221 824 169 756 q 339 933 272 893 q 486 972 406 972 q 513 971 501 972 q 533 967 524 969 l 533 958 q 385 897 446 946 q 287 776 325 849 q 228 621 249 704 q 199 455 207 538 q 192 303 192 372 q 233 128 192 186 q 354 69 274 69 q 464 106 415 69 q 549 206 513 143 q 609 344 585 268 q 646 501 633 421 q 658 653 658 581 q 639 781 658 739 q 575 822 619 822 q 519 803 542 822 q 483 749 496 785 q 471 663 471 714 q 485 577 471 606 q 519 525 499 549 q 490 506 504 511 q 456 500 475 500 q 383 538 411 500 q 354 636 354 575 q 375 741 354 690 q 431 831 396 792 q 512 894 467 871 q 606 917 557 917 q 708 884 667 917 q 770 789 749 851 q 792 633 792 726 q 772 449 792 543 q 713 269 751 356 q 617 116 674 183 q 485 9 560 49 q 319 -31 410 -31 z "},"Ỡ":{"ha":826,"x_min":61,"x_max":925,"o":"m 319 -31 q 124 49 188 -31 q 61 292 61 128 q 79 483 61 386 q 133 667 97 579 q 221 824 169 756 q 339 933 272 893 q 486 972 406 972 q 513 971 501 972 q 533 967 524 969 l 533 958 q 385 897 446 946 q 287 776 325 849 q 228 621 249 704 q 199 455 207 538 q 192 303 192 372 q 233 128 192 186 q 354 69 274 69 q 464 106 415 69 q 549 206 513 143 q 609 344 585 268 q 646 501 633 421 q 658 653 658 581 q 639 781 658 739 q 575 822 619 822 q 519 803 542 822 q 483 749 496 785 q 471 663 471 714 q 485 577 471 606 q 519 525 499 549 q 490 506 504 511 q 456 500 475 500 q 383 538 411 500 q 354 636 354 575 q 375 741 354 690 q 431 831 396 792 q 512 894 467 871 q 606 917 557 917 q 708 884 667 917 q 770 789 749 851 q 792 633 792 726 q 772 449 792 543 q 713 269 751 356 q 617 116 674 183 q 485 9 560 49 q 319 -31 410 -31 m 674 1079 q 601 1086 633 1079 q 537 1100 568 1093 q 469 1107 506 1107 q 420 1099 439 1107 q 392 1076 401 1090 q 369 1106 374 1092 q 364 1131 364 1121 q 388 1183 364 1160 q 458 1207 411 1207 q 525 1201 493 1207 q 590 1188 557 1194 q 654 1181 622 1181 q 715 1189 685 1181 q 756 1210 744 1197 q 774 1188 768 1200 q 779 1160 779 1175 q 751 1102 779 1125 q 674 1079 724 1079 z "},"Ő":{"ha":810,"x_min":61,"x_max":811,"o":"m 319 -31 q 124 49 188 -31 q 61 292 61 128 q 79 483 61 386 q 133 667 97 579 q 221 824 169 756 q 339 933 272 893 q 486 972 406 972 q 513 971 501 972 q 533 967 524 969 l 533 958 q 385 897 446 946 q 287 776 325 849 q 228 621 249 704 q 199 455 207 538 q 192 303 192 372 q 233 128 192 186 q 354 69 274 69 q 464 106 415 69 q 549 206 513 143 q 609 344 585 268 q 646 501 633 421 q 658 653 658 581 q 639 781 658 739 q 575 822 619 822 q 519 803 542 822 q 483 749 496 785 q 471 663 471 714 q 485 577 471 606 q 519 525 499 549 q 490 506 504 511 q 456 500 475 500 q 383 538 411 500 q 354 636 354 575 q 375 741 354 690 q 431 831 396 792 q 512 894 467 871 q 606 917 557 917 q 708 884 667 917 q 770 789 749 851 q 792 633 792 726 q 772 449 792 543 q 713 269 751 356 q 617 116 674 183 q 485 9 560 49 q 319 -31 410 -31 z "},"Ȏ":{"ha":810,"x_min":61,"x_max":792,"o":"m 319 -31 q 124 49 188 -31 q 61 292 61 128 q 79 483 61 386 q 133 667 97 579 q 221 824 169 756 q 339 933 272 893 q 486 972 406 972 q 513 971 501 972 q 533 967 524 969 l 533 958 q 385 897 446 946 q 287 776 325 849 q 228 621 249 704 q 199 455 207 538 q 192 303 192 372 q 233 128 192 186 q 354 69 274 69 q 464 106 415 69 q 549 206 513 143 q 609 344 585 268 q 646 501 633 421 q 658 653 658 581 q 639 781 658 739 q 575 822 619 822 q 519 803 542 822 q 483 749 496 785 q 471 663 471 714 q 485 577 471 606 q 519 525 499 549 q 490 506 504 511 q 456 500 475 500 q 383 538 411 500 q 354 636 354 575 q 375 741 354 690 q 431 831 396 792 q 512 894 467 871 q 606 917 557 917 q 708 884 667 917 q 770 789 749 851 q 792 633 792 726 q 772 449 792 543 q 713 269 751 356 q 617 116 674 183 q 485 9 560 49 q 319 -31 410 -31 z "},"Ō":{"ha":810,"x_min":61,"x_max":792,"o":"m 319 -31 q 124 49 188 -31 q 61 292 61 128 q 79 483 61 386 q 133 667 97 579 q 221 824 169 756 q 339 933 272 893 q 486 972 406 972 q 513 971 501 972 q 533 967 524 969 l 533 958 q 385 897 446 946 q 287 776 325 849 q 228 621 249 704 q 199 455 207 538 q 192 303 192 372 q 233 128 192 186 q 354 69 274 69 q 464 106 415 69 q 549 206 513 143 q 609 344 585 268 q 646 501 633 421 q 658 653 658 581 q 639 781 658 739 q 575 822 619 822 q 519 803 542 822 q 483 749 496 785 q 471 663 471 714 q 485 577 471 606 q 519 525 499 549 q 490 506 504 511 q 456 500 475 500 q 383 538 411 500 q 354 636 354 575 q 375 741 354 690 q 431 831 396 792 q 512 894 467 871 q 606 917 557 917 q 708 884 667 917 q 770 789 749 851 q 792 633 792 726 q 772 449 792 543 q 713 269 751 356 q 617 116 674 183 q 485 9 560 49 q 319 -31 410 -31 z "},"Ǫ":{"ha":810,"x_min":61,"x_max":792,"o":"m 319 -31 q 124 49 188 -31 q 61 292 61 128 q 79 483 61 386 q 133 667 97 579 q 221 824 169 756 q 339 933 272 893 q 486 972 406 972 q 513 971 501 972 q 533 967 524 969 l 533 958 q 385 897 446 946 q 287 776 325 849 q 228 621 249 704 q 199 455 207 538 q 192 303 192 372 q 233 128 192 186 q 354 69 274 69 q 464 106 415 69 q 549 206 513 143 q 609 344 585 268 q 646 501 633 421 q 658 653 658 581 q 639 781 658 739 q 575 822 619 822 q 519 803 542 822 q 483 749 496 785 q 471 663 471 714 q 485 577 471 606 q 519 525 499 549 q 490 506 504 511 q 456 500 475 500 q 383 538 411 500 q 354 636 354 575 q 375 741 354 690 q 431 831 396 792 q 512 894 467 871 q 606 917 557 917 q 708 884 667 917 q 770 789 749 851 q 792 633 792 726 q 772 449 792 543 q 713 269 751 356 q 617 116 674 183 q 485 9 560 49 q 319 -31 410 -31 z "},"Ø":{"ha":826,"x_min":-76,"x_max":844,"o":"m -25 -60 q -63 -44 -51 -60 q -76 -7 -75 -28 q -54 50 -76 22 l 100 222 l 163 161 l 29 14 q -3 -26 7 -12 q -25 -60 -14 -40 m 685 772 l 619 836 l 718 944 q 758 994 738 965 q 783 1044 778 1022 q 825 1024 806 1042 q 844 978 844 1006 q 821 922 844 951 q 765 858 797 892 l 685 772 m 319 -31 q 124 49 188 -31 q 61 292 61 128 q 79 483 61 386 q 133 667 97 579 q 221 824 169 756 q 339 933 272 893 q 486 972 406 972 q 513 971 501 972 q 533 967 524 969 l 533 958 q 385 897 446 946 q 287 776 325 849 q 228 621 249 704 q 199 455 207 538 q 192 303 192 372 q 233 128 192 186 q 354 69 274 69 q 464 106 415 69 q 549 206 513 143 q 609 344 585 268 q 646 501 633 421 q 658 653 658 581 q 639 781 658 739 q 575 822 619 822 q 519 803 542 822 q 483 749 496 785 q 471 663 471 714 q 485 577 471 606 q 519 525 499 549 q 490 506 504 511 q 456 500 475 500 q 383 538 411 500 q 354 636 354 575 q 375 741 354 690 q 431 831 396 792 q 512 894 467 871 q 606 917 557 917 q 708 884 667 917 q 770 789 749 851 q 792 633 792 726 q 772 449 792 543 q 713 269 751 356 q 617 116 674 183 q 485 9 560 49 q 319 -31 410 -31 z "},"Ǿ":{"ha":826,"x_min":-76,"x_max":844,"o":"m -25 -60 q -63 -44 -51 -60 q -76 -7 -75 -28 q -54 50 -76 22 l 100 222 l 163 161 l 29 14 q -3 -26 7 -12 q -25 -60 -14 -40 m 685 772 l 619 836 l 718 944 q 758 994 738 965 q 783 1044 778 1022 q 825 1024 806 1042 q 844 978 844 1006 q 821 922 844 951 q 765 858 797 892 l 685 772 m 319 -31 q 124 49 188 -31 q 61 292 61 128 q 79 483 61 386 q 133 667 97 579 q 221 824 169 756 q 339 933 272 893 q 486 972 406 972 q 513 971 501 972 q 533 967 524 969 l 533 958 q 385 897 446 946 q 287 776 325 849 q 228 621 249 704 q 199 455 207 538 q 192 303 192 372 q 233 128 192 186 q 354 69 274 69 q 464 106 415 69 q 549 206 513 143 q 609 344 585 268 q 646 501 633 421 q 658 653 658 581 q 639 781 658 739 q 575 822 619 822 q 519 803 542 822 q 483 749 496 785 q 471 663 471 714 q 485 577 471 606 q 519 525 499 549 q 490 506 504 511 q 456 500 475 500 q 383 538 411 500 q 354 636 354 575 q 375 741 354 690 q 431 831 396 792 q 512 894 467 871 q 606 917 557 917 q 708 884 667 917 q 770 789 749 851 q 792 633 792 726 q 772 449 792 543 q 713 269 751 356 q 617 116 674 183 q 485 9 560 49 q 319 -31 410 -31 z "},"Õ":{"ha":810,"x_min":61,"x_max":792,"o":"m 319 -31 q 124 49 188 -31 q 61 292 61 128 q 79 483 61 386 q 133 667 97 579 q 221 824 169 756 q 339 933 272 893 q 486 972 406 972 q 513 971 501 972 q 533 967 524 969 l 533 958 q 385 897 446 946 q 287 776 325 849 q 228 621 249 704 q 199 455 207 538 q 192 303 192 372 q 233 128 192 186 q 354 69 274 69 q 464 106 415 69 q 549 206 513 143 q 609 344 585 268 q 646 501 633 421 q 658 653 658 581 q 639 781 658 739 q 575 822 619 822 q 519 803 542 822 q 483 749 496 785 q 471 663 471 714 q 485 577 471 606 q 519 525 499 549 q 490 506 504 511 q 456 500 475 500 q 383 538 411 500 q 354 636 354 575 q 375 741 354 690 q 431 831 396 792 q 512 894 467 871 q 606 917 557 917 q 708 884 667 917 q 770 789 749 851 q 792 633 792 726 q 772 449 792 543 q 713 269 751 356 q 617 116 674 183 q 485 9 560 49 q 319 -31 410 -31 z "},"Ȭ":{"ha":810,"x_min":61,"x_max":792,"o":"m 319 -31 q 124 49 188 -31 q 61 292 61 128 q 79 483 61 386 q 133 667 97 579 q 221 824 169 756 q 339 933 272 893 q 486 972 406 972 q 513 971 501 972 q 533 967 524 969 l 533 958 q 385 897 446 946 q 287 776 325 849 q 228 621 249 704 q 199 455 207 538 q 192 303 192 372 q 233 128 192 186 q 354 69 274 69 q 464 106 415 69 q 549 206 513 143 q 609 344 585 268 q 646 501 633 421 q 658 653 658 581 q 639 781 658 739 q 575 822 619 822 q 519 803 542 822 q 483 749 496 785 q 471 663 471 714 q 485 577 471 606 q 519 525 499 549 q 490 506 504 511 q 456 500 475 500 q 383 538 411 500 q 354 636 354 575 q 375 741 354 690 q 431 831 396 792 q 512 894 467 871 q 606 917 557 917 q 708 884 667 917 q 770 789 749 851 q 792 633 792 726 q 772 449 792 543 q 713 269 751 356 q 617 116 674 183 q 485 9 560 49 q 319 -31 410 -31 z "},"Œ":{"ha":1196,"x_min":64,"x_max":1219,"o":"m 313 -31 q 119 53 174 -31 q 64 288 64 136 q 80 460 64 369 q 131 638 96 551 q 219 793 165 724 q 351 903 274 863 q 529 944 428 944 q 692 941 615 944 q 830 934 769 938 q 924 931 890 931 q 1028 933 975 931 q 1126 947 1081 936 q 1196 982 1171 958 q 1213 954 1207 969 q 1219 922 1219 939 q 1206 872 1219 897 q 1161 829 1192 846 q 1079 813 1131 813 q 952 826 1021 813 q 822 857 883 839 q 774 768 788 817 q 758 679 761 719 q 759 590 756 633 q 769 522 763 547 l 933 521 q 992 522 953 521 q 1067 526 1032 522 q 1071 514 1069 521 q 1072 500 1072 507 q 1046 449 1072 471 q 968 426 1019 426 q 872 433 921 426 q 763 449 824 440 q 710 356 733 410 q 688 233 686 303 q 737 107 689 144 q 857 69 785 69 q 977 96 918 69 q 1081 167 1036 122 q 1100 119 1100 146 q 1062 48 1100 82 q 963 -8 1024 14 q 835 -31 903 -31 q 678 -6 746 -31 q 572 69 611 19 q 458 -3 522 24 q 313 -31 393 -31 m 353 68 q 483 122 428 68 q 572 262 538 175 q 624 450 607 349 q 635 526 631 490 q 642 596 640 563 q 644 658 644 629 q 610 797 643 747 q 488 847 576 847 q 345 781 403 847 q 251 613 288 714 q 223 504 235 561 q 206 389 211 447 q 201 272 201 331 q 235 126 203 183 q 353 68 268 68 z "},"P":{"ha":906,"x_min":74,"x_max":950,"o":"m 535 361 q 507 361 525 361 q 483 363 489 361 l 503 438 l 540 438 q 704 474 644 438 q 790 567 764 511 q 815 675 815 622 q 785 780 815 738 q 698 844 754 822 q 565 867 642 867 q 446 851 507 867 q 331 801 385 836 q 245 709 278 767 q 213 568 213 651 q 221 507 213 535 q 249 443 229 479 q 217 428 235 433 q 181 422 200 422 q 126 440 150 422 q 88 490 101 457 q 74 568 74 522 q 110 710 74 643 q 215 831 147 778 q 379 914 283 883 q 593 944 475 944 q 744 926 678 944 q 856 872 810 907 q 926 789 901 838 q 950 681 950 740 q 918 551 950 610 q 828 451 886 493 q 696 385 771 408 q 535 361 621 361 m 319 -17 q 290 -12 307 -17 q 256 1 272 -8 q 283 36 269 14 q 306 86 296 58 q 321 140 315 114 l 428 685 q 450 752 436 725 q 485 792 464 779 q 538 806 507 806 q 592 791 574 806 q 615 757 611 776 q 567 703 579 739 q 549 635 556 668 l 433 72 q 409 22 428 42 q 367 -7 390 3 q 319 -17 343 -17 z "},"Þ":{"ha":943,"x_min":100,"x_max":949,"o":"m 674 208 q 603 224 636 208 q 561 279 569 239 q 572 279 567 279 q 585 279 576 279 q 756 341 696 279 q 817 517 817 403 q 776 622 817 586 q 653 657 736 657 q 560 644 604 657 l 578 743 q 608 745 593 744 q 636 746 622 746 q 751 735 696 746 q 851 697 807 724 q 922 626 896 671 q 949 511 949 581 q 913 363 949 432 q 815 251 876 293 q 674 208 753 208 m 343 -31 q 304 -24 322 -31 q 278 -3 286 -17 q 306 25 293 8 q 328 66 318 42 q 343 125 338 90 l 458 739 q 489 838 469 799 q 541 897 508 878 q 626 917 574 917 l 464 86 q 440 17 456 43 q 399 -19 424 -8 q 343 -31 375 -31 m 219 551 q 158 570 185 551 q 115 623 131 589 q 100 704 100 657 q 132 835 100 772 q 231 937 164 897 q 403 976 299 976 q 475 969 442 976 q 536 950 508 961 q 586 930 564 939 q 625 917 608 921 l 522 882 l 521 885 q 496 899 517 888 q 419 910 475 910 q 282 857 331 910 q 233 710 233 804 q 244 633 233 671 q 274 563 254 596 q 248 554 261 557 q 219 551 235 551 z "},"Q":{"ha":811,"x_min":38,"x_max":956,"o":"m 790 -321 q 661 -296 729 -321 q 523 -234 593 -271 q 383 -160 453 -197 q 248 -99 314 -124 q 122 -74 182 -74 q 81 -76 100 -74 q 46 -82 63 -78 q 40 -62 43 -74 q 38 -40 38 -50 q 59 3 39 -8 q 114 14 79 14 q 169 10 133 14 q 239 8 204 7 q 398 47 325 8 q 526 156 471 85 q 608 322 581 226 q 642 478 631 396 q 654 625 654 561 q 617 796 654 744 q 494 847 581 847 q 383 811 433 847 q 297 716 333 775 q 235 583 260 657 q 197 435 210 510 q 185 293 185 360 q 205 188 185 225 q 263 150 225 150 q 330 187 307 150 q 353 293 353 224 q 340 367 353 335 q 303 417 326 399 q 330 442 313 433 q 369 450 347 450 q 434 416 410 450 q 458 325 458 382 q 441 225 458 272 q 394 141 424 178 q 325 83 364 104 q 244 63 286 63 q 165 78 200 63 q 106 124 131 94 q 69 197 82 154 q 57 294 57 240 q 78 476 57 383 q 139 652 99 568 q 235 803 179 736 q 363 908 292 869 q 515 947 433 947 q 719 868 653 947 q 786 625 786 789 q 767 427 786 521 q 710 253 747 333 q 622 112 674 174 q 502 8 569 50 q 356 -51 435 -33 q 450 -90 397 -65 q 564 -140 503 -115 q 690 -181 625 -164 q 818 -199 754 -199 q 889 -194 856 -199 q 949 -183 922 -190 q 956 -221 956 -197 q 936 -270 956 -247 q 881 -307 917 -293 q 790 -321 844 -321 z "},"R":{"ha":939,"x_min":74,"x_max":1000,"o":"m 625 369 l 575 440 q 717 484 664 449 q 792 571 769 519 q 815 676 815 622 q 791 770 815 726 q 708 840 767 814 q 549 867 650 867 q 439 851 497 867 q 329 801 381 836 q 245 709 278 767 q 213 568 213 651 q 221 507 213 535 q 249 443 229 479 q 217 428 235 433 q 181 422 200 422 q 126 440 150 422 q 88 490 101 457 q 74 568 74 522 q 110 710 74 643 q 213 831 146 778 q 372 914 281 883 q 576 944 464 944 q 788 910 704 944 q 911 819 871 876 q 951 692 951 761 q 928 576 951 629 q 860 481 904 522 q 757 410 817 439 q 625 369 697 382 m 324 -17 q 290 -12 308 -17 q 256 1 272 -8 q 283 36 269 14 q 306 86 296 58 q 321 140 315 114 l 428 685 q 449 752 436 725 q 484 792 461 779 q 542 806 507 806 q 595 791 576 806 q 618 757 614 776 q 581 725 594 746 q 563 681 568 704 q 551 635 557 657 l 436 72 q 413 22 431 42 q 371 -7 394 3 q 324 -17 347 -17 m 913 -156 q 844 -139 876 -156 q 776 -57 813 -122 q 745 15 763 -32 q 707 122 728 63 q 663 241 686 181 q 618 353 640 301 q 575 440 596 406 l 688 388 q 744 320 718 369 q 794 208 769 271 q 849 81 819 144 q 915 -31 878 18 q 1000 -99 951 -81 q 968 -140 990 -125 q 913 -156 946 -156 z "},"Ŕ":{"ha":939,"x_min":74,"x_max":1000,"o":"m 625 369 l 575 440 q 717 484 664 449 q 792 571 769 519 q 815 676 815 622 q 791 770 815 726 q 708 840 767 814 q 549 867 650 867 q 439 851 497 867 q 329 801 381 836 q 245 709 278 767 q 213 568 213 651 q 221 507 213 535 q 249 443 229 479 q 217 428 235 433 q 181 422 200 422 q 126 440 150 422 q 88 490 101 457 q 74 568 74 522 q 110 710 74 643 q 213 831 146 778 q 372 914 281 883 q 576 944 464 944 q 788 910 704 944 q 911 819 871 876 q 951 692 951 761 q 928 576 951 629 q 860 481 904 522 q 757 410 817 439 q 625 369 697 382 m 324 -17 q 290 -12 308 -17 q 256 1 272 -8 q 283 36 269 14 q 306 86 296 58 q 321 140 315 114 l 428 685 q 449 752 436 725 q 484 792 461 779 q 542 806 507 806 q 595 791 576 806 q 618 757 614 776 q 581 725 594 746 q 563 681 568 704 q 551 635 557 657 l 436 72 q 413 22 431 42 q 371 -7 394 3 q 324 -17 347 -17 m 913 -156 q 844 -139 876 -156 q 776 -57 813 -122 q 745 15 763 -32 q 707 122 728 63 q 663 241 686 181 q 618 353 640 301 q 575 440 596 406 l 688 388 q 744 320 718 369 q 794 208 769 271 q 849 81 819 144 q 915 -31 878 18 q 1000 -99 951 -81 q 968 -140 990 -125 q 913 -156 946 -156 z "},"Ř":{"ha":939,"x_min":74,"x_max":1000,"o":"m 625 369 l 575 440 q 717 484 664 449 q 792 571 769 519 q 815 676 815 622 q 791 770 815 726 q 708 840 767 814 q 549 867 650 867 q 439 851 497 867 q 329 801 381 836 q 245 709 278 767 q 213 568 213 651 q 221 507 213 535 q 249 443 229 479 q 217 428 235 433 q 181 422 200 422 q 126 440 150 422 q 88 490 101 457 q 74 568 74 522 q 110 710 74 643 q 213 831 146 778 q 372 914 281 883 q 576 944 464 944 q 788 910 704 944 q 911 819 871 876 q 951 692 951 761 q 928 576 951 629 q 860 481 904 522 q 757 410 817 439 q 625 369 697 382 m 324 -17 q 290 -12 308 -17 q 256 1 272 -8 q 283 36 269 14 q 306 86 296 58 q 321 140 315 114 l 428 685 q 449 752 436 725 q 484 792 461 779 q 542 806 507 806 q 595 791 576 806 q 618 757 614 776 q 581 725 594 746 q 563 681 568 704 q 551 635 557 657 l 436 72 q 413 22 431 42 q 371 -7 394 3 q 324 -17 347 -17 m 913 -156 q 844 -139 876 -156 q 776 -57 813 -122 q 745 15 763 -32 q 707 122 728 63 q 663 241 686 181 q 618 353 640 301 q 575 440 596 406 l 688 388 q 744 320 718 369 q 794 208 769 271 q 849 81 819 144 q 915 -31 878 18 q 1000 -99 951 -81 q 968 -140 990 -125 q 913 -156 946 -156 z "},"Ŗ":{"ha":939,"x_min":74,"x_max":1000,"o":"m 625 369 l 575 440 q 717 484 664 449 q 792 571 769 519 q 815 676 815 622 q 791 770 815 726 q 708 840 767 814 q 549 867 650 867 q 439 851 497 867 q 329 801 381 836 q 245 709 278 767 q 213 568 213 651 q 221 507 213 535 q 249 443 229 479 q 217 428 235 433 q 181 422 200 422 q 126 440 150 422 q 88 490 101 457 q 74 568 74 522 q 110 710 74 643 q 213 831 146 778 q 372 914 281 883 q 576 944 464 944 q 788 910 704 944 q 911 819 871 876 q 951 692 951 761 q 928 576 951 629 q 860 481 904 522 q 757 410 817 439 q 625 369 697 382 m 324 -17 q 290 -12 308 -17 q 256 1 272 -8 q 283 36 269 14 q 306 86 296 58 q 321 140 315 114 l 428 685 q 449 752 436 725 q 484 792 461 779 q 542 806 507 806 q 595 791 576 806 q 618 757 614 776 q 581 725 594 746 q 563 681 568 704 q 551 635 557 657 l 436 72 q 413 22 431 42 q 371 -7 394 3 q 324 -17 347 -17 m 913 -156 q 844 -139 876 -156 q 776 -57 813 -122 q 745 15 763 -32 q 707 122 728 63 q 663 241 686 181 q 618 353 640 301 q 575 440 596 406 l 688 388 q 744 320 718 369 q 794 208 769 271 q 849 81 819 144 q 915 -31 878 18 q 1000 -99 951 -81 q 968 -140 990 -125 q 913 -156 946 -156 z "},"Ȑ":{"ha":939,"x_min":74,"x_max":1000,"o":"m 625 369 l 575 440 q 717 484 664 449 q 792 571 769 519 q 815 676 815 622 q 791 770 815 726 q 708 840 767 814 q 549 867 650 867 q 439 851 497 867 q 329 801 381 836 q 245 709 278 767 q 213 568 213 651 q 221 507 213 535 q 249 443 229 479 q 217 428 235 433 q 181 422 200 422 q 126 440 150 422 q 88 490 101 457 q 74 568 74 522 q 110 710 74 643 q 213 831 146 778 q 372 914 281 883 q 576 944 464 944 q 788 910 704 944 q 911 819 871 876 q 951 692 951 761 q 928 576 951 629 q 860 481 904 522 q 757 410 817 439 q 625 369 697 382 m 324 -17 q 290 -12 308 -17 q 256 1 272 -8 q 283 36 269 14 q 306 86 296 58 q 321 140 315 114 l 428 685 q 449 752 436 725 q 484 792 461 779 q 542 806 507 806 q 595 791 576 806 q 618 757 614 776 q 581 725 594 746 q 563 681 568 704 q 551 635 557 657 l 436 72 q 413 22 431 42 q 371 -7 394 3 q 324 -17 347 -17 m 913 -156 q 844 -139 876 -156 q 776 -57 813 -122 q 745 15 763 -32 q 707 122 728 63 q 663 241 686 181 q 618 353 640 301 q 575 440 596 406 l 688 388 q 744 320 718 369 q 794 208 769 271 q 849 81 819 144 q 915 -31 878 18 q 1000 -99 951 -81 q 968 -140 990 -125 q 913 -156 946 -156 z "},"Ȓ":{"ha":939,"x_min":74,"x_max":1000,"o":"m 625 369 l 575 440 q 717 484 664 449 q 792 571 769 519 q 815 676 815 622 q 791 770 815 726 q 708 840 767 814 q 549 867 650 867 q 439 851 497 867 q 329 801 381 836 q 245 709 278 767 q 213 568 213 651 q 221 507 213 535 q 249 443 229 479 q 217 428 235 433 q 181 422 200 422 q 126 440 150 422 q 88 490 101 457 q 74 568 74 522 q 110 710 74 643 q 213 831 146 778 q 372 914 281 883 q 576 944 464 944 q 788 910 704 944 q 911 819 871 876 q 951 692 951 761 q 928 576 951 629 q 860 481 904 522 q 757 410 817 439 q 625 369 697 382 m 324 -17 q 290 -12 308 -17 q 256 1 272 -8 q 283 36 269 14 q 306 86 296 58 q 321 140 315 114 l 428 685 q 449 752 436 725 q 484 792 461 779 q 542 806 507 806 q 595 791 576 806 q 618 757 614 776 q 581 725 594 746 q 563 681 568 704 q 551 635 557 657 l 436 72 q 413 22 431 42 q 371 -7 394 3 q 324 -17 347 -17 m 913 -156 q 844 -139 876 -156 q 776 -57 813 -122 q 745 15 763 -32 q 707 122 728 63 q 663 241 686 181 q 618 353 640 301 q 575 440 596 406 l 688 388 q 744 320 718 369 q 794 208 769 271 q 849 81 819 144 q 915 -31 878 18 q 1000 -99 951 -81 q 968 -140 990 -125 q 913 -156 946 -156 z "},"S":{"ha":676,"x_min":15,"x_max":700,"o":"m 278 -31 q 138 -8 197 -31 q 47 60 79 15 q 15 165 15 104 q 35 254 15 218 q 87 310 54 290 q 158 329 119 329 q 205 319 186 329 q 233 294 224 310 q 243 256 243 278 q 242 240 243 249 q 239 225 240 232 q 226 228 233 228 q 214 228 219 228 q 168 211 188 228 q 149 154 149 194 q 192 78 149 101 q 294 56 235 56 q 385 75 343 56 q 452 131 426 94 q 478 219 478 168 q 458 293 478 260 q 408 356 439 326 q 343 414 378 386 q 260 485 300 449 q 193 567 219 521 q 167 676 167 614 q 192 790 167 740 q 262 874 218 840 q 363 926 306 908 q 485 944 421 944 q 601 925 553 944 q 674 871 649 906 q 700 792 700 836 q 685 717 700 750 q 644 664 669 683 q 585 644 618 644 q 538 654 557 644 q 514 679 519 664 q 547 710 532 686 q 563 765 563 735 q 535 832 563 807 q 446 857 507 857 q 333 818 378 857 q 289 715 289 779 q 310 635 289 671 q 366 568 332 599 q 436 510 400 538 q 517 442 478 478 q 580 360 556 406 q 604 253 604 314 q 576 133 604 186 q 501 44 549 81 q 396 -12 454 7 q 278 -31 338 -31 z "},"Ś":{"ha":676,"x_min":15,"x_max":700,"o":"m 278 -31 q 138 -8 197 -31 q 47 60 79 15 q 15 165 15 104 q 35 254 15 218 q 87 310 54 290 q 158 329 119 329 q 205 319 186 329 q 233 294 224 310 q 243 256 243 278 q 242 240 243 249 q 239 225 240 232 q 226 228 233 228 q 214 228 219 228 q 168 211 188 228 q 149 154 149 194 q 192 78 149 101 q 294 56 235 56 q 385 75 343 56 q 452 131 426 94 q 478 219 478 168 q 458 293 478 260 q 408 356 439 326 q 343 414 378 386 q 260 485 300 449 q 193 567 219 521 q 167 676 167 614 q 192 790 167 740 q 262 874 218 840 q 363 926 306 908 q 485 944 421 944 q 601 925 553 944 q 674 871 649 906 q 700 792 700 836 q 685 717 700 750 q 644 664 669 683 q 585 644 618 644 q 538 654 557 644 q 514 679 519 664 q 547 710 532 686 q 563 765 563 735 q 535 832 563 807 q 446 857 507 857 q 333 818 378 857 q 289 715 289 779 q 310 635 289 671 q 366 568 332 599 q 436 510 400 538 q 517 442 478 478 q 580 360 556 406 q 604 253 604 314 q 576 133 604 186 q 501 44 549 81 q 396 -12 454 7 q 278 -31 338 -31 z "},"Š":{"ha":676,"x_min":15,"x_max":700,"o":"m 278 -31 q 138 -8 197 -31 q 47 60 79 15 q 15 165 15 104 q 35 254 15 218 q 87 310 54 290 q 158 329 119 329 q 205 319 186 329 q 233 294 224 310 q 243 256 243 278 q 242 240 243 249 q 239 225 240 232 q 226 228 233 228 q 214 228 219 228 q 168 211 188 228 q 149 154 149 194 q 192 78 149 101 q 294 56 235 56 q 385 75 343 56 q 452 131 426 94 q 478 219 478 168 q 458 293 478 260 q 408 356 439 326 q 343 414 378 386 q 260 485 300 449 q 193 567 219 521 q 167 676 167 614 q 192 790 167 740 q 262 874 218 840 q 363 926 306 908 q 485 944 421 944 q 601 925 553 944 q 674 871 649 906 q 700 792 700 836 q 685 717 700 750 q 644 664 669 683 q 585 644 618 644 q 538 654 557 644 q 514 679 519 664 q 547 710 532 686 q 563 765 563 735 q 535 832 563 807 q 446 857 507 857 q 333 818 378 857 q 289 715 289 779 q 310 635 289 671 q 366 568 332 599 q 436 510 400 538 q 517 442 478 478 q 580 360 556 406 q 604 253 604 314 q 576 133 604 186 q 501 44 549 81 q 396 -12 454 7 q 278 -31 338 -31 z "},"Ş":{"ha":676,"x_min":15,"x_max":700,"o":"m 278 -31 q 138 -8 197 -31 q 47 60 79 15 q 15 165 15 104 q 35 254 15 218 q 87 310 54 290 q 158 329 119 329 q 205 319 186 329 q 233 294 224 310 q 243 256 243 278 q 242 240 243 249 q 239 225 240 232 q 226 228 233 228 q 214 228 219 228 q 168 211 188 228 q 149 154 149 194 q 192 78 149 101 q 294 56 235 56 q 385 75 343 56 q 452 131 426 94 q 478 219 478 168 q 458 293 478 260 q 408 356 439 326 q 343 414 378 386 q 260 485 300 449 q 193 567 219 521 q 167 676 167 614 q 192 790 167 740 q 262 874 218 840 q 363 926 306 908 q 485 944 421 944 q 601 925 553 944 q 674 871 649 906 q 700 792 700 836 q 685 717 700 750 q 644 664 669 683 q 585 644 618 644 q 538 654 557 644 q 514 679 519 664 q 547 710 532 686 q 563 765 563 735 q 535 832 563 807 q 446 857 507 857 q 333 818 378 857 q 289 715 289 779 q 310 635 289 671 q 366 568 332 599 q 436 510 400 538 q 517 442 478 478 q 580 360 556 406 q 604 253 604 314 q 576 133 604 186 q 501 44 549 81 q 396 -12 454 7 q 278 -31 338 -31 z "},"Ŝ":{"ha":676,"x_min":15,"x_max":700,"o":"m 278 -31 q 138 -8 197 -31 q 47 60 79 15 q 15 165 15 104 q 35 254 15 218 q 87 310 54 290 q 158 329 119 329 q 205 319 186 329 q 233 294 224 310 q 243 256 243 278 q 242 240 243 249 q 239 225 240 232 q 226 228 233 228 q 214 228 219 228 q 168 211 188 228 q 149 154 149 194 q 192 78 149 101 q 294 56 235 56 q 385 75 343 56 q 452 131 426 94 q 478 219 478 168 q 458 293 478 260 q 408 356 439 326 q 343 414 378 386 q 260 485 300 449 q 193 567 219 521 q 167 676 167 614 q 192 790 167 740 q 262 874 218 840 q 363 926 306 908 q 485 944 421 944 q 601 925 553 944 q 674 871 649 906 q 700 792 700 836 q 685 717 700 750 q 644 664 669 683 q 585 644 618 644 q 538 654 557 644 q 514 679 519 664 q 547 710 532 686 q 563 765 563 735 q 535 832 563 807 q 446 857 507 857 q 333 818 378 857 q 289 715 289 779 q 310 635 289 671 q 366 568 332 599 q 436 510 400 538 q 517 442 478 478 q 580 360 556 406 q 604 253 604 314 q 576 133 604 186 q 501 44 549 81 q 396 -12 454 7 q 278 -31 338 -31 z "},"Ș":{"ha":676,"x_min":15,"x_max":700,"o":"m 278 -31 q 138 -8 197 -31 q 47 60 79 15 q 15 165 15 104 q 35 254 15 218 q 87 310 54 290 q 158 329 119 329 q 205 319 186 329 q 233 294 224 310 q 243 256 243 278 q 242 240 243 249 q 239 225 240 232 q 226 228 233 228 q 214 228 219 228 q 168 211 188 228 q 149 154 149 194 q 192 78 149 101 q 294 56 235 56 q 385 75 343 56 q 452 131 426 94 q 478 219 478 168 q 458 293 478 260 q 408 356 439 326 q 343 414 378 386 q 260 485 300 449 q 193 567 219 521 q 167 676 167 614 q 192 790 167 740 q 262 874 218 840 q 363 926 306 908 q 485 944 421 944 q 601 925 553 944 q 674 871 649 906 q 700 792 700 836 q 685 717 700 750 q 644 664 669 683 q 585 644 618 644 q 538 654 557 644 q 514 679 519 664 q 547 710 532 686 q 563 765 563 735 q 535 832 563 807 q 446 857 507 857 q 333 818 378 857 q 289 715 289 779 q 310 635 289 671 q 366 568 332 599 q 436 510 400 538 q 517 442 478 478 q 580 360 556 406 q 604 253 604 314 q 576 133 604 186 q 501 44 549 81 q 396 -12 454 7 q 278 -31 338 -31 z "},"Ṣ":{"ha":676,"x_min":15,"x_max":700,"o":"m 278 -31 q 138 -8 197 -31 q 47 60 79 15 q 15 165 15 104 q 35 254 15 218 q 87 310 54 290 q 158 329 119 329 q 205 319 186 329 q 233 294 224 310 q 243 256 243 278 q 242 240 243 249 q 239 225 240 232 q 226 228 233 228 q 214 228 219 228 q 168 211 188 228 q 149 154 149 194 q 192 78 149 101 q 294 56 235 56 q 385 75 343 56 q 452 131 426 94 q 478 219 478 168 q 458 293 478 260 q 408 356 439 326 q 343 414 378 386 q 260 485 300 449 q 193 567 219 521 q 167 676 167 614 q 192 790 167 740 q 262 874 218 840 q 363 926 306 908 q 485 944 421 944 q 601 925 553 944 q 674 871 649 906 q 700 792 700 836 q 685 717 700 750 q 644 664 669 683 q 585 644 618 644 q 538 654 557 644 q 514 679 519 664 q 547 710 532 686 q 563 765 563 735 q 535 832 563 807 q 446 857 507 857 q 333 818 378 857 q 289 715 289 779 q 310 635 289 671 q 366 568 332 599 q 436 510 400 538 q 517 442 478 478 q 580 360 556 406 q 604 253 604 314 q 576 133 604 186 q 501 44 549 81 q 396 -12 454 7 q 278 -31 338 -31 z "},"ẞ":{"ha":992,"x_min":-67,"x_max":938,"o":"m 618 -31 q 515 -18 563 -31 q 432 19 467 -6 q 378 78 397 43 q 358 157 358 113 q 394 251 358 222 q 465 281 429 281 q 501 275 482 281 q 533 256 519 269 q 513 213 519 238 q 507 165 507 189 q 547 80 507 104 q 640 56 588 56 q 706 67 674 56 q 761 107 739 79 q 783 181 783 135 q 758 260 783 226 q 696 324 733 294 q 621 383 658 353 q 558 453 583 414 q 533 549 533 493 q 541 602 533 574 q 571 663 549 631 q 636 732 593 696 q 750 807 679 768 q 665 848 707 836 q 575 860 622 860 q 414 811 476 860 q 315 674 351 763 q 254 461 278 585 l 175 47 l 42 44 l 122 458 q 190 680 147 588 q 292 831 232 772 q 428 917 351 889 q 601 944 506 944 q 804 906 721 944 q 938 806 888 868 q 809 744 860 774 q 728 690 758 715 q 685 642 699 664 q 667 602 671 619 q 663 572 663 585 q 688 508 663 536 q 751 451 714 479 q 826 391 789 424 q 888 315 863 358 q 914 211 914 272 q 890 108 914 153 q 826 32 867 63 q 731 -15 785 1 q 618 -31 678 -31 m 10 -212 q -35 -200 -14 -212 q -67 -162 -56 -187 q -19 -124 -39 -151 q 13 -62 0 -96 q 33 5 25 -28 q 44 58 40 38 l 178 63 q 142 -81 163 -19 q 91 -178 122 -143 q 10 -212 60 -212 z "},"Ə":{"ha":779,"x_min":76,"x_max":719,"o":"m 285 -36 q 172 -12 218 -36 q 101 58 125 11 q 76 169 76 104 q 110 308 76 249 q 202 405 144 367 q 331 462 260 443 q 479 479 403 481 q 528 477 496 479 q 583 474 561 475 q 590 536 588 510 q 593 585 593 563 q 581 715 593 658 q 533 803 568 771 q 432 835 499 835 q 297 794 357 835 q 204 688 236 753 q 189 740 189 706 q 209 811 190 775 q 263 877 228 847 q 351 926 299 907 q 469 944 403 944 q 655 860 590 944 q 719 617 719 775 q 701 433 719 526 q 647 256 683 340 q 559 106 611 172 q 438 2 507 40 q 285 -36 369 -36 m 311 53 q 411 89 367 53 q 488 181 456 125 q 542 295 521 236 q 574 399 564 354 q 369 374 450 399 q 249 297 288 349 q 210 164 210 244 q 235 81 210 108 q 311 53 260 53 z "},"T":{"ha":776,"x_min":90,"x_max":946,"o":"m 203 551 q 142 571 168 551 q 103 628 117 590 q 92 717 90 665 q 124 839 93 779 q 219 938 156 899 q 379 976 283 976 q 516 965 451 976 q 642 942 581 954 q 765 931 703 931 q 856 938 817 931 q 929 978 894 944 q 941 953 936 968 q 946 922 946 938 q 933 871 946 896 q 893 829 921 846 q 819 813 865 813 q 750 822 786 813 q 672 846 714 831 q 572 882 629 861 l 571 886 q 494 909 531 901 q 413 917 457 917 q 279 863 328 917 q 228 710 231 808 q 235 632 226 669 q 263 563 244 594 q 232 554 249 557 q 203 551 215 551 m 363 -29 q 323 -22 342 -29 q 296 -1 304 -15 q 324 26 311 10 q 345 67 336 43 q 361 126 354 92 l 475 717 q 528 851 493 807 q 643 894 564 894 l 483 88 q 459 19 475 44 q 419 -18 443 -7 q 363 -29 394 -29 z "},"Ŧ":{"ha":810,"x_min":90,"x_max":946,"o":"m 203 551 q 142 571 168 551 q 103 628 117 590 q 92 717 90 665 q 124 839 93 779 q 219 938 156 899 q 379 976 283 976 q 516 965 451 976 q 642 942 581 954 q 765 931 703 931 q 856 938 817 931 q 929 978 894 944 q 941 953 936 968 q 946 922 946 938 q 933 871 946 896 q 893 829 921 846 q 819 813 865 813 q 750 822 786 813 q 672 846 714 831 q 572 882 629 861 l 571 886 q 494 909 531 901 q 413 917 457 917 q 279 863 328 917 q 228 710 231 808 q 235 632 226 669 q 263 563 244 594 q 232 554 249 557 q 203 551 215 551 m 363 -29 q 323 -22 342 -29 q 296 -1 304 -15 q 324 26 311 10 q 345 67 336 43 q 361 126 354 92 l 475 717 q 528 851 493 807 q 643 894 564 894 l 483 88 q 459 19 475 44 q 419 -18 443 -7 q 363 -29 394 -29 z "},"Ť":{"ha":776,"x_min":90,"x_max":946,"o":"m 203 551 q 142 571 168 551 q 103 628 117 590 q 92 717 90 665 q 124 839 93 779 q 219 938 156 899 q 379 976 283 976 q 516 965 451 976 q 642 942 581 954 q 765 931 703 931 q 856 938 817 931 q 929 978 894 944 q 941 953 936 968 q 946 922 946 938 q 933 871 946 896 q 893 829 921 846 q 819 813 865 813 q 750 822 786 813 q 672 846 714 831 q 572 882 629 861 l 571 886 q 494 909 531 901 q 413 917 457 917 q 279 863 328 917 q 228 710 231 808 q 235 632 226 669 q 263 563 244 594 q 232 554 249 557 q 203 551 215 551 m 363 -29 q 323 -22 342 -29 q 296 -1 304 -15 q 324 26 311 10 q 345 67 336 43 q 361 126 354 92 l 475 717 q 528 851 493 807 q 643 894 564 894 l 483 88 q 459 19 475 44 q 419 -18 443 -7 q 363 -29 394 -29 z "},"Ţ":{"ha":776,"x_min":90,"x_max":946,"o":"m 203 551 q 142 571 168 551 q 103 628 117 590 q 92 717 90 665 q 124 839 93 779 q 219 938 156 899 q 379 976 283 976 q 516 965 451 976 q 642 942 581 954 q 765 931 703 931 q 856 938 817 931 q 929 978 894 944 q 941 953 936 968 q 946 922 946 938 q 933 871 946 896 q 893 829 921 846 q 819 813 865 813 q 750 822 786 813 q 672 846 714 831 q 572 882 629 861 l 571 886 q 494 909 531 901 q 413 917 457 917 q 279 863 328 917 q 228 710 231 808 q 235 632 226 669 q 263 563 244 594 q 232 554 249 557 q 203 551 215 551 m 363 -29 q 323 -22 342 -29 q 296 -1 304 -15 q 324 26 311 10 q 345 67 336 43 q 361 126 354 92 l 475 717 q 528 851 493 807 q 643 894 564 894 l 483 88 q 459 19 475 44 q 419 -18 443 -7 q 363 -29 394 -29 z "},"Ț":{"ha":776,"x_min":90,"x_max":946,"o":"m 203 551 q 142 571 168 551 q 103 628 117 590 q 92 717 90 665 q 124 839 93 779 q 219 938 156 899 q 379 976 283 976 q 516 965 451 976 q 642 942 581 954 q 765 931 703 931 q 856 938 817 931 q 929 978 894 944 q 941 953 936 968 q 946 922 946 938 q 933 871 946 896 q 893 829 921 846 q 819 813 865 813 q 750 822 786 813 q 672 846 714 831 q 572 882 629 861 l 571 886 q 494 909 531 901 q 413 917 457 917 q 279 863 328 917 q 228 710 231 808 q 235 632 226 669 q 263 563 244 594 q 232 554 249 557 q 203 551 215 551 m 363 -29 q 323 -22 342 -29 q 296 -1 304 -15 q 324 26 311 10 q 345 67 336 43 q 361 126 354 92 l 475 717 q 528 851 493 807 q 643 894 564 894 l 483 88 q 459 19 475 44 q 419 -18 443 -7 q 363 -29 394 -29 z "},"Ṭ":{"ha":776,"x_min":90,"x_max":946,"o":"m 203 551 q 142 571 168 551 q 103 628 117 590 q 92 717 90 665 q 124 839 93 779 q 219 938 156 899 q 379 976 283 976 q 516 965 451 976 q 642 942 581 954 q 765 931 703 931 q 856 938 817 931 q 929 978 894 944 q 941 953 936 968 q 946 922 946 938 q 933 871 946 896 q 893 829 921 846 q 819 813 865 813 q 750 822 786 813 q 672 846 714 831 q 572 882 629 861 l 571 886 q 494 909 531 901 q 413 917 457 917 q 279 863 328 917 q 228 710 231 808 q 235 632 226 669 q 263 563 244 594 q 232 554 249 557 q 203 551 215 551 m 363 -29 q 323 -22 342 -29 q 296 -1 304 -15 q 324 26 311 10 q 345 67 336 43 q 361 126 354 92 l 475 717 q 528 851 493 807 q 643 894 564 894 l 483 88 q 459 19 475 44 q 419 -18 443 -7 q 363 -29 394 -29 z "},"U":{"ha":1049,"x_min":90,"x_max":1042,"o":"m 558 -31 q 397 28 453 -31 q 342 190 342 86 q 361 333 342 254 q 406 497 381 413 q 451 660 432 582 q 471 801 471 739 q 444 886 471 863 q 369 910 418 910 q 263 854 304 910 q 222 710 222 799 q 233 633 222 671 q 263 563 243 596 q 238 554 250 557 q 211 551 226 551 q 147 570 175 551 q 105 623 119 589 q 90 704 90 657 q 108 804 90 756 q 163 892 126 853 q 253 953 199 931 q 381 976 307 976 q 508 951 463 976 q 573 885 554 926 q 592 793 592 843 q 573 651 592 731 q 529 490 554 572 q 485 331 504 407 q 467 199 467 256 q 500 107 467 142 q 596 72 533 72 q 697 108 654 72 q 769 219 739 143 q 819 417 799 294 l 892 839 q 927 915 900 886 q 990 943 954 943 q 1015 940 1001 943 q 1042 929 1028 936 l 917 279 q 901 190 906 221 q 897 138 897 158 q 919 59 897 83 q 983 31 940 35 q 954 -15 978 1 q 904 -31 931 -31 q 824 8 853 -31 q 788 97 796 47 q 686 6 744 42 q 558 -31 628 -31 z "},"Ú":{"ha":1049,"x_min":90,"x_max":1042,"o":"m 558 -31 q 397 28 453 -31 q 342 190 342 86 q 361 333 342 254 q 406 497 381 413 q 451 660 432 582 q 471 801 471 739 q 444 886 471 863 q 369 910 418 910 q 263 854 304 910 q 222 710 222 799 q 233 633 222 671 q 263 563 243 596 q 238 554 250 557 q 211 551 226 551 q 147 570 175 551 q 105 623 119 589 q 90 704 90 657 q 108 804 90 756 q 163 892 126 853 q 253 953 199 931 q 381 976 307 976 q 508 951 463 976 q 573 885 554 926 q 592 793 592 843 q 573 651 592 731 q 529 490 554 572 q 485 331 504 407 q 467 199 467 256 q 500 107 467 142 q 596 72 533 72 q 697 108 654 72 q 769 219 739 143 q 819 417 799 294 l 892 839 q 927 915 900 886 q 990 943 954 943 q 1015 940 1001 943 q 1042 929 1028 936 l 917 279 q 901 190 906 221 q 897 138 897 158 q 919 59 897 83 q 983 31 940 35 q 954 -15 978 1 q 904 -31 931 -31 q 824 8 853 -31 q 788 97 796 47 q 686 6 744 42 q 558 -31 628 -31 z "},"Ŭ":{"ha":1049,"x_min":90,"x_max":1042,"o":"m 558 -31 q 397 28 453 -31 q 342 190 342 86 q 361 333 342 254 q 406 497 381 413 q 451 660 432 582 q 471 801 471 739 q 444 886 471 863 q 369 910 418 910 q 263 854 304 910 q 222 710 222 799 q 233 633 222 671 q 263 563 243 596 q 238 554 250 557 q 211 551 226 551 q 147 570 175 551 q 105 623 119 589 q 90 704 90 657 q 108 804 90 756 q 163 892 126 853 q 253 953 199 931 q 381 976 307 976 q 508 951 463 976 q 573 885 554 926 q 592 793 592 843 q 573 651 592 731 q 529 490 554 572 q 485 331 504 407 q 467 199 467 256 q 500 107 467 142 q 596 72 533 72 q 697 108 654 72 q 769 219 739 143 q 819 417 799 294 l 892 839 q 927 915 900 886 q 990 943 954 943 q 1015 940 1001 943 q 1042 929 1028 936 l 917 279 q 901 190 906 221 q 897 138 897 158 q 919 59 897 83 q 983 31 940 35 q 954 -15 978 1 q 904 -31 931 -31 q 824 8 853 -31 q 788 97 796 47 q 686 6 744 42 q 558 -31 628 -31 z "},"Ǔ":{"ha":1049,"x_min":90,"x_max":1042,"o":"m 558 -31 q 397 28 453 -31 q 342 190 342 86 q 361 333 342 254 q 406 497 381 413 q 451 660 432 582 q 471 801 471 739 q 444 886 471 863 q 369 910 418 910 q 263 854 304 910 q 222 710 222 799 q 233 633 222 671 q 263 563 243 596 q 238 554 250 557 q 211 551 226 551 q 147 570 175 551 q 105 623 119 589 q 90 704 90 657 q 108 804 90 756 q 163 892 126 853 q 253 953 199 931 q 381 976 307 976 q 508 951 463 976 q 573 885 554 926 q 592 793 592 843 q 573 651 592 731 q 529 490 554 572 q 485 331 504 407 q 467 199 467 256 q 500 107 467 142 q 596 72 533 72 q 697 108 654 72 q 769 219 739 143 q 819 417 799 294 l 892 839 q 927 915 900 886 q 990 943 954 943 q 1015 940 1001 943 q 1042 929 1028 936 l 917 279 q 901 190 906 221 q 897 138 897 158 q 919 59 897 83 q 983 31 940 35 q 954 -15 978 1 q 904 -31 931 -31 q 824 8 853 -31 q 788 97 796 47 q 686 6 744 42 q 558 -31 628 -31 z "},"Û":{"ha":1049,"x_min":90,"x_max":1042,"o":"m 558 -31 q 397 28 453 -31 q 342 190 342 86 q 361 333 342 254 q 406 497 381 413 q 451 660 432 582 q 471 801 471 739 q 444 886 471 863 q 369 910 418 910 q 263 854 304 910 q 222 710 222 799 q 233 633 222 671 q 263 563 243 596 q 238 554 250 557 q 211 551 226 551 q 147 570 175 551 q 105 623 119 589 q 90 704 90 657 q 108 804 90 756 q 163 892 126 853 q 253 953 199 931 q 381 976 307 976 q 508 951 463 976 q 573 885 554 926 q 592 793 592 843 q 573 651 592 731 q 529 490 554 572 q 485 331 504 407 q 467 199 467 256 q 500 107 467 142 q 596 72 533 72 q 697 108 654 72 q 769 219 739 143 q 819 417 799 294 l 892 839 q 927 915 900 886 q 990 943 954 943 q 1015 940 1001 943 q 1042 929 1028 936 l 917 279 q 901 190 906 221 q 897 138 897 158 q 919 59 897 83 q 983 31 940 35 q 954 -15 978 1 q 904 -31 931 -31 q 824 8 853 -31 q 788 97 796 47 q 686 6 744 42 q 558 -31 628 -31 z "},"Ȕ":{"ha":1049,"x_min":90,"x_max":1042,"o":"m 558 -31 q 397 28 453 -31 q 342 190 342 86 q 361 333 342 254 q 406 497 381 413 q 451 660 432 582 q 471 801 471 739 q 444 886 471 863 q 369 910 418 910 q 263 854 304 910 q 222 710 222 799 q 233 633 222 671 q 263 563 243 596 q 238 554 250 557 q 211 551 226 551 q 147 570 175 551 q 105 623 119 589 q 90 704 90 657 q 108 804 90 756 q 163 892 126 853 q 253 953 199 931 q 381 976 307 976 q 508 951 463 976 q 573 885 554 926 q 592 793 592 843 q 573 651 592 731 q 529 490 554 572 q 485 331 504 407 q 467 199 467 256 q 500 107 467 142 q 596 72 533 72 q 697 108 654 72 q 769 219 739 143 q 819 417 799 294 l 892 839 q 927 915 900 886 q 990 943 954 943 q 1015 940 1001 943 q 1042 929 1028 936 l 917 279 q 901 190 906 221 q 897 138 897 158 q 919 59 897 83 q 983 31 940 35 q 954 -15 978 1 q 904 -31 931 -31 q 824 8 853 -31 q 788 97 796 47 q 686 6 744 42 q 558 -31 628 -31 z "},"Ü":{"ha":1049,"x_min":90,"x_max":1042,"o":"m 558 -31 q 397 28 453 -31 q 342 190 342 86 q 361 333 342 254 q 406 497 381 413 q 451 660 432 582 q 471 801 471 739 q 444 886 471 863 q 369 910 418 910 q 263 854 304 910 q 222 710 222 799 q 233 633 222 671 q 263 563 243 596 q 238 554 250 557 q 211 551 226 551 q 147 570 175 551 q 105 623 119 589 q 90 704 90 657 q 108 804 90 756 q 163 892 126 853 q 253 953 199 931 q 381 976 307 976 q 508 951 463 976 q 573 885 554 926 q 592 793 592 843 q 573 651 592 731 q 529 490 554 572 q 485 331 504 407 q 467 199 467 256 q 500 107 467 142 q 596 72 533 72 q 697 108 654 72 q 769 219 739 143 q 819 417 799 294 l 892 839 q 927 915 900 886 q 990 943 954 943 q 1015 940 1001 943 q 1042 929 1028 936 l 917 279 q 901 190 906 221 q 897 138 897 158 q 919 59 897 83 q 983 31 940 35 q 954 -15 978 1 q 904 -31 931 -31 q 824 8 853 -31 q 788 97 796 47 q 686 6 744 42 q 558 -31 628 -31 z "},"Ǘ":{"ha":1049,"x_min":90,"x_max":1042,"o":"m 558 -31 q 397 28 453 -31 q 342 190 342 86 q 361 333 342 254 q 406 497 381 413 q 451 660 432 582 q 471 801 471 739 q 444 886 471 863 q 369 910 418 910 q 263 854 304 910 q 222 710 222 799 q 233 633 222 671 q 263 563 243 596 q 238 554 250 557 q 211 551 226 551 q 147 570 175 551 q 105 623 119 589 q 90 704 90 657 q 108 804 90 756 q 163 892 126 853 q 253 953 199 931 q 381 976 307 976 q 508 951 463 976 q 573 885 554 926 q 592 793 592 843 q 573 651 592 731 q 529 490 554 572 q 485 331 504 407 q 467 199 467 256 q 500 107 467 142 q 596 72 533 72 q 697 108 654 72 q 769 219 739 143 q 819 417 799 294 l 892 839 q 927 915 900 886 q 990 943 954 943 q 1015 940 1001 943 q 1042 929 1028 936 l 917 279 q 901 190 906 221 q 897 138 897 158 q 919 59 897 83 q 983 31 940 35 q 954 -15 978 1 q 904 -31 931 -31 q 824 8 853 -31 q 788 97 796 47 q 686 6 744 42 q 558 -31 628 -31 z "},"Ǚ":{"ha":1049,"x_min":90,"x_max":1042,"o":"m 558 -31 q 397 28 453 -31 q 342 190 342 86 q 361 333 342 254 q 406 497 381 413 q 451 660 432 582 q 471 801 471 739 q 444 886 471 863 q 369 910 418 910 q 263 854 304 910 q 222 710 222 799 q 233 633 222 671 q 263 563 243 596 q 238 554 250 557 q 211 551 226 551 q 147 570 175 551 q 105 623 119 589 q 90 704 90 657 q 108 804 90 756 q 163 892 126 853 q 253 953 199 931 q 381 976 307 976 q 508 951 463 976 q 573 885 554 926 q 592 793 592 843 q 573 651 592 731 q 529 490 554 572 q 485 331 504 407 q 467 199 467 256 q 500 107 467 142 q 596 72 533 72 q 697 108 654 72 q 769 219 739 143 q 819 417 799 294 l 892 839 q 927 915 900 886 q 990 943 954 943 q 1015 940 1001 943 q 1042 929 1028 936 l 917 279 q 901 190 906 221 q 897 138 897 158 q 919 59 897 83 q 983 31 940 35 q 954 -15 978 1 q 904 -31 931 -31 q 824 8 853 -31 q 788 97 796 47 q 686 6 744 42 q 558 -31 628 -31 z "},"Ǜ":{"ha":1049,"x_min":90,"x_max":1042,"o":"m 558 -31 q 397 28 453 -31 q 342 190 342 86 q 361 333 342 254 q 406 497 381 413 q 451 660 432 582 q 471 801 471 739 q 444 886 471 863 q 369 910 418 910 q 263 854 304 910 q 222 710 222 799 q 233 633 222 671 q 263 563 243 596 q 238 554 250 557 q 211 551 226 551 q 147 570 175 551 q 105 623 119 589 q 90 704 90 657 q 108 804 90 756 q 163 892 126 853 q 253 953 199 931 q 381 976 307 976 q 508 951 463 976 q 573 885 554 926 q 592 793 592 843 q 573 651 592 731 q 529 490 554 572 q 485 331 504 407 q 467 199 467 256 q 500 107 467 142 q 596 72 533 72 q 697 108 654 72 q 769 219 739 143 q 819 417 799 294 l 892 839 q 927 915 900 886 q 990 943 954 943 q 1015 940 1001 943 q 1042 929 1028 936 l 917 279 q 901 190 906 221 q 897 138 897 158 q 919 59 897 83 q 983 31 940 35 q 954 -15 978 1 q 904 -31 931 -31 q 824 8 853 -31 q 788 97 796 47 q 686 6 744 42 q 558 -31 628 -31 z "},"Ǖ":{"ha":1049,"x_min":90,"x_max":1042,"o":"m 558 -31 q 397 28 453 -31 q 342 190 342 86 q 361 333 342 254 q 406 497 381 413 q 451 660 432 582 q 471 801 471 739 q 444 886 471 863 q 369 910 418 910 q 263 854 304 910 q 222 710 222 799 q 233 633 222 671 q 263 563 243 596 q 238 554 250 557 q 211 551 226 551 q 147 570 175 551 q 105 623 119 589 q 90 704 90 657 q 108 804 90 756 q 163 892 126 853 q 253 953 199 931 q 381 976 307 976 q 508 951 463 976 q 573 885 554 926 q 592 793 592 843 q 573 651 592 731 q 529 490 554 572 q 485 331 504 407 q 467 199 467 256 q 500 107 467 142 q 596 72 533 72 q 697 108 654 72 q 769 219 739 143 q 819 417 799 294 l 892 839 q 927 915 900 886 q 990 943 954 943 q 1015 940 1001 943 q 1042 929 1028 936 l 917 279 q 901 190 906 221 q 897 138 897 158 q 919 59 897 83 q 983 31 940 35 q 954 -15 978 1 q 904 -31 931 -31 q 824 8 853 -31 q 788 97 796 47 q 686 6 744 42 q 558 -31 628 -31 z "},"Ụ":{"ha":1049,"x_min":90,"x_max":1042,"o":"m 558 -31 q 397 28 453 -31 q 342 190 342 86 q 361 333 342 254 q 406 497 381 413 q 451 660 432 582 q 471 801 471 739 q 444 886 471 863 q 369 910 418 910 q 263 854 304 910 q 222 710 222 799 q 233 633 222 671 q 263 563 243 596 q 238 554 250 557 q 211 551 226 551 q 147 570 175 551 q 105 623 119 589 q 90 704 90 657 q 108 804 90 756 q 163 892 126 853 q 253 953 199 931 q 381 976 307 976 q 508 951 463 976 q 573 885 554 926 q 592 793 592 843 q 573 651 592 731 q 529 490 554 572 q 485 331 504 407 q 467 199 467 256 q 500 107 467 142 q 596 72 533 72 q 697 108 654 72 q 769 219 739 143 q 819 417 799 294 l 892 839 q 927 915 900 886 q 990 943 954 943 q 1015 940 1001 943 q 1042 929 1028 936 l 917 279 q 901 190 906 221 q 897 138 897 158 q 919 59 897 83 q 983 31 940 35 q 954 -15 978 1 q 904 -31 931 -31 q 824 8 853 -31 q 788 97 796 47 q 686 6 744 42 q 558 -31 628 -31 z "},"Ù":{"ha":1049,"x_min":90,"x_max":1042,"o":"m 558 -31 q 397 28 453 -31 q 342 190 342 86 q 361 333 342 254 q 406 497 381 413 q 451 660 432 582 q 471 801 471 739 q 444 886 471 863 q 369 910 418 910 q 263 854 304 910 q 222 710 222 799 q 233 633 222 671 q 263 563 243 596 q 238 554 250 557 q 211 551 226 551 q 147 570 175 551 q 105 623 119 589 q 90 704 90 657 q 108 804 90 756 q 163 892 126 853 q 253 953 199 931 q 381 976 307 976 q 508 951 463 976 q 573 885 554 926 q 592 793 592 843 q 573 651 592 731 q 529 490 554 572 q 485 331 504 407 q 467 199 467 256 q 500 107 467 142 q 596 72 533 72 q 697 108 654 72 q 769 219 739 143 q 819 417 799 294 l 892 839 q 927 915 900 886 q 990 943 954 943 q 1015 940 1001 943 q 1042 929 1028 936 l 917 279 q 901 190 906 221 q 897 138 897 158 q 919 59 897 83 q 983 31 940 35 q 954 -15 978 1 q 904 -31 931 -31 q 824 8 853 -31 q 788 97 796 47 q 686 6 744 42 q 558 -31 628 -31 z "},"Ủ":{"ha":1049,"x_min":90,"x_max":1042,"o":"m 558 -31 q 397 28 453 -31 q 342 190 342 86 q 361 333 342 254 q 406 497 381 413 q 451 660 432 582 q 471 801 471 739 q 444 886 471 863 q 369 910 418 910 q 263 854 304 910 q 222 710 222 799 q 233 633 222 671 q 263 563 243 596 q 238 554 250 557 q 211 551 226 551 q 147 570 175 551 q 105 623 119 589 q 90 704 90 657 q 108 804 90 756 q 163 892 126 853 q 253 953 199 931 q 381 976 307 976 q 508 951 463 976 q 573 885 554 926 q 592 793 592 843 q 573 651 592 731 q 529 490 554 572 q 485 331 504 407 q 467 199 467 256 q 500 107 467 142 q 596 72 533 72 q 697 108 654 72 q 769 219 739 143 q 819 417 799 294 l 892 839 q 927 915 900 886 q 990 943 954 943 q 1015 940 1001 943 q 1042 929 1028 936 l 917 279 q 901 190 906 221 q 897 138 897 158 q 919 59 897 83 q 983 31 940 35 q 954 -15 978 1 q 904 -31 931 -31 q 824 8 853 -31 q 788 97 796 47 q 686 6 744 42 q 558 -31 628 -31 z "},"Ư":{"ha":1057,"x_min":90,"x_max":1239,"o":"m 558 -31 q 397 28 453 -31 q 342 190 342 86 q 361 333 342 254 q 406 497 381 413 q 451 660 432 582 q 471 801 471 739 q 444 886 471 863 q 369 910 418 910 q 263 854 304 910 q 222 710 222 799 q 233 633 222 671 q 263 563 243 596 q 238 554 250 557 q 211 551 226 551 q 147 570 175 551 q 105 623 119 589 q 90 704 90 657 q 108 804 90 756 q 163 892 126 853 q 253 953 199 931 q 381 976 307 976 q 508 951 463 976 q 573 885 554 926 q 592 793 592 843 q 573 651 592 731 q 529 490 554 572 q 485 331 504 407 q 467 199 467 256 q 500 107 467 142 q 596 72 533 72 q 697 108 654 72 q 769 219 739 143 q 819 417 799 294 l 906 917 l 1039 917 l 917 279 q 901 190 906 221 q 897 138 897 158 q 919 59 897 83 q 983 31 940 35 q 954 -15 978 1 q 904 -31 931 -31 q 824 8 853 -31 q 788 97 796 47 q 686 6 744 42 q 558 -31 628 -31 m 1043 858 q 994 863 1017 858 q 957 872 971 867 l 964 917 q 1041 923 1006 917 q 1098 949 1076 929 q 1119 1010 1119 969 q 1114 1041 1119 1028 q 1097 1068 1108 1054 q 1122 1092 1104 1081 q 1165 1103 1139 1103 q 1222 1084 1204 1103 q 1239 1038 1239 1065 q 1213 953 1239 994 q 1143 885 1188 911 q 1043 858 1099 858 z "},"Ứ":{"ha":1057,"x_min":90,"x_max":1239,"o":"m 558 -31 q 397 28 453 -31 q 342 190 342 86 q 361 333 342 254 q 406 497 381 413 q 451 660 432 582 q 471 801 471 739 q 444 886 471 863 q 369 910 418 910 q 263 854 304 910 q 222 710 222 799 q 233 633 222 671 q 263 563 243 596 q 238 554 250 557 q 211 551 226 551 q 147 570 175 551 q 105 623 119 589 q 90 704 90 657 q 108 804 90 756 q 163 892 126 853 q 253 953 199 931 q 381 976 307 976 q 508 951 463 976 q 573 885 554 926 q 592 793 592 843 q 573 651 592 731 q 529 490 554 572 q 485 331 504 407 q 467 199 467 256 q 500 107 467 142 q 596 72 533 72 q 697 108 654 72 q 769 219 739 143 q 819 417 799 294 l 906 917 l 1039 917 l 917 279 q 901 190 906 221 q 897 138 897 158 q 919 59 897 83 q 983 31 940 35 q 954 -15 978 1 q 904 -31 931 -31 q 824 8 853 -31 q 788 97 796 47 q 686 6 744 42 q 558 -31 628 -31 m 1043 858 q 994 863 1017 858 q 957 872 971 867 l 964 917 q 1041 923 1006 917 q 1098 949 1076 929 q 1119 1010 1119 969 q 1114 1041 1119 1028 q 1097 1068 1108 1054 q 1122 1092 1104 1081 q 1165 1103 1139 1103 q 1222 1084 1204 1103 q 1239 1038 1239 1065 q 1213 953 1239 994 q 1143 885 1188 911 q 1043 858 1099 858 z "},"Ự":{"ha":1057,"x_min":90,"x_max":1239,"o":"m 558 -31 q 397 28 453 -31 q 342 190 342 86 q 361 333 342 254 q 406 497 381 413 q 451 660 432 582 q 471 801 471 739 q 444 886 471 863 q 369 910 418 910 q 263 854 304 910 q 222 710 222 799 q 233 633 222 671 q 263 563 243 596 q 238 554 250 557 q 211 551 226 551 q 147 570 175 551 q 105 623 119 589 q 90 704 90 657 q 108 804 90 756 q 163 892 126 853 q 253 953 199 931 q 381 976 307 976 q 508 951 463 976 q 573 885 554 926 q 592 793 592 843 q 573 651 592 731 q 529 490 554 572 q 485 331 504 407 q 467 199 467 256 q 500 107 467 142 q 596 72 533 72 q 697 108 654 72 q 769 219 739 143 q 819 417 799 294 l 906 917 l 1039 917 l 917 279 q 901 190 906 221 q 897 138 897 158 q 919 59 897 83 q 983 31 940 35 q 954 -15 978 1 q 904 -31 931 -31 q 824 8 853 -31 q 788 97 796 47 q 686 6 744 42 q 558 -31 628 -31 m 1043 858 q 994 863 1017 858 q 957 872 971 867 l 964 917 q 1041 923 1006 917 q 1098 949 1076 929 q 1119 1010 1119 969 q 1114 1041 1119 1028 q 1097 1068 1108 1054 q 1122 1092 1104 1081 q 1165 1103 1139 1103 q 1222 1084 1204 1103 q 1239 1038 1239 1065 q 1213 953 1239 994 q 1143 885 1188 911 q 1043 858 1099 858 z "},"Ừ":{"ha":1057,"x_min":90,"x_max":1239,"o":"m 558 -31 q 397 28 453 -31 q 342 190 342 86 q 361 333 342 254 q 406 497 381 413 q 451 660 432 582 q 471 801 471 739 q 444 886 471 863 q 369 910 418 910 q 263 854 304 910 q 222 710 222 799 q 233 633 222 671 q 263 563 243 596 q 238 554 250 557 q 211 551 226 551 q 147 570 175 551 q 105 623 119 589 q 90 704 90 657 q 108 804 90 756 q 163 892 126 853 q 253 953 199 931 q 381 976 307 976 q 508 951 463 976 q 573 885 554 926 q 592 793 592 843 q 573 651 592 731 q 529 490 554 572 q 485 331 504 407 q 467 199 467 256 q 500 107 467 142 q 596 72 533 72 q 697 108 654 72 q 769 219 739 143 q 819 417 799 294 l 906 917 l 1039 917 l 917 279 q 901 190 906 221 q 897 138 897 158 q 919 59 897 83 q 983 31 940 35 q 954 -15 978 1 q 904 -31 931 -31 q 824 8 853 -31 q 788 97 796 47 q 686 6 744 42 q 558 -31 628 -31 m 1043 858 q 994 863 1017 858 q 957 872 971 867 l 964 917 q 1041 923 1006 917 q 1098 949 1076 929 q 1119 1010 1119 969 q 1114 1041 1119 1028 q 1097 1068 1108 1054 q 1122 1092 1104 1081 q 1165 1103 1139 1103 q 1222 1084 1204 1103 q 1239 1038 1239 1065 q 1213 953 1239 994 q 1143 885 1188 911 q 1043 858 1099 858 z "},"Ử":{"ha":1057,"x_min":90,"x_max":1239,"o":"m 558 -31 q 397 28 453 -31 q 342 190 342 86 q 361 333 342 254 q 406 497 381 413 q 451 660 432 582 q 471 801 471 739 q 444 886 471 863 q 369 910 418 910 q 263 854 304 910 q 222 710 222 799 q 233 633 222 671 q 263 563 243 596 q 238 554 250 557 q 211 551 226 551 q 147 570 175 551 q 105 623 119 589 q 90 704 90 657 q 108 804 90 756 q 163 892 126 853 q 253 953 199 931 q 381 976 307 976 q 508 951 463 976 q 573 885 554 926 q 592 793 592 843 q 573 651 592 731 q 529 490 554 572 q 485 331 504 407 q 467 199 467 256 q 500 107 467 142 q 596 72 533 72 q 697 108 654 72 q 769 219 739 143 q 819 417 799 294 l 906 917 l 1039 917 l 917 279 q 901 190 906 221 q 897 138 897 158 q 919 59 897 83 q 983 31 940 35 q 954 -15 978 1 q 904 -31 931 -31 q 824 8 853 -31 q 788 97 796 47 q 686 6 744 42 q 558 -31 628 -31 m 1043 858 q 994 863 1017 858 q 957 872 971 867 l 964 917 q 1041 923 1006 917 q 1098 949 1076 929 q 1119 1010 1119 969 q 1114 1041 1119 1028 q 1097 1068 1108 1054 q 1122 1092 1104 1081 q 1165 1103 1139 1103 q 1222 1084 1204 1103 q 1239 1038 1239 1065 q 1213 953 1239 994 q 1143 885 1188 911 q 1043 858 1099 858 z "},"Ữ":{"ha":1057,"x_min":90,"x_max":1239,"o":"m 558 -31 q 397 28 453 -31 q 342 190 342 86 q 361 333 342 254 q 406 497 381 413 q 451 660 432 582 q 471 801 471 739 q 444 886 471 863 q 369 910 418 910 q 263 854 304 910 q 222 710 222 799 q 233 633 222 671 q 263 563 243 596 q 238 554 250 557 q 211 551 226 551 q 147 570 175 551 q 105 623 119 589 q 90 704 90 657 q 108 804 90 756 q 163 892 126 853 q 253 953 199 931 q 381 976 307 976 q 508 951 463 976 q 573 885 554 926 q 592 793 592 843 q 573 651 592 731 q 529 490 554 572 q 485 331 504 407 q 467 199 467 256 q 500 107 467 142 q 596 72 533 72 q 697 108 654 72 q 769 219 739 143 q 819 417 799 294 l 906 917 l 1039 917 l 917 279 q 901 190 906 221 q 897 138 897 158 q 919 59 897 83 q 983 31 940 35 q 954 -15 978 1 q 904 -31 931 -31 q 824 8 853 -31 q 788 97 796 47 q 686 6 744 42 q 558 -31 628 -31 m 1043 858 q 994 863 1017 858 q 957 872 971 867 l 964 917 q 1041 923 1006 917 q 1098 949 1076 929 q 1119 1010 1119 969 q 1114 1041 1119 1028 q 1097 1068 1108 1054 q 1122 1092 1104 1081 q 1165 1103 1139 1103 q 1222 1084 1204 1103 q 1239 1038 1239 1065 q 1213 953 1239 994 q 1143 885 1188 911 q 1043 858 1099 858 m 847 1056 q 774 1063 807 1056 q 710 1076 742 1069 q 643 1083 679 1083 q 594 1075 613 1083 q 565 1053 575 1067 q 542 1083 547 1068 q 538 1107 538 1097 q 561 1160 538 1136 q 632 1183 585 1183 q 699 1177 667 1183 q 763 1164 731 1171 q 828 1157 796 1157 q 888 1165 858 1157 q 929 1186 918 1174 q 947 1164 942 1176 q 953 1136 953 1151 q 925 1078 953 1101 q 847 1056 897 1056 z "},"Ű":{"ha":1049,"x_min":90,"x_max":1050,"o":"m 558 -31 q 397 28 453 -31 q 342 190 342 86 q 361 333 342 254 q 406 497 381 413 q 451 660 432 582 q 471 801 471 739 q 444 886 471 863 q 369 910 418 910 q 263 854 304 910 q 222 710 222 799 q 233 633 222 671 q 263 563 243 596 q 238 554 250 557 q 211 551 226 551 q 147 570 175 551 q 105 623 119 589 q 90 704 90 657 q 108 804 90 756 q 163 892 126 853 q 253 953 199 931 q 381 976 307 976 q 508 951 463 976 q 573 885 554 926 q 592 793 592 843 q 573 651 592 731 q 529 490 554 572 q 485 331 504 407 q 467 199 467 256 q 500 107 467 142 q 596 72 533 72 q 697 108 654 72 q 769 219 739 143 q 819 417 799 294 l 892 839 q 927 915 900 886 q 990 943 954 943 q 1015 940 1001 943 q 1042 929 1028 936 l 917 279 q 901 190 906 221 q 897 138 897 158 q 919 59 897 83 q 983 31 940 35 q 954 -15 978 1 q 904 -31 931 -31 q 824 8 853 -31 q 788 97 796 47 q 686 6 744 42 q 558 -31 628 -31 z "},"Ȗ":{"ha":1049,"x_min":90,"x_max":1042,"o":"m 558 -31 q 397 28 453 -31 q 342 190 342 86 q 361 333 342 254 q 406 497 381 413 q 451 660 432 582 q 471 801 471 739 q 444 886 471 863 q 369 910 418 910 q 263 854 304 910 q 222 710 222 799 q 233 633 222 671 q 263 563 243 596 q 238 554 250 557 q 211 551 226 551 q 147 570 175 551 q 105 623 119 589 q 90 704 90 657 q 108 804 90 756 q 163 892 126 853 q 253 953 199 931 q 381 976 307 976 q 508 951 463 976 q 573 885 554 926 q 592 793 592 843 q 573 651 592 731 q 529 490 554 572 q 485 331 504 407 q 467 199 467 256 q 500 107 467 142 q 596 72 533 72 q 697 108 654 72 q 769 219 739 143 q 819 417 799 294 l 892 839 q 927 915 900 886 q 990 943 954 943 q 1015 940 1001 943 q 1042 929 1028 936 l 917 279 q 901 190 906 221 q 897 138 897 158 q 919 59 897 83 q 983 31 940 35 q 954 -15 978 1 q 904 -31 931 -31 q 824 8 853 -31 q 788 97 796 47 q 686 6 744 42 q 558 -31 628 -31 z "},"Ū":{"ha":1049,"x_min":90,"x_max":1042,"o":"m 558 -31 q 397 28 453 -31 q 342 190 342 86 q 361 333 342 254 q 406 497 381 413 q 451 660 432 582 q 471 801 471 739 q 444 886 471 863 q 369 910 418 910 q 263 854 304 910 q 222 710 222 799 q 233 633 222 671 q 263 563 243 596 q 238 554 250 557 q 211 551 226 551 q 147 570 175 551 q 105 623 119 589 q 90 704 90 657 q 108 804 90 756 q 163 892 126 853 q 253 953 199 931 q 381 976 307 976 q 508 951 463 976 q 573 885 554 926 q 592 793 592 843 q 573 651 592 731 q 529 490 554 572 q 485 331 504 407 q 467 199 467 256 q 500 107 467 142 q 596 72 533 72 q 697 108 654 72 q 769 219 739 143 q 819 417 799 294 l 892 839 q 927 915 900 886 q 990 943 954 943 q 1015 940 1001 943 q 1042 929 1028 936 l 917 279 q 901 190 906 221 q 897 138 897 158 q 919 59 897 83 q 983 31 940 35 q 954 -15 978 1 q 904 -31 931 -31 q 824 8 853 -31 q 788 97 796 47 q 686 6 744 42 q 558 -31 628 -31 z "},"Ų":{"ha":1049,"x_min":90,"x_max":1042,"o":"m 558 -31 q 397 28 453 -31 q 342 190 342 86 q 361 333 342 254 q 406 497 381 413 q 451 660 432 582 q 471 801 471 739 q 444 886 471 863 q 369 910 418 910 q 263 854 304 910 q 222 710 222 799 q 233 633 222 671 q 263 563 243 596 q 238 554 250 557 q 211 551 226 551 q 147 570 175 551 q 105 623 119 589 q 90 704 90 657 q 108 804 90 756 q 163 892 126 853 q 253 953 199 931 q 381 976 307 976 q 508 951 463 976 q 573 885 554 926 q 592 793 592 843 q 573 651 592 731 q 529 490 554 572 q 485 331 504 407 q 467 199 467 256 q 500 107 467 142 q 596 72 533 72 q 697 108 654 72 q 769 219 739 143 q 819 417 799 294 l 892 839 q 927 915 900 886 q 990 943 954 943 q 1015 940 1001 943 q 1042 929 1028 936 l 917 279 q 901 190 906 221 q 897 138 897 158 q 919 59 897 83 q 983 31 940 35 q 954 -15 978 1 q 904 -31 931 -31 q 824 8 853 -31 q 788 97 796 47 q 686 6 744 42 q 558 -31 628 -31 z "},"Ů":{"ha":1049,"x_min":90,"x_max":1042,"o":"m 558 -31 q 397 28 453 -31 q 342 190 342 86 q 361 333 342 254 q 406 497 381 413 q 451 660 432 582 q 471 801 471 739 q 444 886 471 863 q 369 910 418 910 q 263 854 304 910 q 222 710 222 799 q 233 633 222 671 q 263 563 243 596 q 238 554 250 557 q 211 551 226 551 q 147 570 175 551 q 105 623 119 589 q 90 704 90 657 q 108 804 90 756 q 163 892 126 853 q 253 953 199 931 q 381 976 307 976 q 508 951 463 976 q 573 885 554 926 q 592 793 592 843 q 573 651 592 731 q 529 490 554 572 q 485 331 504 407 q 467 199 467 256 q 500 107 467 142 q 596 72 533 72 q 697 108 654 72 q 769 219 739 143 q 819 417 799 294 l 892 839 q 927 915 900 886 q 990 943 954 943 q 1015 940 1001 943 q 1042 929 1028 936 l 917 279 q 901 190 906 221 q 897 138 897 158 q 919 59 897 83 q 983 31 940 35 q 954 -15 978 1 q 904 -31 931 -31 q 824 8 853 -31 q 788 97 796 47 q 686 6 744 42 q 558 -31 628 -31 z "},"Ũ":{"ha":1049,"x_min":90,"x_max":1042,"o":"m 558 -31 q 397 28 453 -31 q 342 190 342 86 q 361 333 342 254 q 406 497 381 413 q 451 660 432 582 q 471 801 471 739 q 444 886 471 863 q 369 910 418 910 q 263 854 304 910 q 222 710 222 799 q 233 633 222 671 q 263 563 243 596 q 238 554 250 557 q 211 551 226 551 q 147 570 175 551 q 105 623 119 589 q 90 704 90 657 q 108 804 90 756 q 163 892 126 853 q 253 953 199 931 q 381 976 307 976 q 508 951 463 976 q 573 885 554 926 q 592 793 592 843 q 573 651 592 731 q 529 490 554 572 q 485 331 504 407 q 467 199 467 256 q 500 107 467 142 q 596 72 533 72 q 697 108 654 72 q 769 219 739 143 q 819 417 799 294 l 892 839 q 927 915 900 886 q 990 943 954 943 q 1015 940 1001 943 q 1042 929 1028 936 l 917 279 q 901 190 906 221 q 897 138 897 158 q 919 59 897 83 q 983 31 940 35 q 954 -15 978 1 q 904 -31 931 -31 q 824 8 853 -31 q 788 97 796 47 q 686 6 744 42 q 558 -31 628 -31 z "},"V":{"ha":728,"x_min":28,"x_max":753,"o":"m 151 -15 q 131 -14 142 -15 q 117 -11 121 -12 q 132 168 126 90 q 139 318 138 246 q 136 577 144 475 q 110 742 128 679 q 70 839 92 804 q 28 893 49 874 q 74 930 47 915 q 126 944 100 944 q 206 883 175 944 q 251 701 238 821 q 260 410 265 582 q 250 257 257 333 q 236 111 243 181 l 242 111 q 352 189 299 133 q 451 320 406 244 q 533 478 497 396 q 589 641 568 561 q 613 783 610 721 q 606 907 617 868 q 581 971 596 946 q 615 1012 592 996 q 663 1028 639 1028 q 731 992 710 1028 q 750 876 753 956 q 722 692 747 790 q 652 493 696 593 q 551 302 608 393 q 426 140 493 211 q 290 26 360 68 q 151 -15 221 -15 z "},"W":{"ha":1122,"x_min":28,"x_max":1142,"o":"m 131 -17 q 113 -15 121 -17 q 101 -12 104 -14 q 117 151 110 64 q 128 323 124 239 q 133 469 133 407 q 124 653 133 579 q 99 774 114 728 q 65 849 83 821 q 28 893 46 876 q 74 930 47 915 q 128 944 101 944 q 197 900 168 944 q 240 769 225 856 q 254 554 254 682 q 250 413 254 490 q 239 258 246 336 q 222 111 232 179 l 228 111 q 364 200 303 144 q 470 326 425 256 q 540 479 515 397 q 565 647 565 561 q 549 782 565 721 q 501 896 533 843 q 537 929 515 913 q 586 946 558 946 q 642 913 619 946 q 676 813 664 879 q 688 650 688 747 q 680 480 688 576 q 660 286 672 383 q 636 108 649 189 l 642 108 q 751 183 697 131 q 850 310 804 236 q 930 469 896 385 q 983 638 964 553 q 1003 799 1003 724 q 993 892 1003 851 q 964 964 983 933 q 1003 1008 975 992 q 1058 1025 1031 1025 q 1103 1008 1085 1025 q 1132 958 1122 990 q 1142 879 1142 925 q 1120 701 1142 799 q 1058 503 1099 604 q 963 310 1018 403 q 841 144 908 218 q 697 26 774 69 q 539 -17 621 -17 q 525 -15 531 -17 q 517 -12 519 -14 q 533 90 525 38 q 547 194 540 142 q 563 296 554 246 l 554 296 q 436 138 506 210 q 288 25 367 67 q 131 -17 208 -17 z "}}}
